<svg id="my-svg" width="611.39453125" xmlns="http://www.w3.org/2000/svg" xmlns:xlink="http://www.w3.org/1999/xlink" class="flowchart" height="457.0643615722656" viewBox="0 0 611.39453125 457.0643615722656" role="graphics-document document" aria-roledescription="flowchart-v2" style="background-color: rgb(9, 44, 46);"><style>#my-svg{font-family:"trebuchet ms",verdana,arial,sans-serif;font-size:16px;fill:#F7F7F7;}@keyframes edge-animation-frame{from{stroke-dashoffset:0;}}@keyframes dash{to{stroke-dashoffset:0;}}#my-svg .edge-animation-slow{stroke-dasharray:9,5!important;stroke-dashoffset:900;animation:dash 50s linear infinite;stroke-linecap:round;}#my-svg .edge-animation-fast{stroke-dasharray:9,5!important;stroke-dashoffset:900;animation:dash 20s linear infinite;stroke-linecap:round;}#my-svg .error-icon{fill:#154245;}#my-svg .error-text{fill:#eabdba;stroke:#eabdba;}#my-svg .edge-thickness-normal{stroke-width:1px;}#my-svg .edge-thickness-thick{stroke-width:3.5px;}#my-svg .edge-pattern-solid{stroke-dasharray:0;}#my-svg .edge-thickness-invisible{stroke-width:0;fill:none;}#my-svg .edge-pattern-dashed{stroke-dasharray:3;}#my-svg .edge-pattern-dotted{stroke-dasharray:2;}#my-svg .marker{fill:#D5DBDB;stroke:#D5DBDB;}#my-svg .marker.cross{stroke:#D5DBDB;}#my-svg svg{font-family:"trebuchet ms",verdana,arial,sans-serif;font-size:16px;}#my-svg p{margin:0;}#my-svg .label{font-family:"trebuchet ms",verdana,arial,sans-serif;color:#F7F7F7;}#my-svg .cluster-label text{fill:#eabdba;}#my-svg .cluster-label span{color:#eabdba;}#my-svg .cluster-label span p{background-color:transparent;}#my-svg .label text,#my-svg span{fill:#F7F7F7;color:#F7F7F7;}#my-svg .node rect,#my-svg .node circle,#my-svg .node ellipse,#my-svg .node polygon,#my-svg .node path{fill:#FA465B;stroke:hsl(353, 54.7368421053%, 52.7450980392%);stroke-width:1px;}#my-svg .rough-node .label text,#my-svg .node .label text,#my-svg .image-shape .label,#my-svg .icon-shape .label{text-anchor:middle;}#my-svg .node .katex path{fill:#000;stroke:#000;stroke-width:1px;}#my-svg .rough-node .label,#my-svg .node .label,#my-svg .image-shape .label,#my-svg .icon-shape .label{text-align:center;}#my-svg .node.clickable{cursor:pointer;}#my-svg .root .anchor path{fill:#D5DBDB!important;stroke-width:0;stroke:#D5DBDB;}#my-svg .arrowheadPath{fill:#0b0b0b;}#my-svg .edgePath .path{stroke:#D5DBDB;stroke-width:2.0px;}#my-svg .flowchart-link{stroke:#D5DBDB;fill:none;}#my-svg .edgeLabel{background-color:#031819;text-align:center;}#my-svg .edgeLabel p{background-color:#031819;}#my-svg .edgeLabel rect{opacity:0.5;background-color:#031819;fill:#031819;}#my-svg .labelBkg{background-color:rgba(3, 24, 25, 0.5);}#my-svg .cluster rect{fill:#154245;stroke:hsl(183.75, 13.3333333333%, 7.6470588235%);stroke-width:1px;}#my-svg .cluster text{fill:#eabdba;}#my-svg .cluster span{color:#eabdba;}#my-svg div.mermaidTooltip{position:absolute;text-align:center;max-width:200px;padding:2px;font-family:"trebuchet ms",verdana,arial,sans-serif;font-size:12px;background:#154245;border:1px solid hsl(183.75, 13.3333333333%, 7.6470588235%);border-radius:2px;pointer-events:none;z-index:100;}#my-svg .flowchartTitleText{text-anchor:middle;font-size:18px;fill:#F7F7F7;}#my-svg rect.text{fill:none;stroke-width:0;}#my-svg .icon-shape,#my-svg .image-shape{background-color:#031819;text-align:center;}#my-svg .icon-shape p,#my-svg .image-shape p{background-color:#031819;padding:2px;}#my-svg .icon-shape rect,#my-svg .image-shape rect{opacity:0.5;background-color:#031819;fill:#031819;}#my-svg .label-icon{display:inline-block;height:1em;overflow:visible;vertical-align:-0.125em;}#my-svg .node .label-icon path{fill:currentColor;stroke:revert;stroke-width:revert;}#my-svg :root{--mermaid-font-family:"trebuchet ms",verdana,arial,sans-serif;}</style><g><marker id="my-svg_flowchart-v2-pointEnd" class="marker flowchart-v2" viewBox="0 0 10 10" refX="5" refY="5" markerUnits="userSpaceOnUse" markerWidth="8" markerHeight="8" orient="auto"><path d="M 0 0 L 10 5 L 0 10 z" class="arrowMarkerPath" style="stroke-width: 1; stroke-dasharray: 1, 0;"/></marker><marker id="my-svg_flowchart-v2-pointStart" class="marker flowchart-v2" viewBox="0 0 10 10" refX="4.5" refY="5" markerUnits="userSpaceOnUse" markerWidth="8" markerHeight="8" orient="auto"><path d="M 0 5 L 10 10 L 10 0 z" class="arrowMarkerPath" style="stroke-width: 1; stroke-dasharray: 1, 0;"/></marker><marker id="my-svg_flowchart-v2-circleEnd" class="marker flowchart-v2" viewBox="0 0 10 10" refX="11" refY="5" markerUnits="userSpaceOnUse" markerWidth="11" markerHeight="11" orient="auto"><circle cx="5" cy="5" r="5" class="arrowMarkerPath" style="stroke-width: 1; stroke-dasharray: 1, 0;"/></marker><marker id="my-svg_flowchart-v2-circleStart" class="marker flowchart-v2" viewBox="0 0 10 10" refX="-1" refY="5" markerUnits="userSpaceOnUse" markerWidth="11" markerHeight="11" orient="auto"><circle cx="5" cy="5" r="5" class="arrowMarkerPath" style="stroke-width: 1; stroke-dasharray: 1, 0;"/></marker><marker id="my-svg_flowchart-v2-crossEnd" class="marker cross flowchart-v2" viewBox="0 0 11 11" refX="12" refY="5.2" markerUnits="userSpaceOnUse" markerWidth="11" markerHeight="11" orient="auto"><path d="M 1,1 l 9,9 M 10,1 l -9,9" class="arrowMarkerPath" style="stroke-width: 2; stroke-dasharray: 1, 0;"/></marker><marker id="my-svg_flowchart-v2-crossStart" class="marker cross flowchart-v2" viewBox="0 0 11 11" refX="-1" refY="5.2" markerUnits="userSpaceOnUse" markerWidth="11" markerHeight="11" orient="auto"><path d="M 1,1 l 9,9 M 10,1 l -9,9" class="arrowMarkerPath" style="stroke-width: 2; stroke-dasharray: 1, 0;"/></marker><g class="root"><g class="clusters"><g class="cluster" id="Features" data-look="classic"><rect style="" x="8" y="295.0643539428711" width="389.90625" height="154"/><g class="cluster-label" transform="translate(171.3828125, 295.0643539428711)"><foreignObject width="63.140625" height="24"><div xmlns="http://www.w3.org/1999/xhtml" style="display: table-cell; white-space: nowrap; line-height: 1.5; max-width: 200px; text-align: center;"><span class="nodeLabel"><p>Features</p></span></div></foreignObject></g></g><g class="cluster" id="Layers" data-look="classic"><rect style="" x="53.66796875" y="8" width="549.7265625" height="213.0643539428711"/><g class="cluster-label" transform="translate(304.515625, 8)"><foreignObject width="48.03125" height="24"><div xmlns="http://www.w3.org/1999/xhtml" style="display: table-cell; white-space: nowrap; line-height: 1.5; max-width: 200px; text-align: center;"><span class="nodeLabel"><p>Layers</p></span></div></foreignObject></g></g><g class="cluster" id="Abstraction" data-look="classic"><rect style="" x="28" y="320.0643539428711" width="349.90625" height="104"/><g class="cluster-label" transform="translate(162.9296875, 320.0643539428711)"><foreignObject width="80.046875" height="24"><div xmlns="http://www.w3.org/1999/xhtml" style="display: table-cell; white-space: nowrap; line-height: 1.5; max-width: 200px; text-align: center;"><span class="nodeLabel"><p>Abstraction</p></span></div></foreignObject></g></g><g class="cluster" id="DL" data-look="classic"><rect style="" x="73.66796875" y="33" width="265.0234375" height="163.0643539428711"/><g class="cluster-label" transform="translate(156.375, 33)"><foreignObject width="99.609375" height="24"><div xmlns="http://www.w3.org/1999/xhtml" style="display: table-cell; white-space: nowrap; line-height: 1.5; max-width: 200px; text-align: center;"><span class="nodeLabel"><p>Domain Layer</p></span></div></foreignObject></g></g></g><g class="edgePaths"><path d="M186.239,139.187L176.65,148.667C167.06,158.146,147.882,177.105,138.292,190.752C128.703,204.398,128.703,212.731,128.703,223.064C128.703,233.398,128.703,245.731,128.703,258.064C128.703,270.398,128.703,282.731,128.703,293.064C128.703,303.398,128.703,311.731,128.773,319.481C128.844,327.231,128.984,334.398,129.054,337.982L129.125,341.565" id="L_D_A_0" class="edge-thickness-normal edge-pattern-dotted edge-thickness-normal edge-pattern-solid flowchart-link" style=";" data-edge="true" data-et="edge" data-id="L_D_A_0" data-points="W3sieCI6MTg2LjIzODg1MjE2Mzc1MjA2LCJ5IjoxMzkuMTg3NDMxMDA3Mzk3NTh9LHsieCI6MTI4LjcwMzEyNSwieSI6MTk2LjA2NDM1Mzk0Mjg3MTF9LHsieCI6MTI4LjcwMzEyNSwieSI6MjIxLjA2NDM1Mzk0Mjg3MTF9LHsieCI6MTI4LjcwMzEyNSwieSI6MjU4LjA2NDM1Mzk0Mjg3MTF9LHsieCI6MTI4LjcwMzEyNSwieSI6Mjk1LjA2NDM1Mzk0Mjg3MTF9LHsieCI6MTI4LjcwMzEyNSwieSI6MzIwLjA2NDM1Mzk0Mjg3MTF9LHsieCI6MTI5LjIwMzEyNSwieSI6MzQ1LjU2NDM1Mzk0Mjg3MTF9XQ==" marker-end="url(#my-svg_flowchart-v2-pointEnd)"/><path d="M236.121,139.187L245.71,148.667C255.299,158.146,274.478,177.105,284.067,190.752C293.656,204.398,293.656,212.731,293.656,223.064C293.656,233.398,293.656,245.731,293.656,258.064C293.656,270.398,293.656,282.731,293.656,293.064C293.656,303.398,293.656,311.731,293.727,319.481C293.797,327.231,293.937,334.398,294.008,337.982L294.078,341.565" id="L_D_Db_0" class="edge-thickness-normal edge-pattern-dotted edge-thickness-normal edge-pattern-solid flowchart-link" style=";" data-edge="true" data-et="edge" data-id="L_D_Db_0" data-points="W3sieCI6MjM2LjEyMDUyMjgzNjI0Nzk0LCJ5IjoxMzkuMTg3NDMxMDA3Mzk3NTh9LHsieCI6MjkzLjY1NjI1LCJ5IjoxOTYuMDY0MzUzOTQyODcxMX0seyJ4IjoyOTMuNjU2MjUsInkiOjIyMS4wNjQzNTM5NDI4NzExfSx7IngiOjI5My42NTYyNSwieSI6MjU4LjA2NDM1Mzk0Mjg3MTF9LHsieCI6MjkzLjY1NjI1LCJ5IjoyOTUuMDY0MzUzOTQyODcxMX0seyJ4IjoyOTMuNjU2MjUsInkiOjMyMC4wNjQzNTM5NDI4NzExfSx7IngiOjI5NC4xNTYyNSwieSI6MzQ1LjU2NDM1Mzk0Mjg3MTF9XQ==" marker-end="url(#my-svg_flowchart-v2-pointEnd)"/></g><g class="edgeLabels"><g class="edgeLabel" transform="translate(128.703125, 258.0643539428711)"><g class="label" data-id="L_D_A_0" transform="translate(-16.8984375, -12)"><foreignObject width="33.796875" height="24"><div xmlns="http://www.w3.org/1999/xhtml" class="labelBkg" style="display: table-cell; white-space: nowrap; line-height: 1.5; max-width: 200px; text-align: center;"><span class="edgeLabel"><p>uses</p></span></div></foreignObject></g></g><g class="edgeLabel" transform="translate(293.65625, 258.0643539428711)"><g class="label" data-id="L_D_Db_0" transform="translate(-16.8984375, -12)"><foreignObject width="33.796875" height="24"><div xmlns="http://www.w3.org/1999/xhtml" class="labelBkg" style="display: table-cell; white-space: nowrap; line-height: 1.5; max-width: 200px; text-align: center;"><span class="edgeLabel"><p>uses</p></span></div></foreignObject></g></g></g><g class="nodes"><g class="node default" id="flowchart-HS-0" transform="translate(412.75390625, 114.53217697143555)"><polygon points="0,0 62.125,0 62.125,-87 0,-87 0,0 -8,0 70.125,0 70.125,-87 -8,-87 -8,0" class="label-container" transform="translate(-31.0625,43.5)"/><g class="label" style="" transform="translate(-23.5625, -36)"><rect/><foreignObject width="47.125" height="72"><div xmlns="http://www.w3.org/1999/xhtml" style="display: table-cell; white-space: nowrap; line-height: 1.5; max-width: 200px; text-align: center;"><span class="nodeLabel"><p>HTTP<br />Server<br />Layer</p></span></div></foreignObject></g></g><g class="node default" id="flowchart-D-1" transform="translate(211.1796875, 114.53217697143555)"><circle class="basic label-container" style="" r="35.0703125" cx="0" cy="0"/><g class="label" style="" transform="translate(-27.5703125, -24)"><rect/><foreignObject width="55.140625" height="48"><div xmlns="http://www.w3.org/1999/xhtml" style="display: table-cell; white-space: nowrap; line-height: 1.5; max-width: 200px; text-align: center;"><span class="nodeLabel"><p>Domain<br />Objects</p></span></div></foreignObject></g></g><g class="node default" id="flowchart-DA-2" transform="translate(535.10546875, 114.53217697143555)"><path d="M0,8.688116793083761 a33.2890625,8.688116793083761 0,0,0 66.578125,0 a33.2890625,8.688116793083761 0,0,0 -66.578125,0 l0,95.68811679308376 a33.2890625,8.688116793083761 0,0,0 66.578125,0 l0,-95.68811679308376" class="basic label-container" style="" transform="translate(-33.2890625, -56.53217518962565)"/><g class="label" style="" transform="translate(-25.7890625, -26)"><rect/><foreignObject width="51.578125" height="72"><div xmlns="http://www.w3.org/1999/xhtml" style="display: table-cell; white-space: nowrap; line-height: 1.5; max-width: 200px; text-align: center;"><span class="nodeLabel"><p>Data<br />Access<br />Layer</p></span></div></foreignObject></g></g><g class="node default" id="flowchart-A-3" transform="translate(128.703125, 372.0643539428711)"><g class="basic label-container outer-path"><path d="M-60.703125 -27 C-17.390898804745078 -27, 25.921327390509845 -27, 60.703125 -27 C60.703125 -27, 60.703125 -27, 60.703125 -27 C60.80643436117198 -26.995727093215123, 60.909743722343954 -26.991454186430246, 61.11602172736166 -26.982922465033347 C61.22787912324067 -26.968979455177724, 61.339736519119676 -26.9550364453221, 61.52609795140367 -26.931806517013612 C61.65201270279284 -26.90540497001136, 61.777927454182006 -26.87900342300911, 61.930552435703994 -26.847001329696653 C62.07112473897433 -26.80515114177604, 62.21169704224467 -26.763300953855424, 62.32662234602342 -26.729086208503173 C62.419974609402864 -26.692660042298012, 62.5133268727823 -26.656233876092855, 62.711602123264846 -26.578866633275286 C62.858842259334175 -26.50688531689243, 63.0060823954035 -26.434904000509572, 63.082861965185366 -26.397368756032446 C63.19440302830899 -26.330904708830168, 63.305944091432615 -26.264440661627894, 63.437865790612136 -26.185832391312644 C63.52390115093518 -26.12440432473516, 63.60993651125823 -26.062976258157672, 63.77418856344834 -25.94570254698197 C63.84155513993152 -25.88864596717276, 63.908921716414696 -25.83158938736355, 64.0895328581287 -25.678619553365657 C64.17455961543665 -25.593592796057713, 64.2595863727446 -25.508566038749766, 64.38174455336566 -25.386407858128706 C64.45986268011681 -25.29417396016109, 64.53798080686795 -25.201940062193472, 64.64882754698196 -25.07106356344834 C64.70364201571303 -24.994291123243904, 64.75845648444411 -24.917518683039468, 64.88895739131264 -24.734740790612136 C64.96519539910612 -24.60679690519342, 65.04143340689961 -24.478853019774704, 65.10049375603245 -24.37973696518537 C65.1472807374476 -24.284032665013918, 65.19406771886275 -24.188328364842466, 65.28199163327528 -24.008477123264846 C65.32662425933296 -23.894093505741502, 65.37125688539065 -23.779709888218154, 65.43221120850318 -23.623497346023417 C65.47212369457858 -23.48943366851956, 65.51203618065398 -23.3553699910157, 65.55012632969665 -23.227427435703994 C65.57030057326602 -23.131212056230787, 65.59047481683538 -23.03499667675758, 65.63493151701361 -22.82297295140367 C65.64866291438507 -22.71281321059761, 65.66239431175654 -22.602653469791548, 65.68604746503335 -22.412896727361662 C65.69107667987454 -22.291301523300806, 65.69610589471573 -22.169706319239953, 65.703125 -22 C65.703125 -22, 65.703125 -22, 65.703125 -22 C65.703125 -4.486952592183474, 65.703125 13.026094815633051, 65.703125 22 C65.703125 22, 65.703125 22, 65.703125 22 C65.69788287468415 22.126742904731703, 65.69264074936832 22.253485809463402, 65.68604746503335 22.412896727361662 C65.67085608690427 22.53476912183953, 65.65566470877518 22.656641516317396, 65.63493151701361 22.82297295140367 C65.60919053102147 22.945737342877983, 65.58344954502934 23.068501734352296, 65.55012632969665 23.227427435703994 C65.51965924200044 23.329764579315366, 65.48919215430425 23.43210172292674, 65.43221120850318 23.623497346023417 C65.40163971383669 23.701845372163078, 65.3710682191702 23.78019339830274, 65.28199163327528 24.008477123264846 C65.21577143049798 24.143932713096085, 65.14955122772068 24.279388302927327, 65.10049375603245 24.379736965185366 C65.01823379443002 24.517786993070654, 64.93597383282759 24.655837020955946, 64.88895739131264 24.734740790612133 C64.82834034210437 24.81964025043439, 64.7677232928961 24.904539710256643, 64.64882754698196 25.07106356344834 C64.58347494282674 25.1482252373678, 64.51812233867152 25.225386911287263, 64.38174455336566 25.386407858128706 C64.32089084919835 25.447261562296017, 64.26003714503103 25.50811526646333, 64.0895328581287 25.678619553365657 C64.0063955966682 25.749033222001845, 63.92325833520768 25.819446890638037, 63.77418856344834 25.94570254698197 C63.68163536432747 26.01178426101453, 63.589082165206605 26.077865975047093, 63.437865790612136 26.185832391312644 C63.326934455458726 26.25193311950524, 63.21600312030532 26.318033847697833, 63.082861965185366 26.397368756032446 C62.99675627391402 26.439463263489632, 62.910650582642674 26.481557770946814, 62.711602123264846 26.578866633275286 C62.56404718025807 26.636442750701715, 62.4164922372513 26.694018868128143, 62.32662234602342 26.729086208503173 C62.24616804408143 26.75303849196842, 62.16571374213944 26.77699077543367, 61.930552435703994 26.847001329696653 C61.81160669330203 26.871941629177826, 61.69266095090006 26.896881928659, 61.52609795140367 26.931806517013612 C61.36730077940856 26.951600563860257, 61.20850360741345 26.971394610706902, 61.11602172736166 26.982922465033347 C60.98497488608154 26.98834260248159, 60.853928044801414 26.99376273992984, 60.703125 27 C60.703125 27, 60.703125 27, 60.703125 27 C33.257339698138615 27, 5.811554396277231 27, -60.703125 27 C-60.703125 27, -60.703125 27, -60.703125 27 C-60.803598273580086 26.995844394665607, -60.90407154716017 26.99168878933121, -61.11602172736166 26.982922465033347 C-61.25648570127062 26.96541364894495, -61.39694967517957 26.947904832856555, -61.52609795140367 26.931806517013612 C-61.61858610288606 26.912413790970206, -61.711074254368455 26.8930210649268, -61.930552435703994 26.847001329696653 C-62.070952904418085 26.80520229913992, -62.21135337313217 26.763403268583193, -62.32662234602342 26.729086208503173 C-62.46428255028176 26.67537103011731, -62.6019427545401 26.621655851731454, -62.711602123264846 26.578866633275286 C-62.8344354346986 26.51881708640103, -62.95726874613236 26.458767539526775, -63.082861965185366 26.397368756032446 C-63.19937941293297 26.327939427226404, -63.315896860680574 26.258510098420363, -63.437865790612136 26.185832391312644 C-63.509282225742865 26.134842036701883, -63.58069866087359 26.08385168209112, -63.77418856344834 25.94570254698197 C-63.840325121157704 25.889687739933063, -63.90646167886706 25.83367293288416, -64.0895328581287 25.67861955336566 C-64.1837987542268 25.584353657267567, -64.2780646503249 25.490087761169473, -64.38174455336566 25.386407858128706 C-64.47790557780189 25.272870751119388, -64.57406660223812 25.15933364411007, -64.64882754698196 25.07106356344834 C-64.69759572500124 25.00275948028312, -64.74636390302052 24.934455397117905, -64.88895739131264 24.734740790612133 C-64.95199580402958 24.628948683931156, -65.01503421674651 24.52315657725018, -65.10049375603245 24.37973696518537 C-65.14386463249807 24.29102041937675, -65.1872355089637 24.202303873568134, -65.28199163327528 24.00847712326485 C-65.33995774154877 23.859922719374218, -65.39792384982228 23.711368315483586, -65.43221120850318 23.623497346023417 C-65.46345859345517 23.51853923013132, -65.49470597840718 23.41358111423922, -65.55012632969665 23.227427435703994 C-65.57879764968554 23.090687640566532, -65.60746896967443 22.953947845429074, -65.63493151701361 22.82297295140367 C-65.64629932460954 22.731775041648106, -65.65766713220548 22.640577131892545, -65.68604746503335 22.412896727361662 C-65.6923781215583 22.259835564476603, -65.69870877808327 22.106774401591547, -65.703125 22 C-65.703125 22, -65.703125 22, -65.703125 22 C-65.703125 8.078056129008397, -65.703125 -5.843887741983206, -65.703125 -22 C-65.703125 -22, -65.703125 -22, -65.703125 -22 C-65.69773605821194 -22.13029259975619, -65.69234711642389 -22.260585199512377, -65.68604746503335 -22.41289672736166 C-65.67265889863245 -22.520306116558466, -65.65927033223156 -22.627715505755276, -65.63493151701361 -22.82297295140367 C-65.61145932464869 -22.934916969908915, -65.58798713228377 -23.04686098841416, -65.55012632969665 -23.227427435703994 C-65.50480886771494 -23.3796461072478, -65.45949140573325 -23.531864778791608, -65.43221120850318 -23.623497346023417 C-65.38914818921657 -23.73385840613926, -65.34608516992996 -23.8442194662551, -65.28199163327528 -24.008477123264846 C-65.24362178493078 -24.086963902544554, -65.20525193658628 -24.16545068182426, -65.10049375603245 -24.379736965185366 C-65.02207286527315 -24.511344200895422, -64.94365197451384 -24.64295143660548, -64.88895739131264 -24.734740790612133 C-64.8345822629105 -24.810897896400068, -64.78020713450837 -24.887055002188003, -64.64882754698196 -25.07106356344834 C-64.5719449736914 -25.161838646201662, -64.49506240040083 -25.252613728954987, -64.38174455336566 -25.386407858128706 C-64.27619135485358 -25.49196105664078, -64.17063815634151 -25.597514255152856, -64.0895328581287 -25.678619553365657 C-64.01624350676605 -25.740692467613176, -63.94295415540337 -25.802765381860695, -63.77418856344834 -25.945702546981966 C-63.704636011806805 -25.99536211436017, -63.63508346016526 -26.045021681738373, -63.437865790612136 -26.185832391312644 C-63.35226581226102 -26.236838907140246, -63.26666583390989 -26.287845422967848, -63.082861965185366 -26.397368756032446 C-62.936754784276545 -26.46879620438697, -62.79064760336773 -26.540223652741492, -62.711602123264846 -26.578866633275286 C-62.62102792369456 -26.614208795618328, -62.53045372412428 -26.649550957961367, -62.32662234602342 -26.729086208503173 C-62.229616391592444 -26.757966132413557, -62.13261043716147 -26.78684605632394, -61.930552435703994 -26.847001329696653 C-61.84853506318206 -26.864198564268055, -61.76651769066013 -26.881395798839453, -61.52609795140367 -26.931806517013612 C-61.390650167613394 -26.948690065655786, -61.25520238382311 -26.96557361429796, -61.11602172736166 -26.982922465033347 C-61.030637498207454 -26.986453982873897, -60.94525326905325 -26.989985500714443, -60.703125 -27 C-60.703125 -27, -60.703125 -27, -60.703125 -27" stroke="none" stroke-width="0" fill="#FA465B" style=""/><path d="M-60.703125 -27 C-14.666346833916222 -27, 31.370431332167556 -27, 60.703125 -27 M-60.703125 -27 C-27.955474396739923 -27, 4.792176206520153 -27, 60.703125 -27 M60.703125 -27 C60.703125 -27, 60.703125 -27, 60.703125 -27 M60.703125 -27 C60.703125 -27, 60.703125 -27, 60.703125 -27 M60.703125 -27 C60.85962697049095 -26.99352703061977, 61.01612894098191 -26.98705406123954, 61.11602172736166 -26.982922465033347 M60.703125 -27 C60.80618344826307 -26.9957374710498, 60.90924189652613 -26.9914749420996, 61.11602172736166 -26.982922465033347 M61.11602172736166 -26.982922465033347 C61.2633997226597 -26.964551817077577, 61.41077771795773 -26.946181169121807, 61.52609795140367 -26.931806517013612 M61.11602172736166 -26.982922465033347 C61.21052280362117 -26.971142918162094, 61.30502387988067 -26.959363371290838, 61.52609795140367 -26.931806517013612 M61.52609795140367 -26.931806517013612 C61.6702656571054 -26.90157772796151, 61.814433362807144 -26.871348938909403, 61.930552435703994 -26.847001329696653 M61.52609795140367 -26.931806517013612 C61.63247659155684 -26.909501261775016, 61.738855231710005 -26.887196006536424, 61.930552435703994 -26.847001329696653 M61.930552435703994 -26.847001329696653 C62.02719949378998 -26.818228253857562, 62.12384655187597 -26.78945517801847, 62.32662234602342 -26.729086208503173 M61.930552435703994 -26.847001329696653 C62.07429520331113 -26.80420725364727, 62.21803797091827 -26.761413177597888, 62.32662234602342 -26.729086208503173 M62.32662234602342 -26.729086208503173 C62.467765681992894 -26.67401190790612, 62.60890901796237 -26.618937607309064, 62.711602123264846 -26.578866633275286 M62.32662234602342 -26.729086208503173 C62.44124667893329 -26.6843596550102, 62.55587101184316 -26.63963310151723, 62.711602123264846 -26.578866633275286 M62.711602123264846 -26.578866633275286 C62.828373385462776 -26.521780641689833, 62.945144647660705 -26.46469465010438, 63.082861965185366 -26.397368756032446 M62.711602123264846 -26.578866633275286 C62.82301925940534 -26.52439811442507, 62.93443639554584 -26.46992959557485, 63.082861965185366 -26.397368756032446 M63.082861965185366 -26.397368756032446 C63.20436086112246 -26.324971128392505, 63.325859757059554 -26.25257350075256, 63.437865790612136 -26.185832391312644 M63.082861965185366 -26.397368756032446 C63.164557068633805 -26.348689040600885, 63.246252172082244 -26.300009325169324, 63.437865790612136 -26.185832391312644 M63.437865790612136 -26.185832391312644 C63.509246787959945 -26.134867338792557, 63.58062778530776 -26.08390228627247, 63.77418856344834 -25.94570254698197 M63.437865790612136 -26.185832391312644 C63.53023820909041 -26.119879752177976, 63.6226106275687 -26.053927113043308, 63.77418856344834 -25.94570254698197 M63.77418856344834 -25.94570254698197 C63.85502832816787 -25.87723475882549, 63.93586809288739 -25.808766970669016, 64.0895328581287 -25.678619553365657 M63.77418856344834 -25.94570254698197 C63.86808452329529 -25.86617672562592, 63.961980483142234 -25.786650904269873, 64.0895328581287 -25.678619553365657 M64.0895328581287 -25.678619553365657 C64.20389625462711 -25.56425615686726, 64.3182596511255 -25.44989276036886, 64.38174455336566 -25.386407858128706 M64.0895328581287 -25.678619553365657 C64.17904720094494 -25.589105210549427, 64.26856154376117 -25.499590867733193, 64.38174455336566 -25.386407858128706 M64.38174455336566 -25.386407858128706 C64.47520223783953 -25.276062578581595, 64.56865992231339 -25.165717299034483, 64.64882754698196 -25.07106356344834 M64.38174455336566 -25.386407858128706 C64.46560839228431 -25.287390010624037, 64.54947223120296 -25.188372163119368, 64.64882754698196 -25.07106356344834 M64.64882754698196 -25.07106356344834 C64.71365622529797 -24.980265350042924, 64.77848490361399 -24.889467136637503, 64.88895739131264 -24.734740790612136 M64.64882754698196 -25.07106356344834 C64.71800183312149 -24.97417894759287, 64.78717611926102 -24.877294331737396, 64.88895739131264 -24.734740790612136 M64.88895739131264 -24.734740790612136 C64.95860941147484 -24.617849618548014, 65.02826143163703 -24.500958446483892, 65.10049375603245 -24.37973696518537 M64.88895739131264 -24.734740790612136 C64.96670165852186 -24.604269075733097, 65.04444592573107 -24.473797360854057, 65.10049375603245 -24.37973696518537 M65.10049375603245 -24.37973696518537 C65.13987529497064 -24.299180739719333, 65.17925683390884 -24.218624514253296, 65.28199163327528 -24.008477123264846 M65.10049375603245 -24.37973696518537 C65.16091905341636 -24.25613504379904, 65.22134435080028 -24.132533122412713, 65.28199163327528 -24.008477123264846 M65.28199163327528 -24.008477123264846 C65.34003127013784 -23.859734281750193, 65.3980709070004 -23.710991440235535, 65.43221120850318 -23.623497346023417 M65.28199163327528 -24.008477123264846 C65.34029769791886 -23.85905148586536, 65.39860376256243 -23.709625848465873, 65.43221120850318 -23.623497346023417 M65.43221120850318 -23.623497346023417 C65.47885453637905 -23.466825169445823, 65.5254978642549 -23.310152992868233, 65.55012632969665 -23.227427435703994 M65.43221120850318 -23.623497346023417 C65.46758787635358 -23.50466921337096, 65.50296454420398 -23.385841080718503, 65.55012632969665 -23.227427435703994 M65.55012632969665 -23.227427435703994 C65.57571592329819 -23.105385067648367, 65.60130551689971 -22.98334269959274, 65.63493151701361 -22.82297295140367 M65.55012632969665 -23.227427435703994 C65.57292368462849 -23.118701864496806, 65.59572103956033 -23.009976293289615, 65.63493151701361 -22.82297295140367 M65.63493151701361 -22.82297295140367 C65.65072720686011 -22.69625248353936, 65.6665228967066 -22.56953201567505, 65.68604746503335 -22.412896727361662 M65.63493151701361 -22.82297295140367 C65.6478207644192 -22.719569334497592, 65.66071001182478 -22.616165717591514, 65.68604746503335 -22.412896727361662 M65.68604746503335 -22.412896727361662 C65.68995211067299 -22.318491099777756, 65.69385675631263 -22.224085472193845, 65.703125 -22 M65.68604746503335 -22.412896727361662 C65.69118265911248 -22.28873918156936, 65.69631785319162 -22.164581635777054, 65.703125 -22 M65.703125 -22 C65.703125 -22, 65.703125 -22, 65.703125 -22 M65.703125 -22 C65.703125 -22, 65.703125 -22, 65.703125 -22 M65.703125 -22 C65.703125 -9.996153488829165, 65.703125 2.0076930223416696, 65.703125 22 M65.703125 -22 C65.703125 -9.636443911458448, 65.703125 2.7271121770831037, 65.703125 22 M65.703125 22 C65.703125 22, 65.703125 22, 65.703125 22 M65.703125 22 C65.703125 22, 65.703125 22, 65.703125 22 M65.703125 22 C65.69806825777185 22.12226075491544, 65.69301151554369 22.244521509830886, 65.68604746503335 22.412896727361662 M65.703125 22 C65.69650176150407 22.160135142738532, 65.68987852300813 22.32027028547706, 65.68604746503335 22.412896727361662 M65.68604746503335 22.412896727361662 C65.67448176591273 22.505682216187193, 65.6629160667921 22.598467705012723, 65.63493151701361 22.82297295140367 M65.68604746503335 22.412896727361662 C65.67469642719891 22.50396010218768, 65.66334538936445 22.5950234770137, 65.63493151701361 22.82297295140367 M65.63493151701361 22.82297295140367 C65.60201329007974 22.979967174514837, 65.56909506314585 23.136961397626003, 65.55012632969665 23.227427435703994 M65.63493151701361 22.82297295140367 C65.6016030530419 22.98192368466273, 65.56827458907019 23.140874417921786, 65.55012632969665 23.227427435703994 M65.55012632969665 23.227427435703994 C65.51801667591783 23.33528186153033, 65.48590702213902 23.443136287356662, 65.43221120850318 23.623497346023417 M65.55012632969665 23.227427435703994 C65.51983689866606 23.329167841094655, 65.48954746763546 23.43090824648532, 65.43221120850318 23.623497346023417 M65.43221120850318 23.623497346023417 C65.39584999076963 23.7166831607353, 65.3594887730361 23.809868975447184, 65.28199163327528 24.008477123264846 M65.43221120850318 23.623497346023417 C65.37584978579966 23.767939293249622, 65.31948836309614 23.912381240475828, 65.28199163327528 24.008477123264846 M65.28199163327528 24.008477123264846 C65.21729357123137 24.140819124459988, 65.15259550918746 24.273161125655125, 65.10049375603245 24.379736965185366 M65.28199163327528 24.008477123264846 C65.21968810289033 24.135921031663056, 65.15738457250539 24.263364940061265, 65.10049375603245 24.379736965185366 M65.10049375603245 24.379736965185366 C65.02533405922767 24.505871211270918, 64.9501743624229 24.632005457356467, 64.88895739131264 24.734740790612133 M65.10049375603245 24.379736965185366 C65.03392143121309 24.491459741596547, 64.96734910639374 24.603182518007724, 64.88895739131264 24.734740790612133 M64.88895739131264 24.734740790612133 C64.8175032170781 24.834818588423015, 64.74604904284355 24.9348963862339, 64.64882754698196 25.07106356344834 M64.88895739131264 24.734740790612133 C64.80702512155139 24.849494074310275, 64.72509285179014 24.964247358008418, 64.64882754698196 25.07106356344834 M64.64882754698196 25.07106356344834 C64.55916867503569 25.176923593519554, 64.46950980308944 25.28278362359077, 64.38174455336566 25.386407858128706 M64.64882754698196 25.07106356344834 C64.57976433487538 25.15260634389732, 64.5107011227688 25.234149124346306, 64.38174455336566 25.386407858128706 M64.38174455336566 25.386407858128706 C64.30831362910126 25.4598387823931, 64.23488270483688 25.533269706657492, 64.0895328581287 25.678619553365657 M64.38174455336566 25.386407858128706 C64.27628586958285 25.49186654191151, 64.17082718580005 25.597325225694316, 64.0895328581287 25.678619553365657 M64.0895328581287 25.678619553365657 C64.01725993618395 25.739831595809516, 63.94498701423919 25.80104363825338, 63.77418856344834 25.94570254698197 M64.0895328581287 25.678619553365657 C63.99790770636427 25.75622209838268, 63.90628255459984 25.833824643399698, 63.77418856344834 25.94570254698197 M63.77418856344834 25.94570254698197 C63.64003267984875 26.04148800680423, 63.50587679624916 26.137273466626493, 63.437865790612136 26.185832391312644 M63.77418856344834 25.94570254698197 C63.68672450610115 26.008150683628184, 63.59926044875397 26.0705988202744, 63.437865790612136 26.185832391312644 M63.437865790612136 26.185832391312644 C63.36374544401694 26.229998531358234, 63.28962509742175 26.274164671403824, 63.082861965185366 26.397368756032446 M63.437865790612136 26.185832391312644 C63.35764257226594 26.23363505359291, 63.27741935391973 26.281437715873174, 63.082861965185366 26.397368756032446 M63.082861965185366 26.397368756032446 C62.958263354139795 26.458281305300346, 62.83366474309423 26.519193854568247, 62.711602123264846 26.578866633275286 M63.082861965185366 26.397368756032446 C62.945109657310304 26.464711755844363, 62.807357349435236 26.532054755656283, 62.711602123264846 26.578866633275286 M62.711602123264846 26.578866633275286 C62.597997945172665 26.623195121123153, 62.48439376708048 26.66752360897102, 62.32662234602342 26.729086208503173 M62.711602123264846 26.578866633275286 C62.57663086025424 26.631532583530408, 62.441659597243635 26.68419853378553, 62.32662234602342 26.729086208503173 M62.32662234602342 26.729086208503173 C62.21442489863592 26.76248883582123, 62.10222745124841 26.795891463139288, 61.930552435703994 26.847001329696653 M62.32662234602342 26.729086208503173 C62.23062193549316 26.75766676902384, 62.13462152496291 26.786247329544505, 61.930552435703994 26.847001329696653 M61.930552435703994 26.847001329696653 C61.8112426827902 26.872017954155886, 61.69193292987641 26.89703457861512, 61.52609795140367 26.931806517013612 M61.930552435703994 26.847001329696653 C61.79997773429826 26.87437996546756, 61.669403032892525 26.90175860123847, 61.52609795140367 26.931806517013612 M61.52609795140367 26.931806517013612 C61.36626315898433 26.951729903111254, 61.20642836656499 26.971653289208895, 61.11602172736166 26.982922465033347 M61.52609795140367 26.931806517013612 C61.38187537754766 26.949783842096817, 61.237652803691645 26.967761167180022, 61.11602172736166 26.982922465033347 M61.11602172736166 26.982922465033347 C60.97520473424366 26.98874669895072, 60.83438774112565 26.99457093286809, 60.703125 27 M61.11602172736166 26.982922465033347 C60.953764554513654 26.98963347134383, 60.791507381665646 26.996344477654315, 60.703125 27 M60.703125 27 C60.703125 27, 60.703125 27, 60.703125 27 M60.703125 27 C60.703125 27, 60.703125 27, 60.703125 27 M60.703125 27 C18.44997266646265 27, -23.8031796670747 27, -60.703125 27 M60.703125 27 C27.212582068119048 27, -6.277960863761905 27, -60.703125 27 M-60.703125 27 C-60.703125 27, -60.703125 27, -60.703125 27 M-60.703125 27 C-60.703125 27, -60.703125 27, -60.703125 27 M-60.703125 27 C-60.80167392624134 26.995923986260276, -60.900222852482685 26.991847972520556, -61.11602172736166 26.982922465033347 M-60.703125 27 C-60.79798227647727 26.996076674023954, -60.892839552954534 26.99215334804791, -61.11602172736166 26.982922465033347 M-61.11602172736166 26.982922465033347 C-61.23124590078492 26.968559786794494, -61.34647007420818 26.954197108555636, -61.52609795140367 26.931806517013612 M-61.11602172736166 26.982922465033347 C-61.27363328792469 26.96327620449759, -61.43124484848771 26.94362994396183, -61.52609795140367 26.931806517013612 M-61.52609795140367 26.931806517013612 C-61.662962425111765 26.903109054677568, -61.799826898819866 26.874411592341527, -61.930552435703994 26.847001329696653 M-61.52609795140367 26.931806517013612 C-61.62919220942079 26.91018992428979, -61.73228646743791 26.88857333156596, -61.930552435703994 26.847001329696653 M-61.930552435703994 26.847001329696653 C-62.07348001571707 26.8044499455091, -62.21640759573014 26.761898561321544, -62.32662234602342 26.729086208503173 M-61.930552435703994 26.847001329696653 C-62.03152419130919 26.81694073562198, -62.13249594691438 26.786880141547304, -62.32662234602342 26.729086208503173 M-62.32662234602342 26.729086208503173 C-62.406970028594834 26.697734445475753, -62.48731771116624 26.66638268244833, -62.711602123264846 26.578866633275286 M-62.32662234602342 26.729086208503173 C-62.43830357538408 26.685508057578726, -62.549984804744746 26.641929906654276, -62.711602123264846 26.578866633275286 M-62.711602123264846 26.578866633275286 C-62.822306737877014 26.52474644497494, -62.93301135248918 26.470626256674596, -63.082861965185366 26.397368756032446 M-62.711602123264846 26.578866633275286 C-62.855628536283945 26.50845641035798, -62.99965494930304 26.438046187440676, -63.082861965185366 26.397368756032446 M-63.082861965185366 26.397368756032446 C-63.15511417274819 26.354315785230096, -63.227366380311025 26.311262814427746, -63.437865790612136 26.185832391312644 M-63.082861965185366 26.397368756032446 C-63.200859288350244 26.327057612880793, -63.31885661151512 26.25674646972914, -63.437865790612136 26.185832391312644 M-63.437865790612136 26.185832391312644 C-63.55971382867821 26.098834564296467, -63.68156186674429 26.01183673728029, -63.77418856344834 25.94570254698197 M-63.437865790612136 26.185832391312644 C-63.5175693375666 26.12892515258665, -63.59727288452107 26.072017913860655, -63.77418856344834 25.94570254698197 M-63.77418856344834 25.94570254698197 C-63.84858457657821 25.882692338029294, -63.922980589708075 25.81968212907662, -64.0895328581287 25.67861955336566 M-63.77418856344834 25.94570254698197 C-63.8520243296654 25.879779015773828, -63.929860095882454 25.813855484565686, -64.0895328581287 25.67861955336566 M-64.0895328581287 25.67861955336566 C-64.18665729777234 25.581495113722024, -64.28378173741598 25.484370674078384, -64.38174455336566 25.386407858128706 M-64.0895328581287 25.67861955336566 C-64.15161384668968 25.616538564804678, -64.21369483525068 25.554457576243696, -64.38174455336566 25.386407858128706 M-64.38174455336566 25.386407858128706 C-64.45150271495247 25.304044552378905, -64.52126087653929 25.221681246629103, -64.64882754698196 25.07106356344834 M-64.38174455336566 25.386407858128706 C-64.44475424419223 25.312012456749173, -64.5077639350188 25.237617055369643, -64.64882754698196 25.07106356344834 M-64.64882754698196 25.07106356344834 C-64.71602120533919 24.97695298940161, -64.78321486369641 24.882842415354883, -64.88895739131264 24.734740790612133 M-64.64882754698196 25.07106356344834 C-64.70685370134575 24.989792877636482, -64.76487985570952 24.908522191824623, -64.88895739131264 24.734740790612133 M-64.88895739131264 24.734740790612133 C-64.9566835563246 24.621081620508793, -65.02440972133657 24.507422450405453, -65.10049375603245 24.37973696518537 M-64.88895739131264 24.734740790612133 C-64.95650398113764 24.621382986557173, -65.02405057096264 24.508025182502212, -65.10049375603245 24.37973696518537 M-65.10049375603245 24.37973696518537 C-65.14563536346459 24.287398331291207, -65.19077697089672 24.19505969739705, -65.28199163327528 24.00847712326485 M-65.10049375603245 24.37973696518537 C-65.17062719457896 24.23627672364613, -65.24076063312545 24.092816482106894, -65.28199163327528 24.00847712326485 M-65.28199163327528 24.00847712326485 C-65.31428434765938 23.925717989035835, -65.34657706204348 23.84295885480682, -65.43221120850318 23.623497346023417 M-65.28199163327528 24.00847712326485 C-65.3288574993244 23.88837020214991, -65.37572336537352 23.768263281034972, -65.43221120850318 23.623497346023417 M-65.43221120850318 23.623497346023417 C-65.46750551473006 23.504945861187693, -65.50279982095695 23.38639437635197, -65.55012632969665 23.227427435703994 M-65.43221120850318 23.623497346023417 C-65.45987023656974 23.530592308442436, -65.4875292646363 23.43768727086146, -65.55012632969665 23.227427435703994 M-65.55012632969665 23.227427435703994 C-65.57594411453225 23.10429677375013, -65.60176189936784 22.981166111796266, -65.63493151701361 22.82297295140367 M-65.55012632969665 23.227427435703994 C-65.58058362656566 23.082169926251247, -65.61104092343466 22.9369124167985, -65.63493151701361 22.82297295140367 M-65.63493151701361 22.82297295140367 C-65.65460823908788 22.665117014023366, -65.67428496116214 22.507261076643058, -65.68604746503335 22.412896727361662 M-65.63493151701361 22.82297295140367 C-65.65252788145455 22.681806623352447, -65.67012424589548 22.540640295301223, -65.68604746503335 22.412896727361662 M-65.68604746503335 22.412896727361662 C-65.69095817746809 22.29416664733095, -65.69586888990283 22.17543656730024, -65.703125 22 M-65.68604746503335 22.412896727361662 C-65.69055418804439 22.303934211048972, -65.69506091105544 22.19497169473628, -65.703125 22 M-65.703125 22 C-65.703125 22, -65.703125 22, -65.703125 22 M-65.703125 22 C-65.703125 22, -65.703125 22, -65.703125 22 M-65.703125 22 C-65.703125 10.8278202767711, -65.703125 -0.34435944645780125, -65.703125 -22 M-65.703125 22 C-65.703125 8.710957219086858, -65.703125 -4.578085561826285, -65.703125 -22 M-65.703125 -22 C-65.703125 -22, -65.703125 -22, -65.703125 -22 M-65.703125 -22 C-65.703125 -22, -65.703125 -22, -65.703125 -22 M-65.703125 -22 C-65.69631457118118 -22.164660987473518, -65.68950414236235 -22.329321974947035, -65.68604746503335 -22.41289672736166 M-65.703125 -22 C-65.69957463855255 -22.08583982556421, -65.6960242771051 -22.17167965112842, -65.68604746503335 -22.41289672736166 M-65.68604746503335 -22.41289672736166 C-65.67500182361152 -22.501510068243785, -65.6639561821897 -22.590123409125912, -65.63493151701361 -22.82297295140367 M-65.68604746503335 -22.41289672736166 C-65.67147403078364 -22.52981168482541, -65.65690059653393 -22.64672664228916, -65.63493151701361 -22.82297295140367 M-65.63493151701361 -22.82297295140367 C-65.60954153509942 -22.94406332766939, -65.58415155318525 -23.065153703935113, -65.55012632969665 -23.227427435703994 M-65.63493151701361 -22.82297295140367 C-65.61691352877007 -22.90890467767807, -65.59889554052653 -22.994836403952473, -65.55012632969665 -23.227427435703994 M-65.55012632969665 -23.227427435703994 C-65.52604602341768 -23.308311758697062, -65.50196571713869 -23.38919608169013, -65.43221120850318 -23.623497346023417 M-65.55012632969665 -23.227427435703994 C-65.51922846595484 -23.331211530546252, -65.48833060221304 -23.43499562538851, -65.43221120850318 -23.623497346023417 M-65.43221120850318 -23.623497346023417 C-65.37515459643464 -23.769720910901526, -65.31809798436609 -23.91594447577964, -65.28199163327528 -24.008477123264846 M-65.43221120850318 -23.623497346023417 C-65.37530002224669 -23.769348216486392, -65.3183888359902 -23.915199086949368, -65.28199163327528 -24.008477123264846 M-65.28199163327528 -24.008477123264846 C-65.23650230554793 -24.10152703039149, -65.19101297782058 -24.194576937518136, -65.10049375603245 -24.379736965185366 M-65.28199163327528 -24.008477123264846 C-65.24097345853401 -24.092381140775405, -65.19995528379275 -24.176285158285967, -65.10049375603245 -24.379736965185366 M-65.10049375603245 -24.379736965185366 C-65.04277142846341 -24.476607529859606, -64.98504910089439 -24.573478094533847, -64.88895739131264 -24.734740790612133 M-65.10049375603245 -24.379736965185366 C-65.02299525309402 -24.509796234400998, -64.9454967501556 -24.639855503616634, -64.88895739131264 -24.734740790612133 M-64.88895739131264 -24.734740790612133 C-64.8033269976933 -24.854673619042465, -64.71769660407395 -24.9746064474728, -64.64882754698196 -25.07106356344834 M-64.88895739131264 -24.734740790612133 C-64.79447434596976 -24.867072529235873, -64.69999130062688 -24.999404267859614, -64.64882754698196 -25.07106356344834 M-64.64882754698196 -25.07106356344834 C-64.5842643867558 -25.147293142682063, -64.51970122652965 -25.223522721915785, -64.38174455336566 -25.386407858128706 M-64.64882754698196 -25.07106356344834 C-64.54213160252867 -25.197039227017612, -64.43543565807536 -25.323014890586883, -64.38174455336566 -25.386407858128706 M-64.38174455336566 -25.386407858128706 C-64.31329111002567 -25.45486130146869, -64.2448376666857 -25.52331474480867, -64.0895328581287 -25.678619553365657 M-64.38174455336566 -25.386407858128706 C-64.27378674687967 -25.4943656646147, -64.16582894039367 -25.6023234711007, -64.0895328581287 -25.678619553365657 M-64.0895328581287 -25.678619553365657 C-63.994836879644645 -25.75882295594373, -63.90014090116059 -25.839026358521803, -63.77418856344834 -25.945702546981966 M-64.0895328581287 -25.678619553365657 C-63.997794059504024 -25.75631835236337, -63.906055260879334 -25.834017151361078, -63.77418856344834 -25.945702546981966 M-63.77418856344834 -25.945702546981966 C-63.68490321701678 -26.00945105904024, -63.595617870585215 -26.07319957109852, -63.437865790612136 -26.185832391312644 M-63.77418856344834 -25.945702546981966 C-63.693295698590376 -26.003458942369637, -63.61240283373241 -26.061215337757307, -63.437865790612136 -26.185832391312644 M-63.437865790612136 -26.185832391312644 C-63.32854072761757 -26.250975989049465, -63.219215664623 -26.316119586786286, -63.082861965185366 -26.397368756032446 M-63.437865790612136 -26.185832391312644 C-63.302401732232596 -26.266551449551947, -63.166937673853056 -26.34727050779125, -63.082861965185366 -26.397368756032446 M-63.082861965185366 -26.397368756032446 C-62.96729257533239 -26.45386718803107, -62.851723185479415 -26.510365620029688, -62.711602123264846 -26.578866633275286 M-63.082861965185366 -26.397368756032446 C-62.954478498938165 -26.460131608261246, -62.826095032690965 -26.522894460490043, -62.711602123264846 -26.578866633275286 M-62.711602123264846 -26.578866633275286 C-62.60906246033418 -26.618877733909788, -62.50652279740351 -26.658888834544292, -62.32662234602342 -26.729086208503173 M-62.711602123264846 -26.578866633275286 C-62.594305534416186 -26.62463590427124, -62.477008945567526 -26.6704051752672, -62.32662234602342 -26.729086208503173 M-62.32662234602342 -26.729086208503173 C-62.2172962830449 -26.761633987644792, -62.107970220066385 -26.794181766786412, -61.930552435703994 -26.847001329696653 M-62.32662234602342 -26.729086208503173 C-62.22545285030365 -26.7592056723606, -62.12428335458388 -26.789325136218025, -61.930552435703994 -26.847001329696653 M-61.930552435703994 -26.847001329696653 C-61.77179974992467 -26.880288267478726, -61.61304706414535 -26.913575205260802, -61.52609795140367 -26.931806517013612 M-61.930552435703994 -26.847001329696653 C-61.82937999281307 -26.86821496016368, -61.72820754992213 -26.88942859063071, -61.52609795140367 -26.931806517013612 M-61.52609795140367 -26.931806517013612 C-61.442708619756836 -26.94220098636335, -61.359319288109994 -26.952595455713084, -61.11602172736166 -26.982922465033347 M-61.52609795140367 -26.931806517013612 C-61.39566339034195 -26.948065168094356, -61.26522882928024 -26.9643238191751, -61.11602172736166 -26.982922465033347 M-61.11602172736166 -26.982922465033347 C-60.96827320736085 -26.989033389023245, -60.82052468736005 -26.995144313013146, -60.703125 -27 M-61.11602172736166 -26.982922465033347 C-60.98619577142686 -26.98829210629019, -60.85636981549205 -26.99366174754703, -60.703125 -27 M-60.703125 -27 C-60.703125 -27, -60.703125 -27, -60.703125 -27 M-60.703125 -27 C-60.703125 -27, -60.703125 -27, -60.703125 -27" stroke="hsl(353, 54.7368421053%, 52.7450980392%)" stroke-width="1.3" fill="none" stroke-dasharray="0 0" style=""/></g><g class="label" style="" transform="translate(-50.703125, -12)"><rect/><foreignObject width="101.40625" height="24"><div xmlns="http://www.w3.org/1999/xhtml" style="display: table-cell; white-space: nowrap; line-height: 1.5; max-width: 200px; text-align: center;"><span class="nodeLabel"><p>Authentication</p></span></div></foreignObject></g></g><g class="node default" id="flowchart-Db-4" transform="translate(293.65625, 372.0643539428711)"><g class="basic label-container outer-path"><path d="M-44.25 -27 C-12.739928196524655 -27, 18.77014360695069 -27, 44.25 -27 C44.25 -27, 44.25 -27, 44.25 -27 C44.390893601499556 -26.99417259753653, 44.531787202999105 -26.98834519507306, 44.66289672736166 -26.982922465033347 C44.760263001356684 -26.970785771636816, 44.8576292753517 -26.95864907824029, 45.07297295140367 -26.931806517013612 C45.16264451359878 -26.913004367639214, 45.252316075793885 -26.894202218264812, 45.477427435703994 -26.847001329696653 C45.58479267589078 -26.815037312792715, 45.69215791607756 -26.783073295888773, 45.87349734602342 -26.729086208503173 C46.006056890383384 -26.67736131378573, 46.138616434743355 -26.625636419068293, 46.258477123264846 -26.578866633275286 C46.37705764544635 -26.52089614837997, 46.49563816762786 -26.462925663484654, 46.629736965185366 -26.397368756032446 C46.71773186826318 -26.344935174820822, 46.80572677134099 -26.292501593609195, 46.984740790612136 -26.185832391312644 C47.11729754375719 -26.0911886886895, 47.24985429690224 -25.996544986066354, 47.32106356344834 -25.94570254698197 C47.41393103373586 -25.86704781184841, 47.50679850402338 -25.788393076714843, 47.636407858128706 -25.678619553365657 C47.712358506542955 -25.602668904951408, 47.788309154957204 -25.52671825653716, 47.92861955336566 -25.386407858128706 C48.02702114617596 -25.270225317038996, 48.125422738986266 -25.154042775949286, 48.19570254698197 -25.07106356344834 C48.26982342255042 -24.96725081803258, 48.343944298118856 -24.86343807261682, 48.435832391312644 -24.734740790612136 C48.48268524305968 -24.656111560009727, 48.5295380948067 -24.577482329407317, 48.64736875603245 -24.37973696518537 C48.68824978793107 -24.29611347784329, 48.7291308198297 -24.212489990501208, 48.82886663327529 -24.008477123264846 C48.869941466800014 -23.903211346573702, 48.91101630032474 -23.79794556988256, 48.979086208503176 -23.623497346023417 C49.02612546350885 -23.4654952736597, 49.07316471851452 -23.307493201295976, 49.09700132969665 -23.227427435703994 C49.118289286835655 -23.125900512659978, 49.13957724397466 -23.024373589615966, 49.18180651701361 -22.82297295140367 C49.192391995963504 -22.73805125072875, 49.20297747491339 -22.653129550053823, 49.23292246503335 -22.412896727361662 C49.23671628337857 -22.321170656707757, 49.240510101723785 -22.22944458605385, 49.25 -22 C49.25 -22, 49.25 -22, 49.25 -22 C49.25 -12.43010940340499, 49.25 -2.8602188068099785, 49.25 22 C49.25 22, 49.25 22, 49.25 22 C49.24505843509302 22.119476024035173, 49.24011687018604 22.23895204807034, 49.23292246503335 22.412896727361662 C49.22118233172311 22.507081609460563, 49.20944219841287 22.601266491559468, 49.18180651701361 22.82297295140367 C49.162415046812214 22.9154551135009, 49.14302357661081 23.007937275598128, 49.09700132969665 23.227427435703994 C49.066492933280685 23.32990333285917, 49.03598453686471 23.432379230014348, 48.979086208503176 23.623497346023417 C48.92873299155186 23.75254158154266, 48.87837977460054 23.881585817061897, 48.82886663327529 24.008477123264846 C48.778983541875164 24.110514617636962, 48.72910045047504 24.212552112009078, 48.64736875603245 24.379736965185366 C48.58117410709704 24.490825919682525, 48.514979458161626 24.601914874179684, 48.435832391312644 24.734740790612133 C48.38303569256187 24.808687168122823, 48.33023899381109 24.88263354563351, 48.19570254698197 25.07106356344834 C48.141789486502354 25.134718593672496, 48.08787642602274 25.19837362389665, 47.92861955336566 25.386407858128706 C47.842557750670785 25.472469660823577, 47.756495947975914 25.55853146351845, 47.636407858128706 25.678619553365657 C47.53378282037586 25.765538526581263, 47.43115778262302 25.85245749979687, 47.32106356344834 25.94570254698197 C47.198792220731605 26.03300260770956, 47.07652087801487 26.12030266843715, 46.984740790612136 26.185832391312644 C46.91190958712909 26.229230368797676, 46.83907838364605 26.272628346282712, 46.629736965185366 26.397368756032446 C46.48804346408463 26.466638487808055, 46.3463499629839 26.535908219583664, 46.258477123264846 26.578866633275286 C46.156378379689855 26.618705686643324, 46.05427963611486 26.658544740011358, 45.87349734602342 26.729086208503173 C45.739156198717474 26.76908130091773, 45.604815051411535 26.80907639333229, 45.477427435703994 26.847001329696653 C45.36298995485739 26.87099634613482, 45.248552474010786 26.89499136257299, 45.07297295140367 26.931806517013612 C44.93204248880427 26.949373480856632, 44.79111202620487 26.966940444699652, 44.66289672736166 26.982922465033347 C44.53108250325391 26.988374341670117, 44.39926827914617 26.99382621830689, 44.25 27 C44.25 27, 44.25 27, 44.25 27 C19.786389585838023 27, -4.677220828323954 27, -44.25 27 C-44.25 27, -44.25 27, -44.25 27 C-44.37977781194781 26.99463234999319, -44.50955562389563 26.989264699986382, -44.66289672736166 26.982922465033347 C-44.79398428321551 26.96658241823665, -44.92507183906935 26.950242371439952, -45.07297295140367 26.931806517013612 C-45.165523955890635 26.912400612081026, -45.2580749603776 26.892994707148443, -45.477427435703994 26.847001329696653 C-45.63267040862671 26.800783494184092, -45.78791338154943 26.754565658671527, -45.87349734602342 26.729086208503173 C-45.9962811802884 26.681175807701603, -46.11906501455337 26.633265406900033, -46.258477123264846 26.578866633275286 C-46.3858815355407 26.51658241136801, -46.51328594781655 26.45429818946073, -46.629736965185366 26.397368756032446 C-46.75971880725197 26.31991638966062, -46.889700649318584 26.242464023288797, -46.984740790612136 26.185832391312644 C-47.095703758099475 26.106606355310074, -47.206666725586814 26.027380319307508, -47.32106356344834 25.94570254698197 C-47.39848441208779 25.880130433036168, -47.475905260727245 25.814558319090363, -47.636407858128706 25.67861955336566 C-47.7360122664676 25.579015145026766, -47.83561667480649 25.479410736687875, -47.92861955336566 25.386407858128706 C-48.016699574585225 25.282411973587973, -48.104779595804786 25.178416089047243, -48.19570254698197 25.07106356344834 C-48.24553456747871 25.001269476186057, -48.295366587975444 24.931475388923776, -48.435832391312644 24.734740790612133 C-48.517104780673 24.598348122794867, -48.59837717003335 24.4619554549776, -48.64736875603244 24.37973696518537 C-48.70501002480751 24.26182986534146, -48.76265129358257 24.14392276549755, -48.82886663327528 24.00847712326485 C-48.86944684321894 23.9044789581734, -48.91002705316259 23.80048079308195, -48.979086208503176 23.623497346023417 C-49.025652947665165 23.467082426400907, -49.072219686827154 23.310667506778394, -49.09700132969665 23.227427435703994 C-49.127705245910654 23.080993744661942, -49.158409162124656 22.93456005361989, -49.18180651701361 22.82297295140367 C-49.19262137879396 22.736211033563325, -49.2034362405743 22.64944911572298, -49.23292246503335 22.412896727361662 C-49.23718285405797 22.30989001772885, -49.24144324308259 22.20688330809604, -49.25 22 C-49.25 22, -49.25 22, -49.25 22 C-49.25 12.355090196770947, -49.25 2.7101803935418936, -49.25 -22 C-49.25 -22, -49.25 -22, -49.25 -22 C-49.24559220428841 -22.106570674734428, -49.24118440857681 -22.21314134946886, -49.23292246503335 -22.41289672736166 C-49.22159728763846 -22.503752637554474, -49.21027211024357 -22.594608547747292, -49.18180651701361 -22.82297295140367 C-49.154632305204544 -22.952572710230065, -49.127458093395475 -23.082172469056463, -49.09700132969665 -23.227427435703994 C-49.051453979082034 -23.38041828955402, -49.005906628467415 -23.53340914340404, -48.979086208503176 -23.623497346023417 C-48.94055595104643 -23.722241933140317, -48.90202569358968 -23.820986520257218, -48.82886663327529 -24.008477123264846 C-48.769565319266846 -24.12977989990833, -48.7102640052584 -24.251082676551807, -48.64736875603245 -24.379736965185366 C-48.58851210404873 -24.478511171850528, -48.529655452065015 -24.577285378515693, -48.435832391312644 -24.734740790612133 C-48.383586344577566 -24.807915931988873, -48.33134029784249 -24.88109107336561, -48.19570254698197 -25.07106356344834 C-48.11485419586247 -25.166521031236332, -48.03400584474297 -25.26197849902432, -47.92861955336566 -25.386407858128706 C-47.83812081073971 -25.476906600754656, -47.747622068113756 -25.567405343380607, -47.636407858128706 -25.678619553365657 C-47.52415530225808 -25.77369261848452, -47.411902746387454 -25.868765683603385, -47.32106356344834 -25.945702546981966 C-47.228333277286914 -26.01191069873126, -47.13560299112549 -26.078118850480553, -46.984740790612136 -26.185832391312644 C-46.895323001964115 -26.23911382829194, -46.805905213316095 -26.29239526527124, -46.629736965185366 -26.397368756032446 C-46.53942329615216 -26.441520418465814, -46.44910962711895 -26.485672080899178, -46.258477123264846 -26.578866633275286 C-46.18092312486328 -26.609128297356932, -46.103369126461715 -26.63938996143858, -45.87349734602342 -26.729086208503173 C-45.71645292656289 -26.775840357886835, -45.55940850710236 -26.822594507270498, -45.477427435703994 -26.847001329696653 C-45.3509182762587 -26.873527510961843, -45.22440911681341 -26.900053692227033, -45.07297295140367 -26.931806517013612 C-44.9191687027781 -26.950978196611292, -44.76536445415253 -26.970149876208968, -44.66289672736166 -26.982922465033347 C-44.519592667090386 -26.98884956480908, -44.37628860681911 -26.994776664584812, -44.25 -27 C-44.25 -27, -44.25 -27, -44.25 -27" stroke="none" stroke-width="0" fill="#FA465B" style=""/><path d="M-44.25 -27 C-17.445659280841173 -27, 9.358681438317653 -27, 44.25 -27 M-44.25 -27 C-15.706065698411194 -27, 12.837868603177611 -27, 44.25 -27 M44.25 -27 C44.25 -27, 44.25 -27, 44.25 -27 M44.25 -27 C44.25 -27, 44.25 -27, 44.25 -27 M44.25 -27 C44.3907435737042 -26.994178802732044, 44.531487147408406 -26.988357605464092, 44.66289672736166 -26.982922465033347 M44.25 -27 C44.35524472279243 -26.99564704606639, 44.460489445584855 -26.991294092132783, 44.66289672736166 -26.982922465033347 M44.66289672736166 -26.982922465033347 C44.777398753517886 -26.968649802357454, 44.89190077967411 -26.95437713968156, 45.07297295140367 -26.931806517013612 M44.66289672736166 -26.982922465033347 C44.77611252558546 -26.96881013050203, 44.889328323809266 -26.95469779597071, 45.07297295140367 -26.931806517013612 M45.07297295140367 -26.931806517013612 C45.16596125524362 -26.91230892004896, 45.258949559083575 -26.89281132308431, 45.477427435703994 -26.847001329696653 M45.07297295140367 -26.931806517013612 C45.18589596828015 -26.908129050276724, 45.29881898515663 -26.88445158353984, 45.477427435703994 -26.847001329696653 M45.477427435703994 -26.847001329696653 C45.58838119769893 -26.813968963562214, 45.69933495969386 -26.78093659742778, 45.87349734602342 -26.729086208503173 M45.477427435703994 -26.847001329696653 C45.61713421992252 -26.805408817962064, 45.75684100414104 -26.763816306227476, 45.87349734602342 -26.729086208503173 M45.87349734602342 -26.729086208503173 C45.9655291428987 -26.693175289926806, 46.057560939773985 -26.65726437135044, 46.258477123264846 -26.578866633275286 M45.87349734602342 -26.729086208503173 C46.00722728266601 -26.676904625299898, 46.140957219308596 -26.624723042096623, 46.258477123264846 -26.578866633275286 M46.258477123264846 -26.578866633275286 C46.34525213053477 -26.536444917164673, 46.432027137804695 -26.49402320105406, 46.629736965185366 -26.397368756032446 M46.258477123264846 -26.578866633275286 C46.40681164814905 -26.50635030280162, 46.555146173033265 -26.433833972327957, 46.629736965185366 -26.397368756032446 M46.629736965185366 -26.397368756032446 C46.73908824673233 -26.33220953542943, 46.8484395282793 -26.267050314826417, 46.984740790612136 -26.185832391312644 M46.629736965185366 -26.397368756032446 C46.754328487564315 -26.323128323025095, 46.878920009943265 -26.248887890017745, 46.984740790612136 -26.185832391312644 M46.984740790612136 -26.185832391312644 C47.09104309558124 -26.1099340043882, 47.19734540055035 -26.03403561746376, 47.32106356344834 -25.94570254698197 M46.984740790612136 -26.185832391312644 C47.079378824394276 -26.118262133942846, 47.17401685817642 -26.050691876573044, 47.32106356344834 -25.94570254698197 M47.32106356344834 -25.94570254698197 C47.39565477430087 -25.882527013991428, 47.4702459851534 -25.819351481000883, 47.636407858128706 -25.678619553365657 M47.32106356344834 -25.94570254698197 C47.410402424813235 -25.87003639115761, 47.49974128617812 -25.794370235333247, 47.636407858128706 -25.678619553365657 M47.636407858128706 -25.678619553365657 C47.70132336762438 -25.613704043869976, 47.76623887712007 -25.5487885343743, 47.92861955336566 -25.386407858128706 M47.636407858128706 -25.678619553365657 C47.69504523282723 -25.619982178667126, 47.75368260752577 -25.5613448039686, 47.92861955336566 -25.386407858128706 M47.92861955336566 -25.386407858128706 C48.01350908163351 -25.286178981497827, 48.098398609901366 -25.18595010486695, 48.19570254698197 -25.07106356344834 M47.92861955336566 -25.386407858128706 C48.007256138010966 -25.29356181808218, 48.08589272265627 -25.20071577803565, 48.19570254698197 -25.07106356344834 M48.19570254698197 -25.07106356344834 C48.245361444797794 -25.001511949587265, 48.29502034261362 -24.93196033572619, 48.435832391312644 -24.734740790612136 M48.19570254698197 -25.07106356344834 C48.25602767691896 -24.98657296200451, 48.31635280685595 -24.902082360560673, 48.435832391312644 -24.734740790612136 M48.435832391312644 -24.734740790612136 C48.51156600628943 -24.6076433855595, 48.58729962126621 -24.480545980506857, 48.64736875603245 -24.37973696518537 M48.435832391312644 -24.734740790612136 C48.50580119349492 -24.61731798972333, 48.57576999567719 -24.49989518883452, 48.64736875603245 -24.37973696518537 M48.64736875603245 -24.37973696518537 C48.70007179840711 -24.271931168897368, 48.75277484078177 -24.164125372609366, 48.82886663327529 -24.008477123264846 M48.64736875603245 -24.37973696518537 C48.71128543935338 -24.248993299715035, 48.775202122674315 -24.1182496342447, 48.82886663327529 -24.008477123264846 M48.82886663327529 -24.008477123264846 C48.859955758273216 -23.928802524277497, 48.891044883271135 -23.84912792529015, 48.979086208503176 -23.623497346023417 M48.82886663327529 -24.008477123264846 C48.88383842692233 -23.867596490093735, 48.93881022056937 -23.726715856922624, 48.979086208503176 -23.623497346023417 M48.979086208503176 -23.623497346023417 C49.01877894128287 -23.490171806828233, 49.05847167406256 -23.35684626763305, 49.09700132969665 -23.227427435703994 M48.979086208503176 -23.623497346023417 C49.00460393031704 -23.537784829358237, 49.0301216521309 -23.452072312693062, 49.09700132969665 -23.227427435703994 M49.09700132969665 -23.227427435703994 C49.115377794213266 -23.1397860576884, 49.13375425872987 -23.05214467967281, 49.18180651701361 -22.82297295140367 M49.09700132969665 -23.227427435703994 C49.12085853263109 -23.113647217595005, 49.14471573556553 -22.99986699948602, 49.18180651701361 -22.82297295140367 M49.18180651701361 -22.82297295140367 C49.20137284966777 -22.666002609973837, 49.22093918232193 -22.509032268544, 49.23292246503335 -22.412896727361662 M49.18180651701361 -22.82297295140367 C49.19453071140531 -22.72089346755828, 49.207254905797 -22.61881398371289, 49.23292246503335 -22.412896727361662 M49.23292246503335 -22.412896727361662 C49.23661570499779 -22.32360241775226, 49.24030894496222 -22.234308108142855, 49.25 -22 M49.23292246503335 -22.412896727361662 C49.23819754310465 -22.285357098459176, 49.24347262117594 -22.15781746955669, 49.25 -22 M49.25 -22 C49.25 -22, 49.25 -22, 49.25 -22 M49.25 -22 C49.25 -22, 49.25 -22, 49.25 -22 M49.25 -22 C49.25 -8.32838959692077, 49.25 5.34322080615846, 49.25 22 M49.25 -22 C49.25 -9.952916661820097, 49.25 2.094166676359805, 49.25 22 M49.25 22 C49.25 22, 49.25 22, 49.25 22 M49.25 22 C49.25 22, 49.25 22, 49.25 22 M49.25 22 C49.24455450491834 22.13165993233043, 49.23910900983669 22.263319864660858, 49.23292246503335 22.412896727361662 M49.25 22 C49.24531549764956 22.11326082444529, 49.240630995299114 22.226521648890582, 49.23292246503335 22.412896727361662 M49.23292246503335 22.412896727361662 C49.213268743783644 22.570568141287893, 49.19361502253395 22.72823955521412, 49.18180651701361 22.82297295140367 M49.23292246503335 22.412896727361662 C49.21798276659276 22.53275002877115, 49.203043068152176 22.652603330180643, 49.18180651701361 22.82297295140367 M49.18180651701361 22.82297295140367 C49.15624977809199 22.944858628305845, 49.13069303917037 23.06674430520802, 49.09700132969665 23.227427435703994 M49.18180651701361 22.82297295140367 C49.1577547312425 22.937681177613925, 49.13370294547139 23.05238940382418, 49.09700132969665 23.227427435703994 M49.09700132969665 23.227427435703994 C49.05676331508687 23.362584544280242, 49.016525300477085 23.49774165285649, 48.979086208503176 23.623497346023417 M49.09700132969665 23.227427435703994 C49.0529093525659 23.375529776194572, 49.00881737543514 23.523632116685146, 48.979086208503176 23.623497346023417 M48.979086208503176 23.623497346023417 C48.947361488685914 23.70480083493136, 48.91563676886865 23.786104323839297, 48.82886663327529 24.008477123264846 M48.979086208503176 23.623497346023417 C48.93604979201234 23.733790229016698, 48.89301337552151 23.844083112009983, 48.82886663327529 24.008477123264846 M48.82886663327529 24.008477123264846 C48.777540041221265 24.113467345419345, 48.72621344916724 24.218457567573846, 48.64736875603245 24.379736965185366 M48.82886663327529 24.008477123264846 C48.76628902014962 24.13648167687025, 48.70371140702396 24.264486230475654, 48.64736875603245 24.379736965185366 M48.64736875603245 24.379736965185366 C48.599290461420466 24.460422754268752, 48.55121216680849 24.541108543352138, 48.435832391312644 24.734740790612133 M48.64736875603245 24.379736965185366 C48.58889113084771 24.477875082808556, 48.53041350566297 24.57601320043175, 48.435832391312644 24.734740790612133 M48.435832391312644 24.734740790612133 C48.38256798166749 24.809342237988545, 48.32930357202234 24.88394368536496, 48.19570254698197 25.07106356344834 M48.435832391312644 24.734740790612133 C48.36213356804424 24.8379624150024, 48.28843474477584 24.941184039392667, 48.19570254698197 25.07106356344834 M48.19570254698197 25.07106356344834 C48.10566884584553 25.177366153508117, 48.015635144709094 25.283668743567898, 47.92861955336566 25.386407858128706 M48.19570254698197 25.07106356344834 C48.13815008281014 25.1390156294921, 48.08059761863832 25.206967695535862, 47.92861955336566 25.386407858128706 M47.92861955336566 25.386407858128706 C47.813096613504726 25.501930797989633, 47.6975736736438 25.61745373785056, 47.636407858128706 25.678619553365657 M47.92861955336566 25.386407858128706 C47.856425081237205 25.458602330257158, 47.784230609108754 25.53079680238561, 47.636407858128706 25.678619553365657 M47.636407858128706 25.678619553365657 C47.56674237145484 25.737623210785408, 47.497076884780974 25.79662686820516, 47.32106356344834 25.94570254698197 M47.636407858128706 25.678619553365657 C47.56869242203542 25.73597160219267, 47.50097698594214 25.793323651019687, 47.32106356344834 25.94570254698197 M47.32106356344834 25.94570254698197 C47.199341672800045 26.032610306473018, 47.07761978215175 26.119518065964062, 46.984740790612136 26.185832391312644 M47.32106356344834 25.94570254698197 C47.244949398038244 26.000047016543615, 47.168835232628155 26.05439148610526, 46.984740790612136 26.185832391312644 M46.984740790612136 26.185832391312644 C46.85111395263445 26.26545670381356, 46.71748711465676 26.345081016314477, 46.629736965185366 26.397368756032446 M46.984740790612136 26.185832391312644 C46.87636331930698 26.25041134696152, 46.76798584800183 26.314990302610397, 46.629736965185366 26.397368756032446 M46.629736965185366 26.397368756032446 C46.50992198226424 26.45594273200997, 46.39010699934311 26.514516707987493, 46.258477123264846 26.578866633275286 M46.629736965185366 26.397368756032446 C46.505347138427624 26.45817923688151, 46.38095731166989 26.518989717730573, 46.258477123264846 26.578866633275286 M46.258477123264846 26.578866633275286 C46.11336478107974 26.635489644903505, 45.96825243889463 26.692112656531727, 45.87349734602342 26.729086208503173 M46.258477123264846 26.578866633275286 C46.107382354886646 26.6378239948478, 45.95628758650845 26.696781356420313, 45.87349734602342 26.729086208503173 M45.87349734602342 26.729086208503173 C45.79162455385252 26.75346079480662, 45.70975176168162 26.77783538111007, 45.477427435703994 26.847001329696653 M45.87349734602342 26.729086208503173 C45.78292302168339 26.75605135317412, 45.69234869734336 26.783016497845065, 45.477427435703994 26.847001329696653 M45.477427435703994 26.847001329696653 C45.346561591695504 26.874441011651797, 45.21569574768701 26.901880693606937, 45.07297295140367 26.931806517013612 M45.477427435703994 26.847001329696653 C45.36775360903253 26.86999751289074, 45.25807978236107 26.89299369608483, 45.07297295140367 26.931806517013612 M45.07297295140367 26.931806517013612 C44.98178321533856 26.943173305760087, 44.89059347927345 26.954540094506562, 44.66289672736166 26.982922465033347 M45.07297295140367 26.931806517013612 C44.94955488829169 26.947190562537017, 44.82613682517971 26.96257460806042, 44.66289672736166 26.982922465033347 M44.66289672736166 26.982922465033347 C44.575046086565145 26.986555994414005, 44.48719544576863 26.99018952379466, 44.25 27 M44.66289672736166 26.982922465033347 C44.53118842648062 26.988369960653056, 44.399480125599574 26.99381745627276, 44.25 27 M44.25 27 C44.25 27, 44.25 27, 44.25 27 M44.25 27 C44.25 27, 44.25 27, 44.25 27 M44.25 27 C12.100706371190356 27, -20.04858725761929 27, -44.25 27 M44.25 27 C17.55327153574106 27, -9.143456928517878 27, -44.25 27 M-44.25 27 C-44.25 27, -44.25 27, -44.25 27 M-44.25 27 C-44.25 27, -44.25 27, -44.25 27 M-44.25 27 C-44.387136075021374 26.994328009981256, -44.52427215004275 26.988656019962512, -44.66289672736166 26.982922465033347 M-44.25 27 C-44.37149728886985 26.994974834961067, -44.4929945777397 26.98994966992213, -44.66289672736166 26.982922465033347 M-44.66289672736166 26.982922465033347 C-44.744948045617406 26.97269477887888, -44.82699936387315 26.96246709272441, -45.07297295140367 26.931806517013612 M-44.66289672736166 26.982922465033347 C-44.75007690671751 26.97205546700947, -44.83725708607335 26.96118846898559, -45.07297295140367 26.931806517013612 M-45.07297295140367 26.931806517013612 C-45.20038457695936 26.90509110850405, -45.327796202515046 26.878375699994482, -45.477427435703994 26.847001329696653 M-45.07297295140367 26.931806517013612 C-45.23331483737632 26.898186358992152, -45.39365672334897 26.864566200970692, -45.477427435703994 26.847001329696653 M-45.477427435703994 26.847001329696653 C-45.558066469341085 26.822994049222924, -45.63870550297817 26.7989867687492, -45.87349734602342 26.729086208503173 M-45.477427435703994 26.847001329696653 C-45.61846084536881 26.805013864454608, -45.75949425503362 26.763026399212567, -45.87349734602342 26.729086208503173 M-45.87349734602342 26.729086208503173 C-45.98917441354455 26.683948876690195, -46.10485148106568 26.63881154487722, -46.258477123264846 26.578866633275286 M-45.87349734602342 26.729086208503173 C-45.954014649115116 26.697668259343356, -46.034531952206805 26.666250310183536, -46.258477123264846 26.578866633275286 M-46.258477123264846 26.578866633275286 C-46.404018747128255 26.507715668912866, -46.54956037099166 26.43656470455045, -46.629736965185366 26.397368756032446 M-46.258477123264846 26.578866633275286 C-46.38672955927063 26.516167837828252, -46.5149819952764 26.453469042381222, -46.629736965185366 26.397368756032446 M-46.629736965185366 26.397368756032446 C-46.714230492214725 26.347021542087194, -46.79872401924408 26.296674328141943, -46.984740790612136 26.185832391312644 M-46.629736965185366 26.397368756032446 C-46.76287699644479 26.31803451737335, -46.89601702770422 26.238700278714255, -46.984740790612136 26.185832391312644 M-46.984740790612136 26.185832391312644 C-47.103102755067376 26.101323573014003, -47.221464719522615 26.016814754715366, -47.32106356344834 25.94570254698197 M-46.984740790612136 26.185832391312644 C-47.062122249817165 26.130583091372934, -47.139503709022186 26.07533379143322, -47.32106356344834 25.94570254698197 M-47.32106356344834 25.94570254698197 C-47.385903854849424 25.890785621492935, -47.4507441462505 25.835868696003896, -47.636407858128706 25.67861955336566 M-47.32106356344834 25.94570254698197 C-47.406988235853234 25.872928061701806, -47.492912908258134 25.80015357642164, -47.636407858128706 25.67861955336566 M-47.636407858128706 25.67861955336566 C-47.73005992192794 25.584967489566424, -47.82371198572718 25.491315425767187, -47.92861955336566 25.386407858128706 M-47.636407858128706 25.67861955336566 C-47.714077533158886 25.60094987833548, -47.791747208189065 25.5232802033053, -47.92861955336566 25.386407858128706 M-47.92861955336566 25.386407858128706 C-47.996419495140266 25.30635661814224, -48.064219436914875 25.226305378155768, -48.19570254698197 25.07106356344834 M-47.92861955336566 25.386407858128706 C-48.016657956911594 25.282461111482377, -48.104696360457524 25.17851436483605, -48.19570254698197 25.07106356344834 M-48.19570254698197 25.07106356344834 C-48.26038222046599 24.98047404429498, -48.325061893950014 24.88988452514162, -48.435832391312644 24.734740790612133 M-48.19570254698197 25.07106356344834 C-48.27903125211019 24.954354450327937, -48.36235995723841 24.837645337207533, -48.435832391312644 24.734740790612133 M-48.435832391312644 24.734740790612133 C-48.49646705427993 24.63298269651157, -48.557101717247214 24.531224602411, -48.64736875603244 24.37973696518537 M-48.435832391312644 24.734740790612133 C-48.49298358726414 24.638828708463173, -48.55013478321565 24.542916626314213, -48.64736875603244 24.37973696518537 M-48.64736875603244 24.37973696518537 C-48.70237249660844 24.267225015505865, -48.757376237184445 24.154713065826364, -48.82886663327528 24.00847712326485 M-48.64736875603244 24.37973696518537 C-48.70588483771281 24.26004040694192, -48.76440091939317 24.14034384869847, -48.82886663327528 24.00847712326485 M-48.82886663327528 24.00847712326485 C-48.86768687694802 23.90898936516863, -48.90650712062076 23.80950160707241, -48.979086208503176 23.623497346023417 M-48.82886663327528 24.00847712326485 C-48.88855358936997 23.855512564373697, -48.94824054546465 23.702548005482544, -48.979086208503176 23.623497346023417 M-48.979086208503176 23.623497346023417 C-49.023412384168225 23.474608346523073, -49.06773855983327 23.32571934702273, -49.09700132969665 23.227427435703994 M-48.979086208503176 23.623497346023417 C-49.00863364787874 23.524249246668575, -49.03818108725431 23.42500114731373, -49.09700132969665 23.227427435703994 M-49.09700132969665 23.227427435703994 C-49.120583127590585 23.11496068446133, -49.14416492548451 23.002493933218663, -49.18180651701361 22.82297295140367 M-49.09700132969665 23.227427435703994 C-49.12357000528128 23.100715611556257, -49.1501386808659 22.974003787408524, -49.18180651701361 22.82297295140367 M-49.18180651701361 22.82297295140367 C-49.200271511856094 22.67483806091829, -49.218736506698576 22.526703170432913, -49.23292246503335 22.412896727361662 M-49.18180651701361 22.82297295140367 C-49.20003672926393 22.676721597516863, -49.218266941514244 22.530470243630056, -49.23292246503335 22.412896727361662 M-49.23292246503335 22.412896727361662 C-49.238636146657186 22.274752642265266, -49.244349828281024 22.136608557168874, -49.25 22 M-49.23292246503335 22.412896727361662 C-49.2366427434446 22.322948688380738, -49.24036302185584 22.233000649399816, -49.25 22 M-49.25 22 C-49.25 22, -49.25 22, -49.25 22 M-49.25 22 C-49.25 22, -49.25 22, -49.25 22 M-49.25 22 C-49.25 5.256566288401167, -49.25 -11.486867423197666, -49.25 -22 M-49.25 22 C-49.25 7.428317614117651, -49.25 -7.143364771764698, -49.25 -22 M-49.25 -22 C-49.25 -22, -49.25 -22, -49.25 -22 M-49.25 -22 C-49.25 -22, -49.25 -22, -49.25 -22 M-49.25 -22 C-49.24558229751353 -22.10681019846739, -49.24116459502706 -22.21362039693478, -49.23292246503335 -22.41289672736166 M-49.25 -22 C-49.246259800074256 -22.09042969679365, -49.24251960014851 -22.1808593935873, -49.23292246503335 -22.41289672736166 M-49.23292246503335 -22.41289672736166 C-49.21296893560423 -22.5729733437915, -49.193015406175114 -22.73304996022134, -49.18180651701361 -22.82297295140367 M-49.23292246503335 -22.41289672736166 C-49.221175555737695 -22.507135969608804, -49.20942864644205 -22.60137521185595, -49.18180651701361 -22.82297295140367 M-49.18180651701361 -22.82297295140367 C-49.1646914275153 -22.90459855610778, -49.147576338017 -22.986224160811886, -49.09700132969665 -23.227427435703994 M-49.18180651701361 -22.82297295140367 C-49.151665630661924 -22.966721429903753, -49.121524744310236 -23.110469908403836, -49.09700132969665 -23.227427435703994 M-49.09700132969665 -23.227427435703994 C-49.05206958214534 -23.378350515314295, -49.00713783459404 -23.529273594924597, -48.979086208503176 -23.623497346023417 M-49.09700132969665 -23.227427435703994 C-49.06119237499828 -23.347707594283026, -49.0253834202999 -23.467987752862054, -48.979086208503176 -23.623497346023417 M-48.979086208503176 -23.623497346023417 C-48.930115386087664 -23.748998807975045, -48.88114456367216 -23.874500269926674, -48.82886663327529 -24.008477123264846 M-48.979086208503176 -23.623497346023417 C-48.93044925424444 -23.74814317721969, -48.8818122999857 -23.872789008415964, -48.82886663327529 -24.008477123264846 M-48.82886663327529 -24.008477123264846 C-48.764210626611025 -24.14073309880593, -48.69955461994676 -24.272989074347013, -48.64736875603245 -24.379736965185366 M-48.82886663327529 -24.008477123264846 C-48.76635030271207 -24.136356321385147, -48.70383397214886 -24.264235519505448, -48.64736875603245 -24.379736965185366 M-48.64736875603245 -24.379736965185366 C-48.58946234227096 -24.47691646635199, -48.531555928509476 -24.57409596751862, -48.435832391312644 -24.734740790612133 M-48.64736875603245 -24.379736965185366 C-48.59840381214577 -24.461910743743978, -48.54943886825909 -24.54408452230259, -48.435832391312644 -24.734740790612133 M-48.435832391312644 -24.734740790612133 C-48.37098956499031 -24.82555881953332, -48.306146738667984 -24.916376848454508, -48.19570254698197 -25.07106356344834 M-48.435832391312644 -24.734740790612133 C-48.3548059989638 -24.848225314052506, -48.27377960661496 -24.961709837492876, -48.19570254698197 -25.07106356344834 M-48.19570254698197 -25.07106356344834 C-48.09514215558291 -25.189794993215347, -47.994581764183856 -25.308526422982354, -47.92861955336566 -25.386407858128706 M-48.19570254698197 -25.07106356344834 C-48.11454823931216 -25.16688227345268, -48.03339393164234 -25.262700983457012, -47.92861955336566 -25.386407858128706 M-47.92861955336566 -25.386407858128706 C-47.823979668313115 -25.491047743181245, -47.71933978326058 -25.595687628233783, -47.636407858128706 -25.678619553365657 M-47.92861955336566 -25.386407858128706 C-47.84684089914838 -25.468186512345984, -47.7650622449311 -25.549965166563258, -47.636407858128706 -25.678619553365657 M-47.636407858128706 -25.678619553365657 C-47.55110052085908 -25.750871182457285, -47.46579318358946 -25.823122811548913, -47.32106356344834 -25.945702546981966 M-47.636407858128706 -25.678619553365657 C-47.553966421861574 -25.748443888125134, -47.47152498559444 -25.818268222884615, -47.32106356344834 -25.945702546981966 M-47.32106356344834 -25.945702546981966 C-47.253153185561715 -25.994189624835283, -47.185242807675095 -26.0426767026886, -46.984740790612136 -26.185832391312644 M-47.32106356344834 -25.945702546981966 C-47.242794971184296 -26.001585247751386, -47.16452637892025 -26.057467948520802, -46.984740790612136 -26.185832391312644 M-46.984740790612136 -26.185832391312644 C-46.90900200133863 -26.23096291386951, -46.83326321206512 -26.276093436426375, -46.629736965185366 -26.397368756032446 M-46.984740790612136 -26.185832391312644 C-46.85623637278233 -26.262404403925395, -46.72773195495251 -26.33897641653814, -46.629736965185366 -26.397368756032446 M-46.629736965185366 -26.397368756032446 C-46.55300503166616 -26.4348807125598, -46.476273098146955 -26.472392669087153, -46.258477123264846 -26.578866633275286 M-46.629736965185366 -26.397368756032446 C-46.5492627752916 -26.436710190223117, -46.46878858539783 -26.476051624413792, -46.258477123264846 -26.578866633275286 M-46.258477123264846 -26.578866633275286 C-46.16228839221264 -26.616399592600864, -46.06609966116042 -26.65393255192644, -45.87349734602342 -26.729086208503173 M-46.258477123264846 -26.578866633275286 C-46.180114767314095 -26.609443719451416, -46.10175241136334 -26.640020805627547, -45.87349734602342 -26.729086208503173 M-45.87349734602342 -26.729086208503173 C-45.73229494148859 -26.77112398569788, -45.59109253695376 -26.813161762892584, -45.477427435703994 -26.847001329696653 M-45.87349734602342 -26.729086208503173 C-45.78871483982655 -26.75432705420445, -45.70393233362967 -26.77956789990573, -45.477427435703994 -26.847001329696653 M-45.477427435703994 -26.847001329696653 C-45.36700035244204 -26.870155454188797, -45.25657326918009 -26.893309578680938, -45.07297295140367 -26.931806517013612 M-45.477427435703994 -26.847001329696653 C-45.35087459837309 -26.87353666925138, -45.22432176104218 -26.900072008806102, -45.07297295140367 -26.931806517013612 M-45.07297295140367 -26.931806517013612 C-44.91424948934237 -26.95159137592659, -44.755526027281064 -26.971376234839568, -44.66289672736166 -26.982922465033347 M-45.07297295140367 -26.931806517013612 C-44.959765963283864 -26.94591775336661, -44.846558975164065 -26.960028989719614, -44.66289672736166 -26.982922465033347 M-44.66289672736166 -26.982922465033347 C-44.56352580490588 -26.987032476787984, -44.464154882450096 -26.991142488542618, -44.25 -27 M-44.66289672736166 -26.982922465033347 C-44.57569818527434 -26.986529023411887, -44.48849964318702 -26.990135581790426, -44.25 -27 M-44.25 -27 C-44.25 -27, -44.25 -27, -44.25 -27 M-44.25 -27 C-44.25 -27, -44.25 -27, -44.25 -27" stroke="hsl(353, 54.7368421053%, 52.7450980392%)" stroke-width="1.3" fill="none" stroke-dasharray="0 0" style=""/></g><g class="label" style="" transform="translate(-34.25, -12)"><rect/><foreignObject width="68.5" height="24"><div xmlns="http://www.w3.org/1999/xhtml" style="display: table-cell; white-space: nowrap; line-height: 1.5; max-width: 200px; text-align: center;"><span class="nodeLabel"><p>Database</p></span></div></foreignObject></g></g></g></g></g></svg>