<svg id="my-svg" width="611.39453125" xmlns="http://www.w3.org/2000/svg" xmlns:xlink="http://www.w3.org/1999/xlink" class="flowchart" height="457.0643615722656" viewBox="0 0 611.39453125 457.0643615722656" role="graphics-document document" aria-roledescription="flowchart-v2" style="background-color: rgb(9, 44, 46);"><style>#my-svg{font-family:"trebuchet ms",verdana,arial,sans-serif;font-size:16px;fill:#F7F7F7;}@keyframes edge-animation-frame{from{stroke-dashoffset:0;}}@keyframes dash{to{stroke-dashoffset:0;}}#my-svg .edge-animation-slow{stroke-dasharray:9,5!important;stroke-dashoffset:900;animation:dash 50s linear infinite;stroke-linecap:round;}#my-svg .edge-animation-fast{stroke-dasharray:9,5!important;stroke-dashoffset:900;animation:dash 20s linear infinite;stroke-linecap:round;}#my-svg .error-icon{fill:#154245;}#my-svg .error-text{fill:#eabdba;stroke:#eabdba;}#my-svg .edge-thickness-normal{stroke-width:1px;}#my-svg .edge-thickness-thick{stroke-width:3.5px;}#my-svg .edge-pattern-solid{stroke-dasharray:0;}#my-svg .edge-thickness-invisible{stroke-width:0;fill:none;}#my-svg .edge-pattern-dashed{stroke-dasharray:3;}#my-svg .edge-pattern-dotted{stroke-dasharray:2;}#my-svg .marker{fill:#D5DBDB;stroke:#D5DBDB;}#my-svg .marker.cross{stroke:#D5DBDB;}#my-svg svg{font-family:"trebuchet ms",verdana,arial,sans-serif;font-size:16px;}#my-svg p{margin:0;}#my-svg .label{font-family:"trebuchet ms",verdana,arial,sans-serif;color:#F7F7F7;}#my-svg .cluster-label text{fill:#eabdba;}#my-svg .cluster-label span{color:#eabdba;}#my-svg .cluster-label span p{background-color:transparent;}#my-svg .label text,#my-svg span{fill:#F7F7F7;color:#F7F7F7;}#my-svg .node rect,#my-svg .node circle,#my-svg .node ellipse,#my-svg .node polygon,#my-svg .node path{fill:#FA465B;stroke:hsl(353, 54.7368421053%, 52.7450980392%);stroke-width:1px;}#my-svg .rough-node .label text,#my-svg .node .label text,#my-svg .image-shape .label,#my-svg .icon-shape .label{text-anchor:middle;}#my-svg .node .katex path{fill:#000;stroke:#000;stroke-width:1px;}#my-svg .rough-node .label,#my-svg .node .label,#my-svg .image-shape .label,#my-svg .icon-shape .label{text-align:center;}#my-svg .node.clickable{cursor:pointer;}#my-svg .root .anchor path{fill:#D5DBDB!important;stroke-width:0;stroke:#D5DBDB;}#my-svg .arrowheadPath{fill:#0b0b0b;}#my-svg .edgePath .path{stroke:#D5DBDB;stroke-width:2.0px;}#my-svg .flowchart-link{stroke:#D5DBDB;fill:none;}#my-svg .edgeLabel{background-color:#031819;text-align:center;}#my-svg .edgeLabel p{background-color:#031819;}#my-svg .edgeLabel rect{opacity:0.5;background-color:#031819;fill:#031819;}#my-svg .labelBkg{background-color:rgba(3, 24, 25, 0.5);}#my-svg .cluster rect{fill:#154245;stroke:hsl(183.75, 13.3333333333%, 7.6470588235%);stroke-width:1px;}#my-svg .cluster text{fill:#eabdba;}#my-svg .cluster span{color:#eabdba;}#my-svg div.mermaidTooltip{position:absolute;text-align:center;max-width:200px;padding:2px;font-family:"trebuchet ms",verdana,arial,sans-serif;font-size:12px;background:#154245;border:1px solid hsl(183.75, 13.3333333333%, 7.6470588235%);border-radius:2px;pointer-events:none;z-index:100;}#my-svg .flowchartTitleText{text-anchor:middle;font-size:18px;fill:#F7F7F7;}#my-svg rect.text{fill:none;stroke-width:0;}#my-svg .icon-shape,#my-svg .image-shape{background-color:#031819;text-align:center;}#my-svg .icon-shape p,#my-svg .image-shape p{background-color:#031819;padding:2px;}#my-svg .icon-shape rect,#my-svg .image-shape rect{opacity:0.5;background-color:#031819;fill:#031819;}#my-svg .label-icon{display:inline-block;height:1em;overflow:visible;vertical-align:-0.125em;}#my-svg .node .label-icon path{fill:currentColor;stroke:revert;stroke-width:revert;}#my-svg :root{--mermaid-font-family:"trebuchet ms",verdana,arial,sans-serif;}</style><g><marker id="my-svg_flowchart-v2-pointEnd" class="marker flowchart-v2" viewBox="0 0 10 10" refX="5" refY="5" markerUnits="userSpaceOnUse" markerWidth="8" markerHeight="8" orient="auto"><path d="M 0 0 L 10 5 L 0 10 z" class="arrowMarkerPath" style="stroke-width: 1; stroke-dasharray: 1, 0;"/></marker><marker id="my-svg_flowchart-v2-pointStart" class="marker flowchart-v2" viewBox="0 0 10 10" refX="4.5" refY="5" markerUnits="userSpaceOnUse" markerWidth="8" markerHeight="8" orient="auto"><path d="M 0 5 L 10 10 L 10 0 z" class="arrowMarkerPath" style="stroke-width: 1; stroke-dasharray: 1, 0;"/></marker><marker id="my-svg_flowchart-v2-circleEnd" class="marker flowchart-v2" viewBox="0 0 10 10" refX="11" refY="5" markerUnits="userSpaceOnUse" markerWidth="11" markerHeight="11" orient="auto"><circle cx="5" cy="5" r="5" class="arrowMarkerPath" style="stroke-width: 1; stroke-dasharray: 1, 0;"/></marker><marker id="my-svg_flowchart-v2-circleStart" class="marker flowchart-v2" viewBox="0 0 10 10" refX="-1" refY="5" markerUnits="userSpaceOnUse" markerWidth="11" markerHeight="11" orient="auto"><circle cx="5" cy="5" r="5" class="arrowMarkerPath" style="stroke-width: 1; stroke-dasharray: 1, 0;"/></marker><marker id="my-svg_flowchart-v2-crossEnd" class="marker cross flowchart-v2" viewBox="0 0 11 11" refX="12" refY="5.2" markerUnits="userSpaceOnUse" markerWidth="11" markerHeight="11" orient="auto"><path d="M 1,1 l 9,9 M 10,1 l -9,9" class="arrowMarkerPath" style="stroke-width: 2; stroke-dasharray: 1, 0;"/></marker><marker id="my-svg_flowchart-v2-crossStart" class="marker cross flowchart-v2" viewBox="0 0 11 11" refX="-1" refY="5.2" markerUnits="userSpaceOnUse" markerWidth="11" markerHeight="11" orient="auto"><path d="M 1,1 l 9,9 M 10,1 l -9,9" class="arrowMarkerPath" style="stroke-width: 2; stroke-dasharray: 1, 0;"/></marker><g class="root"><g class="clusters"><g class="cluster" id="Features" data-look="classic"><rect style="" x="8" y="295.0643539428711" width="389.90625" height="154"/><g class="cluster-label" transform="translate(171.3828125, 295.0643539428711)"><foreignObject width="63.140625" height="24"><div xmlns="http://www.w3.org/1999/xhtml" style="display: table-cell; white-space: nowrap; line-height: 1.5; max-width: 200px; text-align: center;"><span class="nodeLabel"><p>Features</p></span></div></foreignObject></g></g><g class="cluster" id="Layers" data-look="classic"><rect style="" x="53.66796875" y="8" width="549.7265625" height="213.0643539428711"/><g class="cluster-label" transform="translate(304.515625, 8)"><foreignObject width="48.03125" height="24"><div xmlns="http://www.w3.org/1999/xhtml" style="display: table-cell; white-space: nowrap; line-height: 1.5; max-width: 200px; text-align: center;"><span class="nodeLabel"><p>Layers</p></span></div></foreignObject></g></g><g class="cluster" id="Abstraction" data-look="classic"><rect style="" x="28" y="320.0643539428711" width="349.90625" height="104"/><g class="cluster-label" transform="translate(162.9296875, 320.0643539428711)"><foreignObject width="80.046875" height="24"><div xmlns="http://www.w3.org/1999/xhtml" style="display: table-cell; white-space: nowrap; line-height: 1.5; max-width: 200px; text-align: center;"><span class="nodeLabel"><p>Abstraction</p></span></div></foreignObject></g></g><g class="cluster" id="DL" data-look="classic"><rect style="" x="73.66796875" y="33" width="265.0234375" height="163.0643539428711"/><g class="cluster-label" transform="translate(156.375, 33)"><foreignObject width="99.609375" height="24"><div xmlns="http://www.w3.org/1999/xhtml" style="display: table-cell; white-space: nowrap; line-height: 1.5; max-width: 200px; text-align: center;"><span class="nodeLabel"><p>Domain Layer</p></span></div></foreignObject></g></g></g><g class="edgePaths"><path d="M186.239,139.187L176.65,148.667C167.06,158.146,147.882,177.105,138.292,190.752C128.703,204.398,128.703,212.731,128.703,223.064C128.703,233.398,128.703,245.731,128.703,258.064C128.703,270.398,128.703,282.731,128.703,293.064C128.703,303.398,128.703,311.731,128.773,319.481C128.844,327.231,128.984,334.398,129.054,337.982L129.125,341.565" id="L_D_A_0" class="edge-thickness-normal edge-pattern-dotted edge-thickness-normal edge-pattern-solid flowchart-link" style=";" data-edge="true" data-et="edge" data-id="L_D_A_0" data-points="W3sieCI6MTg2LjIzODg1MjE2Mzc1MjA2LCJ5IjoxMzkuMTg3NDMxMDA3Mzk3NTh9LHsieCI6MTI4LjcwMzEyNSwieSI6MTk2LjA2NDM1Mzk0Mjg3MTF9LHsieCI6MTI4LjcwMzEyNSwieSI6MjIxLjA2NDM1Mzk0Mjg3MTF9LHsieCI6MTI4LjcwMzEyNSwieSI6MjU4LjA2NDM1Mzk0Mjg3MTF9LHsieCI6MTI4LjcwMzEyNSwieSI6Mjk1LjA2NDM1Mzk0Mjg3MTF9LHsieCI6MTI4LjcwMzEyNSwieSI6MzIwLjA2NDM1Mzk0Mjg3MTF9LHsieCI6MTI5LjIwMzEyNSwieSI6MzQ1LjU2NDM1Mzk0Mjg3MTF9XQ==" marker-end="url(#my-svg_flowchart-v2-pointEnd)"/><path d="M236.121,139.187L245.71,148.667C255.299,158.146,274.478,177.105,284.067,190.752C293.656,204.398,293.656,212.731,293.656,223.064C293.656,233.398,293.656,245.731,293.656,258.064C293.656,270.398,293.656,282.731,293.656,293.064C293.656,303.398,293.656,311.731,293.727,319.481C293.797,327.231,293.937,334.398,294.008,337.982L294.078,341.565" id="L_D_Db_0" class="edge-thickness-normal edge-pattern-dotted edge-thickness-normal edge-pattern-solid flowchart-link" style=";" data-edge="true" data-et="edge" data-id="L_D_Db_0" data-points="W3sieCI6MjM2LjEyMDUyMjgzNjI0Nzk0LCJ5IjoxMzkuMTg3NDMxMDA3Mzk3NTh9LHsieCI6MjkzLjY1NjI1LCJ5IjoxOTYuMDY0MzUzOTQyODcxMX0seyJ4IjoyOTMuNjU2MjUsInkiOjIyMS4wNjQzNTM5NDI4NzExfSx7IngiOjI5My42NTYyNSwieSI6MjU4LjA2NDM1Mzk0Mjg3MTF9LHsieCI6MjkzLjY1NjI1LCJ5IjoyOTUuMDY0MzUzOTQyODcxMX0seyJ4IjoyOTMuNjU2MjUsInkiOjMyMC4wNjQzNTM5NDI4NzExfSx7IngiOjI5NC4xNTYyNSwieSI6MzQ1LjU2NDM1Mzk0Mjg3MTF9XQ==" marker-end="url(#my-svg_flowchart-v2-pointEnd)"/></g><g class="edgeLabels"><g class="edgeLabel" transform="translate(128.703125, 258.0643539428711)"><g class="label" data-id="L_D_A_0" transform="translate(-16.8984375, -12)"><foreignObject width="33.796875" height="24"><div xmlns="http://www.w3.org/1999/xhtml" class="labelBkg" style="display: table-cell; white-space: nowrap; line-height: 1.5; max-width: 200px; text-align: center;"><span class="edgeLabel"><p>uses</p></span></div></foreignObject></g></g><g class="edgeLabel" transform="translate(293.65625, 258.0643539428711)"><g class="label" data-id="L_D_Db_0" transform="translate(-16.8984375, -12)"><foreignObject width="33.796875" height="24"><div xmlns="http://www.w3.org/1999/xhtml" class="labelBkg" style="display: table-cell; white-space: nowrap; line-height: 1.5; max-width: 200px; text-align: center;"><span class="edgeLabel"><p>uses</p></span></div></foreignObject></g></g></g><g class="nodes"><g class="node default" id="flowchart-HS-0" transform="translate(412.75390625, 114.53217697143555)"><polygon points="0,0 62.125,0 62.125,-87 0,-87 0,0 -8,0 70.125,0 70.125,-87 -8,-87 -8,0" class="label-container" transform="translate(-31.0625,43.5)"/><g class="label" style="" transform="translate(-23.5625, -36)"><rect/><foreignObject width="47.125" height="72"><div xmlns="http://www.w3.org/1999/xhtml" style="display: table-cell; white-space: nowrap; line-height: 1.5; max-width: 200px; text-align: center;"><span class="nodeLabel"><p>HTTP<br />Server<br />Layer</p></span></div></foreignObject></g></g><g class="node default" id="flowchart-D-1" transform="translate(211.1796875, 114.53217697143555)"><circle class="basic label-container" style="" r="35.0703125" cx="0" cy="0"/><g class="label" style="" transform="translate(-27.5703125, -24)"><rect/><foreignObject width="55.140625" height="48"><div xmlns="http://www.w3.org/1999/xhtml" style="display: table-cell; white-space: nowrap; line-height: 1.5; max-width: 200px; text-align: center;"><span class="nodeLabel"><p>Domain<br />Objects</p></span></div></foreignObject></g></g><g class="node default" id="flowchart-DA-2" transform="translate(535.10546875, 114.53217697143555)"><path d="M0,8.688116793083761 a33.2890625,8.688116793083761 0,0,0 66.578125,0 a33.2890625,8.688116793083761 0,0,0 -66.578125,0 l0,95.68811679308376 a33.2890625,8.688116793083761 0,0,0 66.578125,0 l0,-95.68811679308376" class="basic label-container" style="" transform="translate(-33.2890625, -56.53217518962565)"/><g class="label" style="" transform="translate(-25.7890625, -26)"><rect/><foreignObject width="51.578125" height="72"><div xmlns="http://www.w3.org/1999/xhtml" style="display: table-cell; white-space: nowrap; line-height: 1.5; max-width: 200px; text-align: center;"><span class="nodeLabel"><p>Data<br />Access<br />Layer</p></span></div></foreignObject></g></g><g class="node default" id="flowchart-A-3" transform="translate(128.703125, 372.0643539428711)"><g class="basic label-container outer-path"><path d="M-60.703125 -27 C-23.251203124929162 -27, 14.200718750141675 -27, 60.703125 -27 C60.703125 -27, 60.703125 -27, 60.703125 -27 C60.85236799601422 -26.99382726402496, 61.00161099202844 -26.987654528049923, 61.11602172736166 -26.982922465033347 C61.20414680159222 -26.971937685986163, 61.292271875822784 -26.96095290693898, 61.52609795140367 -26.931806517013612 C61.627073594802276 -26.910634151060783, 61.72804923820088 -26.889461785107954, 61.930552435703994 -26.847001329696653 C62.077776540117476 -26.803170814774383, 62.225000644530965 -26.759340299852113, 62.32662234602342 -26.729086208503173 C62.43865284988295 -26.685371770246352, 62.55068335374248 -26.641657331989535, 62.711602123264846 -26.578866633275286 C62.793394943389835 -26.53888056004529, 62.87518776351483 -26.49889448681529, 63.082861965185366 -26.397368756032446 C63.2145927279502 -26.31887425912515, 63.34632349071504 -26.240379762217856, 63.437865790612136 -26.185832391312644 C63.50751993518035 -26.136100287978994, 63.57717407974855 -26.08636818464534, 63.77418856344834 -25.94570254698197 C63.87774611176476 -25.85799377760674, 63.981303660081174 -25.77028500823151, 64.0895328581287 -25.678619553365657 C64.20505382255055 -25.563098588943806, 64.32057478697241 -25.447577624521955, 64.38174455336566 -25.386407858128706 C64.45643826549045 -25.29821715887031, 64.53113197761522 -25.210026459611914, 64.64882754698196 -25.07106356344834 C64.72394120998523 -24.96586033271474, 64.7990548729885 -24.86065710198114, 64.88895739131264 -24.734740790612136 C64.93707197700232 -24.653994097242034, 64.98518656269198 -24.57324740387193, 65.10049375603245 -24.37973696518537 C65.16114052033319 -24.255682025979894, 65.22178728463392 -24.13162708677442, 65.28199163327528 -24.008477123264846 C65.32351305448287 -23.902066840430557, 65.36503447569046 -23.795656557596267, 65.43221120850318 -23.623497346023417 C65.47182837843093 -23.4904256179738, 65.5114455483587 -23.357353889924177, 65.55012632969665 -23.227427435703994 C65.56992988603054 -23.13297994472215, 65.58973344236442 -23.038532453740306, 65.63493151701361 -22.82297295140367 C65.65216489289791 -22.684718688616574, 65.66939826878223 -22.546464425829477, 65.68604746503335 -22.412896727361662 C65.6920485656051 -22.267803492800326, 65.69804966617686 -22.12271025823899, 65.703125 -22 C65.703125 -22, 65.703125 -22, 65.703125 -22 C65.703125 -7.454547708839231, 65.703125 7.090904582321539, 65.703125 22 C65.703125 22, 65.703125 22, 65.703125 22 C65.69640356144629 22.162509401234313, 65.68968212289259 22.32501880246863, 65.68604746503335 22.412896727361662 C65.66655276623375 22.56929238825191, 65.64705806743414 22.72568804914216, 65.63493151701361 22.82297295140367 C65.61782283996213 22.904567973746563, 65.60071416291063 22.98616299608946, 65.55012632969665 23.227427435703994 C65.51686826299945 23.33913931252547, 65.48361019630227 23.450851189346952, 65.43221120850318 23.623497346023417 C65.37220331954433 23.777284385356083, 65.31219543058546 23.931071424688746, 65.28199163327528 24.008477123264846 C65.24218079071831 24.08991150331905, 65.20236994816133 24.171345883373256, 65.10049375603245 24.379736965185366 C65.05646405336775 24.45362834031171, 65.01243435070303 24.527519715438057, 64.88895739131264 24.734740790612133 C64.81640625968511 24.836354972845047, 64.74385512805756 24.937969155077962, 64.64882754698196 25.07106356344834 C64.55078063716624 25.18682733111768, 64.45273372735052 25.302591098787023, 64.38174455336566 25.386407858128706 C64.28814663713524 25.480005774359125, 64.19454872090482 25.573603690589543, 64.0895328581287 25.678619553365657 C63.978683171731696 25.772504448649247, 63.867833485334685 25.866389343932834, 63.77418856344834 25.94570254698197 C63.69400035298057 26.002955828805263, 63.61381214251279 26.060209110628556, 63.437865790612136 26.185832391312644 C63.314397769516546 26.25940336286573, 63.190929748420956 26.33297433441881, 63.082861965185366 26.397368756032446 C62.9564732670434 26.45915642555681, 62.83008456890144 26.520944095081173, 62.711602123264846 26.578866633275286 C62.61019360336884 26.618436360528033, 62.50878508347284 26.65800608778078, 62.32662234602342 26.729086208503173 C62.18293006784365 26.77186525319877, 62.03923778966387 26.814644297894365, 61.930552435703994 26.847001329696653 C61.803253875673484 26.873693030858632, 61.67595531564297 26.900384732020612, 61.52609795140367 26.931806517013612 C61.435581893874016 26.943089331818218, 61.34506583634436 26.95437214662282, 61.11602172736166 26.982922465033347 C60.99273611267582 26.98802159577516, 60.86945049798999 26.993120726516967, 60.703125 27 C60.703125 27, 60.703125 27, 60.703125 27 C19.958245632363962 27, -20.786633735272076 27, -60.703125 27 C-60.703125 27, -60.703125 27, -60.703125 27 C-60.85593758924151 26.99367962455699, -61.00875017848302 26.987359249113975, -61.11602172736166 26.982922465033347 C-61.24405766672257 26.966962801835805, -61.37209360608348 26.951003138638264, -61.52609795140367 26.931806517013612 C-61.61559602304685 26.913040744782563, -61.70509409469002 26.894274972551514, -61.930552435703994 26.847001329696653 C-62.08547277611585 26.8008795460442, -62.240393116527706 26.754757762391748, -62.32662234602342 26.729086208503173 C-62.43739427958993 26.685862865898613, -62.54816621315644 26.642639523294054, -62.711602123264846 26.578866633275286 C-62.79094210480001 26.540079679764165, -62.870282086335166 26.50129272625304, -63.082861965185366 26.397368756032446 C-63.16357986300573 26.349271328766083, -63.2442977608261 26.30117390149972, -63.437865790612136 26.185832391312644 C-63.512460944748966 26.13257247495419, -63.587056098885796 26.079312558595735, -63.77418856344834 25.94570254698197 C-63.88765196181916 25.84960395057808, -64.00111536018998 25.753505354174184, -64.0895328581287 25.67861955336566 C-64.18745915471433 25.580693256780037, -64.28538545129996 25.482766960194414, -64.38174455336566 25.386407858128706 C-64.48841782314828 25.26045896649251, -64.59509109293091 25.134510074856315, -64.64882754698196 25.07106356344834 C-64.74371698378705 24.938162638167245, -64.83860642059214 24.805261712886146, -64.88895739131264 24.734740790612133 C-64.93990551100939 24.64923881361351, -64.99085363070613 24.563736836614893, -65.10049375603245 24.37973696518537 C-65.15516039157959 24.267914574863944, -65.20982702712674 24.156092184542516, -65.28199163327528 24.00847712326485 C-65.32198752746537 23.905976431111288, -65.36198342165547 23.80347573895773, -65.43221120850318 23.623497346023417 C-65.46974886000024 23.49741059725394, -65.50728651149731 23.37132384848446, -65.55012632969665 23.227427435703994 C-65.56728324241713 23.145602366907042, -65.58444015513761 23.06377729811009, -65.63493151701361 22.82297295140367 C-65.65523300796453 22.6601048236648, -65.67553449891544 22.497236695925928, -65.68604746503335 22.412896727361662 C-65.68969905510609 22.3246094192904, -65.69335064517882 22.236322111219142, -65.703125 22 C-65.703125 22, -65.703125 22, -65.703125 22 C-65.703125 7.535406996195805, -65.703125 -6.92918600760839, -65.703125 -22 C-65.703125 -22, -65.703125 -22, -65.703125 -22 C-65.69793387703874 -22.12550978148917, -65.69274275407747 -22.25101956297834, -65.68604746503335 -22.41289672736166 C-65.67338979228988 -22.51444254319579, -65.66073211954642 -22.615988359029924, -65.63493151701361 -22.82297295140367 C-65.60158250221131 -22.982021696068, -65.56823348740903 -23.141070440732328, -65.55012632969665 -23.227427435703994 C-65.51763489292878 -23.336564247985145, -65.4851434561609 -23.445701060266295, -65.43221120850318 -23.623497346023417 C-65.39446800441146 -23.720224888233293, -65.35672480031975 -23.81695243044317, -65.28199163327528 -24.008477123264846 C-65.23556836620449 -24.10343743385337, -65.1891450991337 -24.19839774444189, -65.10049375603245 -24.379736965185366 C-65.04234151409565 -24.477329019261038, -64.98418927215886 -24.57492107333671, -64.88895739131264 -24.734740790612133 C-64.81338515068543 -24.8405862992703, -64.73781291005822 -24.94643180792847, -64.64882754698196 -25.07106356344834 C-64.54246085067426 -25.196650484466687, -64.43609415436656 -25.322237405485037, -64.38174455336566 -25.386407858128706 C-64.2889859103681 -25.47916650112627, -64.19622726737053 -25.57192514412383, -64.0895328581287 -25.678619553365657 C-64.01195589464199 -25.74432388984239, -63.93437893115526 -25.810028226319126, -63.77418856344834 -25.945702546981966 C-63.6757168207231 -26.016010019925815, -63.577245077997866 -26.086317492869668, -63.437865790612136 -26.185832391312644 C-63.35959657661731 -26.23247071972513, -63.281327362622484 -26.279109048137613, -63.082861965185366 -26.397368756032446 C-62.96692137652137 -26.454048656072118, -62.85098078785738 -26.510728556111793, -62.711602123264846 -26.578866633275286 C-62.583872253871284 -26.62870698297288, -62.45614238447773 -26.678547332670473, -62.32662234602342 -26.729086208503173 C-62.229677184958476 -26.75794803344432, -62.13273202389354 -26.78680985838546, -61.930552435703994 -26.847001329696653 C-61.82339747209802 -26.869469362845713, -61.71624250849205 -26.891937395994777, -61.52609795140367 -26.931806517013612 C-61.40813204020381 -26.946510952509914, -61.29016612900395 -26.961215388006217, -61.11602172736166 -26.982922465033347 C-60.96102081665009 -26.989333350121864, -60.80601990593853 -26.995744235210378, -60.703125 -27 C-60.703125 -27, -60.703125 -27, -60.703125 -27" stroke="none" stroke-width="0" fill="#FA465B" style=""/><path d="M-60.703125 -27 C-16.107570779933305 -27, 28.48798344013339 -27, 60.703125 -27 M-60.703125 -27 C-15.564451460073215 -27, 29.57422207985357 -27, 60.703125 -27 M60.703125 -27 C60.703125 -27, 60.703125 -27, 60.703125 -27 M60.703125 -27 C60.703125 -27, 60.703125 -27, 60.703125 -27 M60.703125 -27 C60.81146757358964 -26.99551891800965, 60.91981014717928 -26.991037836019302, 61.11602172736166 -26.982922465033347 M60.703125 -27 C60.80580428261732 -26.995753153456914, 60.908483565234654 -26.991506306913823, 61.11602172736166 -26.982922465033347 M61.11602172736166 -26.982922465033347 C61.20884980578111 -26.97135145712538, 61.30167788420055 -26.95978044921741, 61.52609795140367 -26.931806517013612 M61.11602172736166 -26.982922465033347 C61.235670335179464 -26.968008281622357, 61.355318942997265 -26.95309409821137, 61.52609795140367 -26.931806517013612 M61.52609795140367 -26.931806517013612 C61.64672927029388 -26.906512789309062, 61.7673605891841 -26.88121906160451, 61.930552435703994 -26.847001329696653 M61.52609795140367 -26.931806517013612 C61.64324456107146 -26.90724345599672, 61.760391170739254 -26.882680394979833, 61.930552435703994 -26.847001329696653 M61.930552435703994 -26.847001329696653 C62.067335070893535 -26.806279374846483, 62.20411770608307 -26.765557419996316, 62.32662234602342 -26.729086208503173 M61.930552435703994 -26.847001329696653 C62.07164217473904 -26.8049970944745, 62.212731913774086 -26.762992859252346, 62.32662234602342 -26.729086208503173 M62.32662234602342 -26.729086208503173 C62.473835126749286 -26.67164360321306, 62.621047907475145 -26.614200997922946, 62.711602123264846 -26.578866633275286 M62.32662234602342 -26.729086208503173 C62.455033373657045 -26.678980070035536, 62.58344440129067 -26.628873931567895, 62.711602123264846 -26.578866633275286 M62.711602123264846 -26.578866633275286 C62.804226661490326 -26.53358525573238, 62.8968511997158 -26.488303878189477, 63.082861965185366 -26.397368756032446 M62.711602123264846 -26.578866633275286 C62.790151649273106 -26.540466109924356, 62.86870117528137 -26.50206558657343, 63.082861965185366 -26.397368756032446 M63.082861965185366 -26.397368756032446 C63.192397416645335 -26.33209979398132, 63.301932868105304 -26.266830831930196, 63.437865790612136 -26.185832391312644 M63.082861965185366 -26.397368756032446 C63.17990775696067 -26.339542015774583, 63.27695354873597 -26.281715275516717, 63.437865790612136 -26.185832391312644 M63.437865790612136 -26.185832391312644 C63.535196488472515 -26.11633960874335, 63.6325271863329 -26.04684682617405, 63.77418856344834 -25.94570254698197 M63.437865790612136 -26.185832391312644 C63.50709587612258 -26.136403060326728, 63.57632596163302 -26.086973729340816, 63.77418856344834 -25.94570254698197 M63.77418856344834 -25.94570254698197 C63.844587168661626 -25.88607796983262, 63.9149857738749 -25.826453392683273, 64.0895328581287 -25.678619553365657 M63.77418856344834 -25.94570254698197 C63.88890020021728 -25.848546746583143, 64.00361183698621 -25.751390946184312, 64.0895328581287 -25.678619553365657 M64.0895328581287 -25.678619553365657 C64.17816892381553 -25.58998348767883, 64.26680498950236 -25.501347421992, 64.38174455336566 -25.386407858128706 M64.0895328581287 -25.678619553365657 C64.17279407796974 -25.59535833352462, 64.25605529781079 -25.51209711368358, 64.38174455336566 -25.386407858128706 M64.38174455336566 -25.386407858128706 C64.45962096653544 -25.294459350847323, 64.53749737970523 -25.202510843565943, 64.64882754698196 -25.07106356344834 M64.38174455336566 -25.386407858128706 C64.47573046975923 -25.275438896332524, 64.56971638615279 -25.164469934536346, 64.64882754698196 -25.07106356344834 M64.64882754698196 -25.07106356344834 C64.70686446145233 -24.98977780716953, 64.7649013759227 -24.90849205089072, 64.88895739131264 -24.734740790612136 M64.64882754698196 -25.07106356344834 C64.71349841511045 -24.980486376962745, 64.77816928323894 -24.889909190477148, 64.88895739131264 -24.734740790612136 M64.88895739131264 -24.734740790612136 C64.93304026676697 -24.66076018003094, 64.97712314222129 -24.58677956944975, 65.10049375603245 -24.37973696518537 M64.88895739131264 -24.734740790612136 C64.9434666311146 -24.64326248296308, 64.99797587091656 -24.551784175314026, 65.10049375603245 -24.37973696518537 M65.10049375603245 -24.37973696518537 C65.1558456320407 -24.266512893097, 65.21119750804895 -24.153288821008637, 65.28199163327528 -24.008477123264846 M65.10049375603245 -24.37973696518537 C65.15441936058026 -24.269430378000873, 65.20834496512806 -24.159123790816377, 65.28199163327528 -24.008477123264846 M65.28199163327528 -24.008477123264846 C65.33146374104696 -23.88169097704716, 65.38093584881862 -23.75490483082947, 65.43221120850318 -23.623497346023417 M65.28199163327528 -24.008477123264846 C65.32244996928344 -23.904791294301813, 65.3629083052916 -23.80110546533878, 65.43221120850318 -23.623497346023417 M65.43221120850318 -23.623497346023417 C65.46962163565907 -23.497837936282956, 65.50703206281497 -23.372178526542495, 65.55012632969665 -23.227427435703994 M65.43221120850318 -23.623497346023417 C65.47454594852479 -23.481297460936197, 65.51688068854641 -23.33909757584898, 65.55012632969665 -23.227427435703994 M65.55012632969665 -23.227427435703994 C65.57634275938985 -23.102395549244875, 65.60255918908305 -22.977363662785756, 65.63493151701361 -22.82297295140367 M65.55012632969665 -23.227427435703994 C65.57329800559546 -23.11691664594538, 65.59646968149426 -23.006405856186767, 65.63493151701361 -22.82297295140367 M65.63493151701361 -22.82297295140367 C65.65255422029527 -22.68159532075959, 65.67017692357693 -22.540217690115508, 65.68604746503335 -22.412896727361662 M65.63493151701361 -22.82297295140367 C65.65377193317832 -22.67182625414941, 65.67261234934304 -22.520679556895146, 65.68604746503335 -22.412896727361662 M65.68604746503335 -22.412896727361662 C65.69197953907879 -22.26947240033743, 65.6979116131242 -22.126048073313203, 65.703125 -22 M65.68604746503335 -22.412896727361662 C65.69136275686692 -22.2843848193294, 65.69667804870049 -22.155872911297138, 65.703125 -22 M65.703125 -22 C65.703125 -22, 65.703125 -22, 65.703125 -22 M65.703125 -22 C65.703125 -22, 65.703125 -22, 65.703125 -22 M65.703125 -22 C65.703125 -8.9143865425004, 65.703125 4.171226914999199, 65.703125 22 M65.703125 -22 C65.703125 -10.04973406238695, 65.703125 1.9005318752261005, 65.703125 22 M65.703125 22 C65.703125 22, 65.703125 22, 65.703125 22 M65.703125 22 C65.703125 22, 65.703125 22, 65.703125 22 M65.703125 22 C65.69636745911146 22.16338227521367, 65.68960991822291 22.326764550427338, 65.68604746503335 22.412896727361662 M65.703125 22 C65.6980092224932 22.1236880963554, 65.69289344498641 22.247376192710806, 65.68604746503335 22.412896727361662 M65.68604746503335 22.412896727361662 C65.67393597126029 22.5100608381016, 65.66182447748723 22.607224948841537, 65.63493151701361 22.82297295140367 M65.68604746503335 22.412896727361662 C65.67026972615722 22.539473184082176, 65.65449198728108 22.66604964080269, 65.63493151701361 22.82297295140367 M65.63493151701361 22.82297295140367 C65.60676835940325 22.957289209028318, 65.57860520179287 23.091605466652965, 65.55012632969665 23.227427435703994 M65.63493151701361 22.82297295140367 C65.61613588398748 22.9126134357088, 65.59734025096137 23.002253920013924, 65.55012632969665 23.227427435703994 M65.55012632969665 23.227427435703994 C65.5038351486556 23.38291677191413, 65.45754396761454 23.538406108124263, 65.43221120850318 23.623497346023417 M65.55012632969665 23.227427435703994 C65.5240320305895 23.315076641358125, 65.49793773148234 23.402725847012253, 65.43221120850318 23.623497346023417 M65.43221120850318 23.623497346023417 C65.39101570110792 23.729072383340064, 65.34982019371265 23.834647420656715, 65.28199163327528 24.008477123264846 M65.43221120850318 23.623497346023417 C65.3943796982232 23.72045119759831, 65.35654818794323 23.81740504917321, 65.28199163327528 24.008477123264846 M65.28199163327528 24.008477123264846 C65.2339747967376 24.10669713229919, 65.18595796019991 24.20491714133353, 65.10049375603245 24.379736965185366 M65.28199163327528 24.008477123264846 C65.21084020136439 24.15401970351395, 65.1396887694535 24.29956228376305, 65.10049375603245 24.379736965185366 M65.10049375603245 24.379736965185366 C65.04461809130092 24.473508429747636, 64.9887424265694 24.567279894309905, 64.88895739131264 24.734740790612133 M65.10049375603245 24.379736965185366 C65.05750953733069 24.451873791836036, 65.01452531862893 24.524010618486706, 64.88895739131264 24.734740790612133 M64.88895739131264 24.734740790612133 C64.83901485581607 24.804689663762378, 64.78907232031952 24.874638536912627, 64.64882754698196 25.07106356344834 M64.88895739131264 24.734740790612133 C64.79459935184212 24.866897447618136, 64.7002413123716 24.999054104624136, 64.64882754698196 25.07106356344834 M64.64882754698196 25.07106356344834 C64.55497215539276 25.181878414899217, 64.46111676380356 25.292693266350092, 64.38174455336566 25.386407858128706 M64.64882754698196 25.07106356344834 C64.56101740960621 25.174740796736824, 64.47320727223045 25.27841803002531, 64.38174455336566 25.386407858128706 M64.38174455336566 25.386407858128706 C64.31359307174162 25.45455933975275, 64.24544159011758 25.522710821376794, 64.0895328581287 25.678619553365657 M64.38174455336566 25.386407858128706 C64.3147234306377 25.453428980856675, 64.24770230790972 25.52045010358464, 64.0895328581287 25.678619553365657 M64.0895328581287 25.678619553365657 C63.994971255032034 25.7587091457961, 63.90040965193536 25.838798738226544, 63.77418856344834 25.94570254698197 M64.0895328581287 25.678619553365657 C63.993546512455744 25.75991584120435, 63.89756016678278 25.841212129043043, 63.77418856344834 25.94570254698197 M63.77418856344834 25.94570254698197 C63.698691171353 25.99960664886108, 63.62319377925765 26.053510750740188, 63.437865790612136 26.185832391312644 M63.77418856344834 25.94570254698197 C63.66043529427122 26.026920820098763, 63.54668202509409 26.10813909321556, 63.437865790612136 26.185832391312644 M63.437865790612136 26.185832391312644 C63.33556761559184 26.24678887265548, 63.233269440571554 26.307745353998317, 63.082861965185366 26.397368756032446 M63.437865790612136 26.185832391312644 C63.337708198409885 26.24551336215312, 63.23755060620764 26.305194332993594, 63.082861965185366 26.397368756032446 M63.082861965185366 26.397368756032446 C62.99364503048893 26.440984257719222, 62.90442809579249 26.484599759406, 62.711602123264846 26.578866633275286 M63.082861965185366 26.397368756032446 C63.00706428525013 26.434423983813108, 62.931266605314896 26.47147921159377, 62.711602123264846 26.578866633275286 M62.711602123264846 26.578866633275286 C62.57149646055793 26.633536032508836, 62.431390797851016 26.688205431742382, 62.32662234602342 26.729086208503173 M62.711602123264846 26.578866633275286 C62.59226317910246 26.62543283378762, 62.472924234940066 26.671999034299958, 62.32662234602342 26.729086208503173 M62.32662234602342 26.729086208503173 C62.24348002156175 26.753838750945235, 62.16033769710009 26.778591293387294, 61.930552435703994 26.847001329696653 M62.32662234602342 26.729086208503173 C62.24424284738049 26.753611647859334, 62.16186334873756 26.778137087215494, 61.930552435703994 26.847001329696653 M61.930552435703994 26.847001329696653 C61.76909243444305 26.880855931840124, 61.60763243318211 26.914710533983598, 61.52609795140367 26.931806517013612 M61.930552435703994 26.847001329696653 C61.84072484558021 26.86583619468735, 61.75089725545642 26.88467105967805, 61.52609795140367 26.931806517013612 M61.52609795140367 26.931806517013612 C61.37444371562668 26.950710197789203, 61.222789479849695 26.96961387856479, 61.11602172736166 26.982922465033347 M61.52609795140367 26.931806517013612 C61.39550925853821 26.948084380603657, 61.26492056567275 26.9643622441937, 61.11602172736166 26.982922465033347 M61.11602172736166 26.982922465033347 C60.96734108553189 26.98907194186727, 60.81866044370212 26.99522141870119, 60.703125 27 M61.11602172736166 26.982922465033347 C60.99954265076376 26.987740075277426, 60.88306357416586 26.992557685521504, 60.703125 27 M60.703125 27 C60.703125 27, 60.703125 27, 60.703125 27 M60.703125 27 C60.703125 27, 60.703125 27, 60.703125 27 M60.703125 27 C19.648118809181454 27, -21.40688738163709 27, -60.703125 27 M60.703125 27 C36.16189812380694 27, 11.620671247613885 27, -60.703125 27 M-60.703125 27 C-60.703125 27, -60.703125 27, -60.703125 27 M-60.703125 27 C-60.703125 27, -60.703125 27, -60.703125 27 M-60.703125 27 C-60.83006603305218 26.994749680036207, -60.95700706610436 26.989499360072415, -61.11602172736166 26.982922465033347 M-60.703125 27 C-60.86209213569345 26.993425070632792, -61.0210592713869 26.986850141265588, -61.11602172736166 26.982922465033347 M-61.11602172736166 26.982922465033347 C-61.23279409603918 26.968366804457304, -61.349566464716695 26.95381114388126, -61.52609795140367 26.931806517013612 M-61.11602172736166 26.982922465033347 C-61.27473294962084 26.963139131810113, -61.43344417188001 26.94335579858688, -61.52609795140367 26.931806517013612 M-61.52609795140367 26.931806517013612 C-61.63557688771092 26.908851198031655, -61.74505582401816 26.885895879049695, -61.930552435703994 26.847001329696653 M-61.52609795140367 26.931806517013612 C-61.66778318678724 26.902098247249867, -61.80946842217081 26.87238997748612, -61.930552435703994 26.847001329696653 M-61.930552435703994 26.847001329696653 C-62.05210471877109 26.810813647129095, -62.17365700183819 26.774625964561537, -62.32662234602342 26.729086208503173 M-61.930552435703994 26.847001329696653 C-62.0568699705966 26.80939497019383, -62.183187505489215 26.771788610691004, -62.32662234602342 26.729086208503173 M-62.32662234602342 26.729086208503173 C-62.41208875209876 26.695737113366572, -62.4975551581741 26.66238801822997, -62.711602123264846 26.578866633275286 M-62.32662234602342 26.729086208503173 C-62.450410529962674 26.680783909242596, -62.57419871390193 26.632481609982015, -62.711602123264846 26.578866633275286 M-62.711602123264846 26.578866633275286 C-62.82229961682716 26.524749926244084, -62.93299711038947 26.470633219212885, -63.082861965185366 26.397368756032446 M-62.711602123264846 26.578866633275286 C-62.826845549030175 26.52252755540896, -62.9420889747955 26.466188477542634, -63.082861965185366 26.397368756032446 M-63.082861965185366 26.397368756032446 C-63.20189841767859 26.32643842619927, -63.320934870171826 26.2555080963661, -63.437865790612136 26.185832391312644 M-63.082861965185366 26.397368756032446 C-63.21839432410083 26.316608999507537, -63.3539266830163 26.235849242982628, -63.437865790612136 26.185832391312644 M-63.437865790612136 26.185832391312644 C-63.5386224009381 26.11389355425791, -63.63937901126406 26.041954717203176, -63.77418856344834 25.94570254698197 M-63.437865790612136 26.185832391312644 C-63.571052187383536 26.090739131781106, -63.704238584154936 25.99564587224957, -63.77418856344834 25.94570254698197 M-63.77418856344834 25.94570254698197 C-63.87899607663516 25.85693511136437, -63.98380358982198 25.768167675746767, -64.0895328581287 25.67861955336566 M-63.77418856344834 25.94570254698197 C-63.88909092106572 25.848385214264315, -64.00399327868311 25.751067881546664, -64.0895328581287 25.67861955336566 M-64.0895328581287 25.67861955336566 C-64.19164408829337 25.576508323200994, -64.29375531845804 25.474397093036327, -64.38174455336566 25.386407858128706 M-64.0895328581287 25.67861955336566 C-64.18058970367572 25.587562707818652, -64.27164654922272 25.49650586227164, -64.38174455336566 25.386407858128706 M-64.38174455336566 25.386407858128706 C-64.47476608117894 25.276577547777645, -64.56778760899222 25.16674723742658, -64.64882754698196 25.07106356344834 M-64.38174455336566 25.386407858128706 C-64.46471537094814 25.28844439892325, -64.54768618853063 25.190480939717798, -64.64882754698196 25.07106356344834 M-64.64882754698196 25.07106356344834 C-64.70030655550701 24.99896272592746, -64.75178556403205 24.926861888406577, -64.88895739131264 24.734740790612133 M-64.64882754698196 25.07106356344834 C-64.73833752536319 24.94569703847685, -64.82784750374441 24.82033051350536, -64.88895739131264 24.734740790612133 M-64.88895739131264 24.734740790612133 C-64.97118578050961 24.596743748059804, -65.05341416970658 24.458746705507473, -65.10049375603245 24.37973696518537 M-64.88895739131264 24.734740790612133 C-64.95147874417862 24.62981642232362, -65.01400009704457 24.524892054035107, -65.10049375603245 24.37973696518537 M-65.10049375603245 24.37973696518537 C-65.16701689895477 24.243661701382955, -65.23354004187709 24.10758643758054, -65.28199163327528 24.00847712326485 M-65.10049375603245 24.37973696518537 C-65.14299603714011 24.292797159579944, -65.18549831824775 24.205857353974523, -65.28199163327528 24.00847712326485 M-65.28199163327528 24.00847712326485 C-65.31844942423517 23.915043812585083, -65.35490721519506 23.821610501905315, -65.43221120850318 23.623497346023417 M-65.28199163327528 24.00847712326485 C-65.33345508653426 23.876587595940215, -65.38491853979323 23.74469806861558, -65.43221120850318 23.623497346023417 M-65.43221120850318 23.623497346023417 C-65.45722153504366 23.53948914003858, -65.48223186158414 23.455480934053746, -65.55012632969665 23.227427435703994 M-65.43221120850318 23.623497346023417 C-65.46512811227034 23.51293141528362, -65.4980450160375 23.402365484543825, -65.55012632969665 23.227427435703994 M-65.55012632969665 23.227427435703994 C-65.57067097290592 23.12944553934569, -65.59121561611518 23.031463642987383, -65.63493151701361 22.82297295140367 M-65.55012632969665 23.227427435703994 C-65.57083664246153 23.12865542500481, -65.5915469552264 23.029883414305623, -65.63493151701361 22.82297295140367 M-65.63493151701361 22.82297295140367 C-65.6483951014193 22.71496173241932, -65.66185868582498 22.606950513434963, -65.68604746503335 22.412896727361662 M-65.63493151701361 22.82297295140367 C-65.64742808759983 22.722719572996358, -65.65992465818606 22.622466194589045, -65.68604746503335 22.412896727361662 M-65.68604746503335 22.412896727361662 C-65.69248867447703 22.257162641339306, -65.69892988392071 22.10142855531695, -65.703125 22 M-65.68604746503335 22.412896727361662 C-65.69192521266343 22.270785891959527, -65.69780296029352 22.128675056557395, -65.703125 22 M-65.703125 22 C-65.703125 22, -65.703125 22, -65.703125 22 M-65.703125 22 C-65.703125 22, -65.703125 22, -65.703125 22 M-65.703125 22 C-65.703125 4.5788927160225725, -65.703125 -12.842214567954855, -65.703125 -22 M-65.703125 22 C-65.703125 11.321712489764412, -65.703125 0.6434249795288238, -65.703125 -22 M-65.703125 -22 C-65.703125 -22, -65.703125 -22, -65.703125 -22 M-65.703125 -22 C-65.703125 -22, -65.703125 -22, -65.703125 -22 M-65.703125 -22 C-65.69716530527009 -22.144092133604623, -65.6912056105402 -22.288184267209246, -65.68604746503335 -22.41289672736166 M-65.703125 -22 C-65.69734914028115 -22.139647412830495, -65.6915732805623 -22.279294825660987, -65.68604746503335 -22.41289672736166 M-65.68604746503335 -22.41289672736166 C-65.67560871020572 -22.49664133798228, -65.66516995537809 -22.580385948602895, -65.63493151701361 -22.82297295140367 M-65.68604746503335 -22.41289672736166 C-65.67438918562848 -22.50642493885705, -65.6627309062236 -22.599953150352444, -65.63493151701361 -22.82297295140367 M-65.63493151701361 -22.82297295140367 C-65.61310970197593 -22.927045959515503, -65.59128788693825 -23.031118967627336, -65.55012632969665 -23.227427435703994 M-65.63493151701361 -22.82297295140367 C-65.61527547094222 -22.916716933684775, -65.59561942487083 -23.010460915965876, -65.55012632969665 -23.227427435703994 M-65.55012632969665 -23.227427435703994 C-65.5187476379072 -23.3328266034884, -65.48736894611774 -23.43822577127281, -65.43221120850318 -23.623497346023417 M-65.55012632969665 -23.227427435703994 C-65.50489327763694 -23.379362579317753, -65.45966022557722 -23.531297722931512, -65.43221120850318 -23.623497346023417 M-65.43221120850318 -23.623497346023417 C-65.39865056756533 -23.70950589752365, -65.36508992662749 -23.79551444902388, -65.28199163327528 -24.008477123264846 M-65.43221120850318 -23.623497346023417 C-65.3952653485908 -23.71818147022948, -65.35831948867842 -23.812865594435547, -65.28199163327528 -24.008477123264846 M-65.28199163327528 -24.008477123264846 C-65.23869276597904 -24.0970463719632, -65.19539389868278 -24.18561562066155, -65.10049375603245 -24.379736965185366 M-65.28199163327528 -24.008477123264846 C-65.21502242831406 -24.145464821551695, -65.14805322335285 -24.282452519838543, -65.10049375603245 -24.379736965185366 M-65.10049375603245 -24.379736965185366 C-65.02880872773768 -24.500039965117207, -64.95712369944292 -24.620342965049044, -64.88895739131264 -24.734740790612133 M-65.10049375603245 -24.379736965185366 C-65.04349364577499 -24.4753954928241, -64.98649353551752 -24.571054020462828, -64.88895739131264 -24.734740790612133 M-64.88895739131264 -24.734740790612133 C-64.80383376917285 -24.85396384142331, -64.71871014703305 -24.973186892234494, -64.64882754698196 -25.07106356344834 M-64.88895739131264 -24.734740790612133 C-64.82421182797687 -24.825422594244763, -64.7594662646411 -24.916104397877394, -64.64882754698196 -25.07106356344834 M-64.64882754698196 -25.07106356344834 C-64.55871670698515 -25.17745723118846, -64.46860586698836 -25.283850898928577, -64.38174455336566 -25.386407858128706 M-64.64882754698196 -25.07106356344834 C-64.55297453981161 -25.184236995159047, -64.45712153264127 -25.297410426869753, -64.38174455336566 -25.386407858128706 M-64.38174455336566 -25.386407858128706 C-64.29978821340192 -25.468364198092445, -64.21783187343819 -25.550320538056184, -64.0895328581287 -25.678619553365657 M-64.38174455336566 -25.386407858128706 C-64.30203357346652 -25.46611883802785, -64.22232259356737 -25.545829817926993, -64.0895328581287 -25.678619553365657 M-64.0895328581287 -25.678619553365657 C-63.97028950822028 -25.779613519007746, -63.85104615831187 -25.880607484649836, -63.77418856344834 -25.945702546981966 M-64.0895328581287 -25.678619553365657 C-64.00456453640163 -25.750584050939406, -63.91959621467456 -25.82254854851315, -63.77418856344834 -25.945702546981966 M-63.77418856344834 -25.945702546981966 C-63.688503916692184 -26.006880208885654, -63.602819269936035 -26.068057870789342, -63.437865790612136 -26.185832391312644 M-63.77418856344834 -25.945702546981966 C-63.6415323697103 -26.04041724882385, -63.508876175972254 -26.13513195066573, -63.437865790612136 -26.185832391312644 M-63.437865790612136 -26.185832391312644 C-63.34490028631656 -26.241227807965938, -63.25193478202098 -26.296623224619232, -63.082861965185366 -26.397368756032446 M-63.437865790612136 -26.185832391312644 C-63.30155841756456 -26.26705395602206, -63.16525104451698 -26.348275520731477, -63.082861965185366 -26.397368756032446 M-63.082861965185366 -26.397368756032446 C-62.974710234997005 -26.450240915185955, -62.866558504808644 -26.50311307433946, -62.711602123264846 -26.578866633275286 M-63.082861965185366 -26.397368756032446 C-63.00705269851074 -26.43442964822484, -62.93124343183611 -26.471490540417232, -62.711602123264846 -26.578866633275286 M-62.711602123264846 -26.578866633275286 C-62.56562455414969 -26.63582725749926, -62.41964698503453 -26.692787881723234, -62.32662234602342 -26.729086208503173 M-62.711602123264846 -26.578866633275286 C-62.598851783956015 -26.62286195219603, -62.486101444647176 -26.666857271116772, -62.32662234602342 -26.729086208503173 M-62.32662234602342 -26.729086208503173 C-62.176908280710116 -26.773658016903234, -62.027194215396804 -26.8182298253033, -61.930552435703994 -26.847001329696653 M-62.32662234602342 -26.729086208503173 C-62.212556429807464 -26.76304510309277, -62.09849051359151 -26.797003997682374, -61.930552435703994 -26.847001329696653 M-61.930552435703994 -26.847001329696653 C-61.82473674422651 -26.869188547010722, -61.718921052749025 -26.891375764324795, -61.52609795140367 -26.931806517013612 M-61.930552435703994 -26.847001329696653 C-61.78463338686632 -26.87759733678803, -61.63871433802864 -26.908193343879404, -61.52609795140367 -26.931806517013612 M-61.52609795140367 -26.931806517013612 C-61.43135449230638 -26.94361627687409, -61.336611033209095 -26.955426036734565, -61.11602172736166 -26.982922465033347 M-61.52609795140367 -26.931806517013612 C-61.372828056209606 -26.950911589525514, -61.21955816101554 -26.97001666203742, -61.11602172736166 -26.982922465033347 M-61.11602172736166 -26.982922465033347 C-60.982314847238634 -26.988452622501956, -60.8486079671156 -26.993982779970565, -60.703125 -27 M-61.11602172736166 -26.982922465033347 C-60.984904401795966 -26.988345517733208, -60.853787076230276 -26.99376857043307, -60.703125 -27 M-60.703125 -27 C-60.703125 -27, -60.703125 -27, -60.703125 -27 M-60.703125 -27 C-60.703125 -27, -60.703125 -27, -60.703125 -27" stroke="hsl(353, 54.7368421053%, 52.7450980392%)" stroke-width="1.3" fill="none" stroke-dasharray="0 0" style=""/></g><g class="label" style="" transform="translate(-50.703125, -12)"><rect/><foreignObject width="101.40625" height="24"><div xmlns="http://www.w3.org/1999/xhtml" style="display: table-cell; white-space: nowrap; line-height: 1.5; max-width: 200px; text-align: center;"><span class="nodeLabel"><p>Authentication</p></span></div></foreignObject></g></g><g class="node default" id="flowchart-Db-4" transform="translate(293.65625, 372.0643539428711)"><g class="basic label-container outer-path"><path d="M-44.25 -27 C-18.969527167289765 -27, 6.310945665420469 -27, 44.25 -27 C44.25 -27, 44.25 -27, 44.25 -27 C44.40841546825477 -26.993447887766838, 44.56683093650955 -26.98689577553367, 44.66289672736166 -26.982922465033347 C44.77101517776583 -26.969445514245127, 44.879133628169996 -26.955968563456906, 45.07297295140367 -26.931806517013612 C45.22590189228259 -26.899740690126176, 45.37883083316152 -26.86767486323874, 45.477427435703994 -26.847001329696653 C45.61663423410804 -26.805557670188332, 45.755841032512095 -26.76411401068001, 45.87349734602342 -26.729086208503173 C45.974756091094356 -26.68957492356852, 46.07601483616529 -26.650063638633867, 46.258477123264846 -26.578866633275286 C46.4043807622089 -26.50753869052402, 46.55028440115296 -26.436210747772748, 46.629736965185366 -26.397368756032446 C46.72774886640457 -26.3389663395, 46.82576076762377 -26.280563922967552, 46.984740790612136 -26.185832391312644 C47.05849119591948 -26.13317561402566, 47.13224160122683 -26.080518836738673, 47.32106356344834 -25.94570254698197 C47.40614871759275 -25.87363909739831, 47.49123387173715 -25.80157564781465, 47.636407858128706 -25.678619553365657 C47.69528195828098 -25.619745453213383, 47.75415605843325 -25.56087135306111, 47.92861955336566 -25.386407858128706 C47.98664945507367 -25.31789208265117, 48.04467935678168 -25.249376307173634, 48.19570254698197 -25.07106356344834 C48.28010519435365 -24.95285030062845, 48.36450784172534 -24.834637037808562, 48.435832391312644 -24.734740790612136 C48.500903407809425 -24.62553753465487, 48.565974424306205 -24.51633427869761, 48.64736875603245 -24.37973696518537 C48.691485545744875 -24.289494629442995, 48.7356023354573 -24.199252293700617, 48.82886663327529 -24.008477123264846 C48.874694759282825 -23.891029701948366, 48.92052288529035 -23.77358228063189, 48.979086208503176 -23.623497346023417 C49.0140389150556 -23.506093274268064, 49.048991621608025 -23.38868920251271, 49.09700132969665 -23.227427435703994 C49.12390674498671 -23.099109626259672, 49.15081216027677 -22.970791816815353, 49.18180651701361 -22.82297295140367 C49.200481988724434 -22.673149516290607, 49.219157460435255 -22.523326081177544, 49.23292246503335 -22.412896727361662 C49.23842946644527 -22.279749709071393, 49.24393646785719 -22.146602690781123, 49.25 -22 C49.25 -22, 49.25 -22, 49.25 -22 C49.25 -4.813961979933023, 49.25 12.372076040133955, 49.25 22 C49.25 22, 49.25 22, 49.25 22 C49.24652622359352 22.08398816999188, 49.24305244718704 22.167976339983756, 49.23292246503335 22.412896727361662 C49.2216617598702 22.50323541092807, 49.21040105470706 22.59357409449448, 49.18180651701361 22.82297295140367 C49.14925218210003 22.97823169389077, 49.116697847186444 23.13349043637787, 49.09700132969665 23.227427435703994 C49.070433815025716 23.316666144417706, 49.043866300354786 23.405904853131418, 48.979086208503176 23.623497346023417 C48.934874752127605 23.736801598156774, 48.890663295752034 23.850105850290127, 48.82886663327529 24.008477123264846 C48.77801487603222 24.11249605528895, 48.72716311878915 24.216514987313058, 48.64736875603245 24.379736965185366 C48.56618942386472 24.51597346288309, 48.485010091696985 24.652209960580812, 48.435832391312644 24.734740790612133 C48.34727925181848 24.858767179339633, 48.25872611232431 24.98279356806713, 48.19570254698197 25.07106356344834 C48.1063594792662 25.176550724169182, 48.01701641155044 25.282037884890023, 47.92861955336566 25.386407858128706 C47.812180221133794 25.50284719036057, 47.69574088890193 25.619286522592436, 47.636407858128706 25.678619553365657 C47.54012044257954 25.76017083438222, 47.44383302703038 25.841722115398785, 47.32106356344834 25.94570254698197 C47.231859162138974 26.009393265333834, 47.142654760829615 26.073083983685695, 46.984740790612136 26.185832391312644 C46.85498989192214 26.263147145301602, 46.72523899323213 26.340461899290563, 46.629736965185366 26.397368756032446 C46.55047324613619 26.436118427085955, 46.47120952708703 26.47486809813946, 46.258477123264846 26.578866633275286 C46.15814699733718 26.618015569895828, 46.05781687140951 26.65716450651637, 45.87349734602342 26.729086208503173 C45.79166687829334 26.75344819427465, 45.709836410563256 26.777810180046124, 45.477427435703994 26.847001329696653 C45.35517361260192 26.872635260758937, 45.23291978949983 26.89826919182122, 45.07297295140367 26.931806517013612 C44.97551655795312 26.94395444378856, 44.87806016450257 26.956102370563507, 44.66289672736166 26.982922465033347 C44.513069465153364 26.989119366436924, 44.36324220294506 26.995316267840504, 44.25 27 C44.25 27, 44.25 27, 44.25 27 C10.423204207322186 27, -23.403591585355628 27, -44.25 27 C-44.25 27, -44.25 27, -44.25 27 C-44.40763227835614 26.993480280740656, -44.565264556712286 26.98696056148131, -44.66289672736166 26.982922465033347 C-44.79432299942479 26.966540197305193, -44.92574927148792 26.95015792957704, -45.07297295140367 26.931806517013612 C-45.192223152859505 26.90680237918203, -45.31147335431534 26.881798241350445, -45.477427435703994 26.847001329696653 C-45.61082361976599 26.807287565028865, -45.74421980382798 26.767573800361077, -45.87349734602342 26.729086208503173 C-45.95310112814511 26.69802471633198, -46.032704910266794 26.66696322416078, -46.258477123264846 26.578866633275286 C-46.371199713729105 26.523759916694402, -46.48392230419337 26.468653200113522, -46.629736965185366 26.397368756032446 C-46.75066714942911 26.325310007006106, -46.87159733367287 26.253251257979763, -46.984740790612136 26.185832391312644 C-47.10244563124533 26.101792750405004, -47.220150471878526 26.017753109497367, -47.32106356344834 25.94570254698197 C-47.39342608391278 25.884414618462912, -47.46578860437721 25.823126689943855, -47.636407858128706 25.67861955336566 C-47.71311340619008 25.601914005304284, -47.78981895425146 25.525208457242908, -47.92861955336566 25.386407858128706 C-48.02211648059589 25.276016244746703, -48.11561340782613 25.165624631364697, -48.19570254698197 25.07106356344834 C-48.285248298667746 24.945646934846394, -48.37479405035352 24.82023030624445, -48.435832391312644 24.734740790612133 C-48.48579295500757 24.650896146426874, -48.535753518702485 24.567051502241615, -48.64736875603244 24.37973696518537 C-48.69107733401666 24.290329639879413, -48.73478591200087 24.20092231457346, -48.82886663327528 24.00847712326485 C-48.86118089400822 23.925662770476173, -48.89349515474116 23.8428484176875, -48.979086208503176 23.623497346023417 C-49.007733445600735 23.5272729728193, -49.036380682698294 23.431048599615185, -49.09700132969665 23.227427435703994 C-49.12964514067349 23.0717419623038, -49.162288951650325 22.916056488903607, -49.18180651701361 22.82297295140367 C-49.19606290514023 22.708601487351345, -49.21031929326684 22.59423002329902, -49.23292246503335 22.412896727361662 C-49.23782523726835 22.294358623660752, -49.24272800950336 22.175820519959842, -49.25 22 C-49.25 22, -49.25 22, -49.25 22 C-49.25 10.43097253480626, -49.25 -1.1380549303874794, -49.25 -22 C-49.25 -22, -49.25 -22, -49.25 -22 C-49.24481477910859 -22.12536708259658, -49.23962955821718 -22.25073416519316, -49.23292246503335 -22.41289672736166 C-49.21868647988334 -22.527104509120498, -49.20445049473333 -22.641312290879338, -49.18180651701361 -22.82297295140367 C-49.159733105620404 -22.928245877556424, -49.137659694227196 -23.03351880370918, -49.09700132969665 -23.227427435703994 C-49.07318925252422 -23.307410793010042, -49.04937717535179 -23.387394150316087, -48.979086208503176 -23.623497346023417 C-48.93818458211212 -23.728319230874003, -48.89728295572106 -23.833141115724587, -48.82886663327529 -24.008477123264846 C-48.75889005734903 -24.151616497185803, -48.688913481422766 -24.29475587110676, -48.64736875603245 -24.379736965185366 C-48.59115836705433 -24.47407016951358, -48.5349479780762 -24.568403373841793, -48.435832391312644 -24.734740790612133 C-48.3677954644651 -24.83003243566526, -48.29975853761755 -24.92532408071839, -48.19570254698197 -25.07106356344834 C-48.13449947383385 -25.14332589536563, -48.07329640068573 -25.21558822728292, -47.92861955336566 -25.386407858128706 C-47.828935100679466 -25.486092310814893, -47.72925064799328 -25.585776763501084, -47.636407858128706 -25.678619553365657 C-47.53760548013605 -25.76230089891667, -47.4388031021434 -25.84598224446768, -47.32106356344834 -25.945702546981966 C-47.21139753296424 -26.024002587762542, -47.101731502480135 -26.102302628543114, -46.984740790612136 -26.185832391312644 C-46.86349176328365 -26.25808112957919, -46.74224273595516 -26.33032986784573, -46.629736965185366 -26.397368756032446 C-46.54612201871926 -26.43824561255123, -46.462507072253146 -26.47912246907002, -46.258477123264846 -26.578866633275286 C-46.11584882855619 -26.634520366570413, -45.97322053384753 -26.69017409986554, -45.87349734602342 -26.729086208503173 C-45.717367506812565 -26.77556807554937, -45.56123766760171 -26.822049942595566, -45.477427435703994 -26.847001329696653 C-45.39569456835173 -26.864138909807185, -45.313961700999464 -26.88127648991772, -45.07297295140367 -26.931806517013612 C-44.9574864056341 -26.946201899931328, -44.841999859864536 -26.960597282849044, -44.66289672736166 -26.982922465033347 C-44.501117652865965 -26.98961369704971, -44.33933857837027 -26.99630492906607, -44.25 -27 C-44.25 -27, -44.25 -27, -44.25 -27" stroke="none" stroke-width="0" fill="#FA465B" style=""/><path d="M-44.25 -27 C-19.761621178450707 -27, 4.726757643098587 -27, 44.25 -27 M-44.25 -27 C-11.40384249656995 -27, 21.4423150068601 -27, 44.25 -27 M44.25 -27 C44.25 -27, 44.25 -27, 44.25 -27 M44.25 -27 C44.25 -27, 44.25 -27, 44.25 -27 M44.25 -27 C44.3627996657612 -26.99533457131382, 44.47559933152241 -26.990669142627635, 44.66289672736166 -26.982922465033347 M44.25 -27 C44.3645471352834 -26.995262295439755, 44.47909427056681 -26.990524590879506, 44.66289672736166 -26.982922465033347 M44.66289672736166 -26.982922465033347 C44.75157353355711 -26.971868912668462, 44.84025033975256 -26.960815360303577, 45.07297295140367 -26.931806517013612 M44.66289672736166 -26.982922465033347 C44.790950672164705 -26.966960557459785, 44.919004616967754 -26.95099864988622, 45.07297295140367 -26.931806517013612 M45.07297295140367 -26.931806517013612 C45.18499872906088 -26.90831718155728, 45.29702450671809 -26.88482784610095, 45.477427435703994 -26.847001329696653 M45.07297295140367 -26.931806517013612 C45.16023912075461 -26.913508725480796, 45.24750529010556 -26.89521093394798, 45.477427435703994 -26.847001329696653 M45.477427435703994 -26.847001329696653 C45.60259363507829 -26.809737737628666, 45.727759834452584 -26.77247414556068, 45.87349734602342 -26.729086208503173 M45.477427435703994 -26.847001329696653 C45.558799090241884 -26.822775938530707, 45.64017074477978 -26.79855054736476, 45.87349734602342 -26.729086208503173 M45.87349734602342 -26.729086208503173 C46.00142651590897 -26.679168091512285, 46.129355685794515 -26.6292499745214, 46.258477123264846 -26.578866633275286 M45.87349734602342 -26.729086208503173 C45.97503350592619 -26.689466675965235, 46.076569665828956 -26.649847143427298, 46.258477123264846 -26.578866633275286 M46.258477123264846 -26.578866633275286 C46.405828315174865 -26.506831025000164, 46.553179507084884 -26.434795416725038, 46.629736965185366 -26.397368756032446 M46.258477123264846 -26.578866633275286 C46.397685916353666 -26.51081160122965, 46.536894709442485 -26.442756569184017, 46.629736965185366 -26.397368756032446 M46.629736965185366 -26.397368756032446 C46.73547067270729 -26.334365141661117, 46.841204380229215 -26.27136152728979, 46.984740790612136 -26.185832391312644 M46.629736965185366 -26.397368756032446 C46.75984573268138 -26.31984075852089, 46.88995450017739 -26.24231276100933, 46.984740790612136 -26.185832391312644 M46.984740790612136 -26.185832391312644 C47.080451455333026 -26.117496290172667, 47.17616212005391 -26.04916018903269, 47.32106356344834 -25.94570254698197 M46.984740790612136 -26.185832391312644 C47.06671185685716 -26.127306174931146, 47.148682923102186 -26.068779958549644, 47.32106356344834 -25.94570254698197 M47.32106356344834 -25.94570254698197 C47.44386829850276 -25.841692241985527, 47.56667303355718 -25.737681936989087, 47.636407858128706 -25.678619553365657 M47.32106356344834 -25.94570254698197 C47.438980721855465 -25.84583180824536, 47.55689788026259 -25.74596106950875, 47.636407858128706 -25.678619553365657 M47.636407858128706 -25.678619553365657 C47.72998137164323 -25.58504603985114, 47.82355488515774 -25.49147252633662, 47.92861955336566 -25.386407858128706 M47.636407858128706 -25.678619553365657 C47.744661747103365 -25.570365664391, 47.852915636078016 -25.462111775416343, 47.92861955336566 -25.386407858128706 M47.92861955336566 -25.386407858128706 C48.00042906183334 -25.301622531693372, 48.072238570301025 -25.216837205258038, 48.19570254698197 -25.07106356344834 M47.92861955336566 -25.386407858128706 C48.01987228570559 -25.278665960646716, 48.11112501804552 -25.17092406316473, 48.19570254698197 -25.07106356344834 M48.19570254698197 -25.07106356344834 C48.27937693774901 -24.953870287466383, 48.36305132851604 -24.836677011484422, 48.435832391312644 -24.734740790612136 M48.19570254698197 -25.07106356344834 C48.25058655511407 -24.994193727252835, 48.30547056324616 -24.91732389105733, 48.435832391312644 -24.734740790612136 M48.435832391312644 -24.734740790612136 C48.48160153628763 -24.65793025463572, 48.52737068126261 -24.581119718659302, 48.64736875603245 -24.37973696518537 M48.435832391312644 -24.734740790612136 C48.4993376964925 -24.628165137278938, 48.562843001672356 -24.52158948394574, 48.64736875603245 -24.37973696518537 M48.64736875603245 -24.37973696518537 C48.6869361805264 -24.29880050473756, 48.72650360502035 -24.21786404428975, 48.82886663327529 -24.008477123264846 M48.64736875603245 -24.37973696518537 C48.70458237918552 -24.262704628443, 48.76179600233859 -24.14567229170063, 48.82886663327529 -24.008477123264846 M48.82886663327529 -24.008477123264846 C48.87806932927469 -23.88238142024618, 48.927272025274085 -23.75628571722751, 48.979086208503176 -23.623497346023417 M48.82886663327529 -24.008477123264846 C48.866858105382505 -23.911113324660555, 48.90484957748972 -23.813749526056267, 48.979086208503176 -23.623497346023417 M48.979086208503176 -23.623497346023417 C49.01868620505591 -23.490483302323685, 49.05828620160863 -23.357469258623954, 49.09700132969665 -23.227427435703994 M48.979086208503176 -23.623497346023417 C49.024310261315016 -23.47159243035042, 49.069534314126855 -23.31968751467742, 49.09700132969665 -23.227427435703994 M49.09700132969665 -23.227427435703994 C49.12573296724385 -23.090399972940165, 49.15446460479104 -22.95337251017634, 49.18180651701361 -22.82297295140367 M49.09700132969665 -23.227427435703994 C49.128136010807296 -23.078939332666213, 49.15927069191793 -22.930451229628428, 49.18180651701361 -22.82297295140367 M49.18180651701361 -22.82297295140367 C49.198705909040015 -22.687398064518693, 49.215605301066425 -22.551823177633715, 49.23292246503335 -22.412896727361662 M49.18180651701361 -22.82297295140367 C49.19715362677466 -22.699851204383773, 49.2125007365357 -22.57672945736387, 49.23292246503335 -22.412896727361662 M49.23292246503335 -22.412896727361662 C49.23968265163733 -22.249450484646324, 49.246442838241315 -22.086004241930983, 49.25 -22 M49.23292246503335 -22.412896727361662 C49.23779770321344 -22.29502433573144, 49.24267294139353 -22.177151944101222, 49.25 -22 M49.25 -22 C49.25 -22, 49.25 -22, 49.25 -22 M49.25 -22 C49.25 -22, 49.25 -22, 49.25 -22 M49.25 -22 C49.25 -10.89885236084001, 49.25 0.20229527831997984, 49.25 22 M49.25 -22 C49.25 -11.447828604926839, 49.25 -0.8956572098536775, 49.25 22 M49.25 22 C49.25 22, 49.25 22, 49.25 22 M49.25 22 C49.25 22, 49.25 22, 49.25 22 M49.25 22 C49.244708066885515 22.12794714627453, 49.23941613377104 22.255894292549062, 49.23292246503335 22.412896727361662 M49.25 22 C49.24549738581463 22.10886317406712, 49.24099477162926 22.21772634813424, 49.23292246503335 22.412896727361662 M49.23292246503335 22.412896727361662 C49.22160767706565 22.503669288673393, 49.21029288909796 22.594441849985124, 49.18180651701361 22.82297295140367 M49.23292246503335 22.412896727361662 C49.21435687994208 22.56183860022722, 49.195791294850814 22.710780473092775, 49.18180651701361 22.82297295140367 M49.18180651701361 22.82297295140367 C49.149766846159174 22.975777148441193, 49.11772717530473 23.128581345478715, 49.09700132969665 23.227427435703994 M49.18180651701361 22.82297295140367 C49.15582024907293 22.946907146131117, 49.12983398113225 23.07084134085856, 49.09700132969665 23.227427435703994 M49.09700132969665 23.227427435703994 C49.07111211554407 23.314387773138836, 49.04522290139148 23.40134811057368, 48.979086208503176 23.623497346023417 M49.09700132969665 23.227427435703994 C49.06320837044764 23.34093598493597, 49.02941541119863 23.454444534167948, 48.979086208503176 23.623497346023417 M48.979086208503176 23.623497346023417 C48.936835916965045 23.73177556342658, 48.89458562542691 23.840053780829745, 48.82886663327529 24.008477123264846 M48.979086208503176 23.623497346023417 C48.94241922788253 23.71746676385753, 48.90575224726189 23.811436181691644, 48.82886663327529 24.008477123264846 M48.82886663327529 24.008477123264846 C48.769431782143386 24.13005305446032, 48.70999693101149 24.25162898565579, 48.64736875603245 24.379736965185366 M48.82886663327529 24.008477123264846 C48.76754386043208 24.13391486004585, 48.70622108758887 24.25935259682685, 48.64736875603245 24.379736965185366 M48.64736875603245 24.379736965185366 C48.576876428122226 24.49803835560831, 48.506384100211996 24.616339746031255, 48.435832391312644 24.734740790612133 M48.64736875603245 24.379736965185366 C48.57719767604382 24.497499232033846, 48.50702659605519 24.615261498882326, 48.435832391312644 24.734740790612133 M48.435832391312644 24.734740790612133 C48.34847772662476 24.85708861093367, 48.26112306193687 24.979436431255202, 48.19570254698197 25.07106356344834 M48.435832391312644 24.734740790612133 C48.35866144032804 24.84282543244369, 48.28149048934344 24.950910074275246, 48.19570254698197 25.07106356344834 M48.19570254698197 25.07106356344834 C48.09141249581018 25.194198594187856, 47.987122444638395 25.31733362492737, 47.92861955336566 25.386407858128706 M48.19570254698197 25.07106356344834 C48.10075976263132 25.183162297106605, 48.00581697828066 25.295261030764866, 47.92861955336566 25.386407858128706 M47.92861955336566 25.386407858128706 C47.84866875790803 25.46635865358633, 47.76871796245041 25.546309449043953, 47.636407858128706 25.678619553365657 M47.92861955336566 25.386407858128706 C47.86069804931937 25.454329362175, 47.79277654527307 25.522250866221288, 47.636407858128706 25.678619553365657 M47.636407858128706 25.678619553365657 C47.54741227339541 25.753994968713812, 47.45841668866211 25.829370384061967, 47.32106356344834 25.94570254698197 M47.636407858128706 25.678619553365657 C47.546582107228154 25.75469808359139, 47.4567563563276 25.830776613817125, 47.32106356344834 25.94570254698197 M47.32106356344834 25.94570254698197 C47.20315263883083 26.029889329026247, 47.08524171421332 26.114076111070524, 46.984740790612136 26.185832391312644 M47.32106356344834 25.94570254698197 C47.253242890595196 25.994125576672438, 47.185422217742044 26.042548606362907, 46.984740790612136 26.185832391312644 M46.984740790612136 26.185832391312644 C46.904053740632406 26.233911437255763, 46.82336669065268 26.28199048319888, 46.629736965185366 26.397368756032446 M46.984740790612136 26.185832391312644 C46.84694018719032 26.267943728194727, 46.709139583768504 26.350055065076813, 46.629736965185366 26.397368756032446 M46.629736965185366 26.397368756032446 C46.50393168578792 26.458871209512097, 46.378126406390464 26.520373662991748, 46.258477123264846 26.578866633275286 M46.629736965185366 26.397368756032446 C46.49740127977143 26.462063730479066, 46.3650655943575 26.52675870492569, 46.258477123264846 26.578866633275286 M46.258477123264846 26.578866633275286 C46.13084147188731 26.628670218988944, 46.00320582050977 26.6784738047026, 45.87349734602342 26.729086208503173 M46.258477123264846 26.578866633275286 C46.15584569374996 26.618913541342067, 46.053214264235066 26.65896044940885, 45.87349734602342 26.729086208503173 M45.87349734602342 26.729086208503173 C45.74784163053476 26.766495535832657, 45.62218591504609 26.803904863162145, 45.477427435703994 26.847001329696653 M45.87349734602342 26.729086208503173 C45.770634825980395 26.75970970753989, 45.66777230593737 26.79033320657661, 45.477427435703994 26.847001329696653 M45.477427435703994 26.847001329696653 C45.346192353042916 26.874518432855695, 45.21495727038184 26.90203553601474, 45.07297295140367 26.931806517013612 M45.477427435703994 26.847001329696653 C45.38778374485422 26.86579763506449, 45.29814005400444 26.88459394043232, 45.07297295140367 26.931806517013612 M45.07297295140367 26.931806517013612 C44.97302996181897 26.94426439767344, 44.87308697223427 26.95672227833327, 44.66289672736166 26.982922465033347 M45.07297295140367 26.931806517013612 C44.933021816637776 26.94925140776949, 44.79307068187188 26.96669629852537, 44.66289672736166 26.982922465033347 M44.66289672736166 26.982922465033347 C44.518812447320244 26.988881834937477, 44.37472816727883 26.994841204841606, 44.25 27 M44.66289672736166 26.982922465033347 C44.567713030659455 26.98685929184976, 44.47252933395725 26.990796118666175, 44.25 27 M44.25 27 C44.25 27, 44.25 27, 44.25 27 M44.25 27 C44.25 27, 44.25 27, 44.25 27 M44.25 27 C12.991264297467897 27, -18.267471405064207 27, -44.25 27 M44.25 27 C10.734277848251608 27, -22.781444303496784 27, -44.25 27 M-44.25 27 C-44.25 27, -44.25 27, -44.25 27 M-44.25 27 C-44.25 27, -44.25 27, -44.25 27 M-44.25 27 C-44.36161378998565 26.995383619498707, -44.47322757997129 26.990767238997414, -44.66289672736166 26.982922465033347 M-44.25 27 C-44.334769439572796 26.99649391004463, -44.4195388791456 26.992987820089258, -44.66289672736166 26.982922465033347 M-44.66289672736166 26.982922465033347 C-44.76199175849918 26.97057028228373, -44.86108678963669 26.958218099534115, -45.07297295140367 26.931806517013612 M-44.66289672736166 26.982922465033347 C-44.763353482569194 26.970400543555417, -44.863810237776725 26.95787862207749, -45.07297295140367 26.931806517013612 M-45.07297295140367 26.931806517013612 C-45.18768254526287 26.907754444476673, -45.30239213912206 26.883702371939734, -45.477427435703994 26.847001329696653 M-45.07297295140367 26.931806517013612 C-45.19134742667464 26.906985999653624, -45.30972190194561 26.882165482293637, -45.477427435703994 26.847001329696653 M-45.477427435703994 26.847001329696653 C-45.62687713254357 26.8025082272013, -45.776326829383144 26.758015124705945, -45.87349734602342 26.729086208503173 M-45.477427435703994 26.847001329696653 C-45.60598523144671 26.80872801564171, -45.734543027189424 26.770454701586765, -45.87349734602342 26.729086208503173 M-45.87349734602342 26.729086208503173 C-45.95126691059469 26.69874043024109, -46.02903647516597 26.668394651979007, -46.258477123264846 26.578866633275286 M-45.87349734602342 26.729086208503173 C-45.965216183013986 26.693297407252768, -46.05693502000455 26.657508606002363, -46.258477123264846 26.578866633275286 M-46.258477123264846 26.578866633275286 C-46.34833303311705 26.53493875566931, -46.43818894296926 26.491010878063328, -46.629736965185366 26.397368756032446 M-46.258477123264846 26.578866633275286 C-46.40330792509947 26.508063168628038, -46.54813872693409 26.43725970398079, -46.629736965185366 26.397368756032446 M-46.629736965185366 26.397368756032446 C-46.74923424528753 26.326163832546545, -46.86873152538969 26.254958909060644, -46.984740790612136 26.185832391312644 M-46.629736965185366 26.397368756032446 C-46.7208672104012 26.343066916423233, -46.81199745561704 26.288765076814016, -46.984740790612136 26.185832391312644 M-46.984740790612136 26.185832391312644 C-47.07288559580175 26.12289821004908, -47.16103040099136 26.05996402878551, -47.32106356344834 25.94570254698197 M-46.984740790612136 26.185832391312644 C-47.07218089636655 26.123401355774973, -47.159621002120964 26.060970320237303, -47.32106356344834 25.94570254698197 M-47.32106356344834 25.94570254698197 C-47.44184843896312 25.8434029757506, -47.5626333144779 25.74110340451923, -47.636407858128706 25.67861955336566 M-47.32106356344834 25.94570254698197 C-47.40466576744346 25.874895092106115, -47.48826797143858 25.804087637230264, -47.636407858128706 25.67861955336566 M-47.636407858128706 25.67861955336566 C-47.722712633626145 25.59231477786822, -47.809017409123584 25.50601000237078, -47.92861955336566 25.386407858128706 M-47.636407858128706 25.67861955336566 C-47.70611399041875 25.608913421075613, -47.7758201227088 25.539207288785565, -47.92861955336566 25.386407858128706 M-47.92861955336566 25.386407858128706 C-48.00455954902655 25.29674567467978, -48.08049954468744 25.207083491230854, -48.19570254698197 25.07106356344834 M-47.92861955336566 25.386407858128706 C-47.997004399481 25.305666022892098, -48.06538924559635 25.224924187655485, -48.19570254698197 25.07106356344834 M-48.19570254698197 25.07106356344834 C-48.25702839002192 24.985171376097764, -48.318354233061875 24.899279188747187, -48.435832391312644 24.734740790612133 M-48.19570254698197 25.07106356344834 C-48.27732715307844 24.95674118952374, -48.35895175917491 24.84241881559914, -48.435832391312644 24.734740790612133 M-48.435832391312644 24.734740790612133 C-48.486791160960145 24.649220940690036, -48.53774993060764 24.56370109076794, -48.64736875603244 24.37973696518537 M-48.435832391312644 24.734740790612133 C-48.49183757626913 24.64075196306647, -48.54784276122561 24.546763135520813, -48.64736875603244 24.37973696518537 M-48.64736875603244 24.37973696518537 C-48.68497688162307 24.302808314703007, -48.72258500721371 24.225879664220642, -48.82886663327528 24.00847712326485 M-48.64736875603244 24.37973696518537 C-48.69488710743301 24.282536623796826, -48.74240545883359 24.185336282408286, -48.82886663327528 24.00847712326485 M-48.82886663327528 24.00847712326485 C-48.885255109565435 23.86396584363812, -48.94164358585559 23.71945456401139, -48.979086208503176 23.623497346023417 M-48.82886663327528 24.00847712326485 C-48.869502343807035 23.904336722356195, -48.91013805433878 23.80019632144754, -48.979086208503176 23.623497346023417 M-48.979086208503176 23.623497346023417 C-49.02265246530344 23.477160868995004, -49.06621872210369 23.330824391966594, -49.09700132969665 23.227427435703994 M-48.979086208503176 23.623497346023417 C-49.00474395514317 23.537314494258162, -49.030401701783155 23.451131642492907, -49.09700132969665 23.227427435703994 M-49.09700132969665 23.227427435703994 C-49.11729185371624 23.13065748933442, -49.13758237773582 23.033887542964848, -49.18180651701361 22.82297295140367 M-49.09700132969665 23.227427435703994 C-49.12098225654777 23.113057151179273, -49.14496318339889 22.998686866654552, -49.18180651701361 22.82297295140367 M-49.18180651701361 22.82297295140367 C-49.194949320556866 22.71753518766968, -49.20809212410012 22.61209742393569, -49.23292246503335 22.412896727361662 M-49.18180651701361 22.82297295140367 C-49.2013772558674 22.665967261363924, -49.22094799472119 22.50896157132418, -49.23292246503335 22.412896727361662 M-49.23292246503335 22.412896727361662 C-49.23706304288634 22.312786784783516, -49.241203620739334 22.212676842205372, -49.25 22 M-49.23292246503335 22.412896727361662 C-49.237213233819396 22.30915550281816, -49.241504002605446 22.205414278274663, -49.25 22 M-49.25 22 C-49.25 22, -49.25 22, -49.25 22 M-49.25 22 C-49.25 22, -49.25 22, -49.25 22 M-49.25 22 C-49.25 5.366311791803888, -49.25 -11.267376416392224, -49.25 -22 M-49.25 22 C-49.25 4.641909275785473, -49.25 -12.716181448429055, -49.25 -22 M-49.25 -22 C-49.25 -22, -49.25 -22, -49.25 -22 M-49.25 -22 C-49.25 -22, -49.25 -22, -49.25 -22 M-49.25 -22 C-49.2437911694011 -22.15011568355949, -49.23758233880219 -22.300231367118982, -49.23292246503335 -22.41289672736166 M-49.25 -22 C-49.24599431170429 -22.096848613770156, -49.24198862340857 -22.193697227540316, -49.23292246503335 -22.41289672736166 M-49.23292246503335 -22.41289672736166 C-49.22023833754383 -22.514654775635716, -49.207554210054326 -22.616412823909773, -49.18180651701361 -22.82297295140367 M-49.23292246503335 -22.41289672736166 C-49.214501791674955 -22.56067605001461, -49.19608111831656 -22.708455372667565, -49.18180651701361 -22.82297295140367 M-49.18180651701361 -22.82297295140367 C-49.16186919604545 -22.9180583951793, -49.14193187507728 -23.013143838954935, -49.09700132969665 -23.227427435703994 M-49.18180651701361 -22.82297295140367 C-49.16248619265867 -22.915115803400322, -49.14316586830372 -23.007258655396974, -49.09700132969665 -23.227427435703994 M-49.09700132969665 -23.227427435703994 C-49.05770018955122 -23.35943763842694, -49.018399049405794 -23.491447841149885, -48.979086208503176 -23.623497346023417 M-49.09700132969665 -23.227427435703994 C-49.05134964251633 -23.380768749900437, -49.00569795533601 -23.534110064096883, -48.979086208503176 -23.623497346023417 M-48.979086208503176 -23.623497346023417 C-48.92630156745612 -23.758772787464626, -48.873516926409074 -23.894048228905834, -48.82886663327529 -24.008477123264846 M-48.979086208503176 -23.623497346023417 C-48.920375029140516 -23.773961203468954, -48.86166384977786 -23.92442506091449, -48.82886663327529 -24.008477123264846 M-48.82886663327529 -24.008477123264846 C-48.77460219788488 -24.119476800015846, -48.72033776249448 -24.23047647676685, -48.64736875603245 -24.379736965185366 M-48.82886663327529 -24.008477123264846 C-48.777498227139766 -24.113552877490154, -48.72612982100424 -24.21862863171546, -48.64736875603245 -24.379736965185366 M-48.64736875603245 -24.379736965185366 C-48.565710780090164 -24.516776730780826, -48.48405280414788 -24.65381649637629, -48.435832391312644 -24.734740790612133 M-48.64736875603245 -24.379736965185366 C-48.5989960282065 -24.460916876957448, -48.55062330038054 -24.54209678872953, -48.435832391312644 -24.734740790612133 M-48.435832391312644 -24.734740790612133 C-48.3765522245162 -24.817767830115464, -48.31727205771976 -24.900794869618796, -48.19570254698197 -25.07106356344834 M-48.435832391312644 -24.734740790612133 C-48.35173799008025 -24.852522327852178, -48.267643588847854 -24.970303865092223, -48.19570254698197 -25.07106356344834 M-48.19570254698197 -25.07106356344834 C-48.117831189219224 -25.16300610182191, -48.03995983145648 -25.25494864019548, -47.92861955336566 -25.386407858128706 M-48.19570254698197 -25.07106356344834 C-48.11396044596971 -25.167576279740686, -48.03221834495746 -25.26408899603303, -47.92861955336566 -25.386407858128706 M-47.92861955336566 -25.386407858128706 C-47.86069235193099 -25.454335059563366, -47.792765150496336 -25.52226226099803, -47.636407858128706 -25.678619553365657 M-47.92861955336566 -25.386407858128706 C-47.831180971208795 -25.483846440285568, -47.73374238905193 -25.581285022442426, -47.636407858128706 -25.678619553365657 M-47.636407858128706 -25.678619553365657 C-47.52354453689523 -25.77420991035965, -47.410681215661754 -25.86980026735365, -47.32106356344834 -25.945702546981966 M-47.636407858128706 -25.678619553365657 C-47.560218672847874 -25.74314850165888, -47.48402948756705 -25.8076774499521, -47.32106356344834 -25.945702546981966 M-47.32106356344834 -25.945702546981966 C-47.20977400491476 -26.02516176450963, -47.09848444638118 -26.10462098203729, -46.984740790612136 -26.185832391312644 M-47.32106356344834 -25.945702546981966 C-47.19998416828748 -26.032151573512177, -47.07890477312661 -26.118600600042388, -46.984740790612136 -26.185832391312644 M-46.984740790612136 -26.185832391312644 C-46.90619935581049 -26.232632928117688, -46.82765792100885 -26.279433464922732, -46.629736965185366 -26.397368756032446 M-46.984740790612136 -26.185832391312644 C-46.87712156960141 -26.249959527856085, -46.76950234859068 -26.31408666439953, -46.629736965185366 -26.397368756032446 M-46.629736965185366 -26.397368756032446 C-46.52597216338497 -26.448096276579438, -46.422207361584576 -26.498823797126427, -46.258477123264846 -26.578866633275286 M-46.629736965185366 -26.397368756032446 C-46.51008641067349 -26.45586234785885, -46.39043585616161 -26.514355939685256, -46.258477123264846 -26.578866633275286 M-46.258477123264846 -26.578866633275286 C-46.156466455976556 -26.618671319169604, -46.05445578868827 -26.658476005063925, -45.87349734602342 -26.729086208503173 M-46.258477123264846 -26.578866633275286 C-46.111438732028375 -26.636241191575483, -45.964400340791904 -26.693615749875676, -45.87349734602342 -26.729086208503173 M-45.87349734602342 -26.729086208503173 C-45.77328850445247 -26.75891967322905, -45.67307966288153 -26.78875313795493, -45.477427435703994 -26.847001329696653 M-45.87349734602342 -26.729086208503173 C-45.7163227019094 -26.775879127445943, -45.559148057795376 -26.82267204638871, -45.477427435703994 -26.847001329696653 M-45.477427435703994 -26.847001329696653 C-45.32699664260008 -26.87854335007871, -45.176565849496164 -26.910085370460774, -45.07297295140367 -26.931806517013612 M-45.477427435703994 -26.847001329696653 C-45.38134312316225 -26.867148091420457, -45.28525881062051 -26.887294853144265, -45.07297295140367 -26.931806517013612 M-45.07297295140367 -26.931806517013612 C-44.98684419234996 -26.942542455633507, -44.90071543329626 -26.953278394253402, -44.66289672736166 -26.982922465033347 M-45.07297295140367 -26.931806517013612 C-44.92413069387902 -26.950359685065585, -44.77528843635437 -26.96891285311756, -44.66289672736166 -26.982922465033347 M-44.66289672736166 -26.982922465033347 C-44.51744982214873 -26.988938193531457, -44.3720029169358 -26.994953922029563, -44.25 -27 M-44.66289672736166 -26.982922465033347 C-44.54139241845381 -26.987947920423203, -44.41988810954596 -26.992973375813055, -44.25 -27 M-44.25 -27 C-44.25 -27, -44.25 -27, -44.25 -27 M-44.25 -27 C-44.25 -27, -44.25 -27, -44.25 -27" stroke="hsl(353, 54.7368421053%, 52.7450980392%)" stroke-width="1.3" fill="none" stroke-dasharray="0 0" style=""/></g><g class="label" style="" transform="translate(-34.25, -12)"><rect/><foreignObject width="68.5" height="24"><div xmlns="http://www.w3.org/1999/xhtml" style="display: table-cell; white-space: nowrap; line-height: 1.5; max-width: 200px; text-align: center;"><span class="nodeLabel"><p>Database</p></span></div></foreignObject></g></g></g></g></g></svg>