<svg id="my-svg" width="611.39453125" xmlns="http://www.w3.org/2000/svg" xmlns:xlink="http://www.w3.org/1999/xlink" class="flowchart" height="457.0643615722656" viewBox="0 0 611.39453125 457.0643615722656" role="graphics-document document" aria-roledescription="flowchart-v2" style="background-color: rgb(9, 44, 46);"><style>#my-svg{font-family:"trebuchet ms",verdana,arial,sans-serif;font-size:16px;fill:#F7F7F7;}@keyframes edge-animation-frame{from{stroke-dashoffset:0;}}@keyframes dash{to{stroke-dashoffset:0;}}#my-svg .edge-animation-slow{stroke-dasharray:9,5!important;stroke-dashoffset:900;animation:dash 50s linear infinite;stroke-linecap:round;}#my-svg .edge-animation-fast{stroke-dasharray:9,5!important;stroke-dashoffset:900;animation:dash 20s linear infinite;stroke-linecap:round;}#my-svg .error-icon{fill:#154245;}#my-svg .error-text{fill:#eabdba;stroke:#eabdba;}#my-svg .edge-thickness-normal{stroke-width:1px;}#my-svg .edge-thickness-thick{stroke-width:3.5px;}#my-svg .edge-pattern-solid{stroke-dasharray:0;}#my-svg .edge-thickness-invisible{stroke-width:0;fill:none;}#my-svg .edge-pattern-dashed{stroke-dasharray:3;}#my-svg .edge-pattern-dotted{stroke-dasharray:2;}#my-svg .marker{fill:#D5DBDB;stroke:#D5DBDB;}#my-svg .marker.cross{stroke:#D5DBDB;}#my-svg svg{font-family:"trebuchet ms",verdana,arial,sans-serif;font-size:16px;}#my-svg p{margin:0;}#my-svg .label{font-family:"trebuchet ms",verdana,arial,sans-serif;color:#F7F7F7;}#my-svg .cluster-label text{fill:#eabdba;}#my-svg .cluster-label span{color:#eabdba;}#my-svg .cluster-label span p{background-color:transparent;}#my-svg .label text,#my-svg span{fill:#F7F7F7;color:#F7F7F7;}#my-svg .node rect,#my-svg .node circle,#my-svg .node ellipse,#my-svg .node polygon,#my-svg .node path{fill:#FA465B;stroke:hsl(353, 54.7368421053%, 52.7450980392%);stroke-width:1px;}#my-svg .rough-node .label text,#my-svg .node .label text,#my-svg .image-shape .label,#my-svg .icon-shape .label{text-anchor:middle;}#my-svg .node .katex path{fill:#000;stroke:#000;stroke-width:1px;}#my-svg .rough-node .label,#my-svg .node .label,#my-svg .image-shape .label,#my-svg .icon-shape .label{text-align:center;}#my-svg .node.clickable{cursor:pointer;}#my-svg .root .anchor path{fill:#D5DBDB!important;stroke-width:0;stroke:#D5DBDB;}#my-svg .arrowheadPath{fill:#0b0b0b;}#my-svg .edgePath .path{stroke:#D5DBDB;stroke-width:2.0px;}#my-svg .flowchart-link{stroke:#D5DBDB;fill:none;}#my-svg .edgeLabel{background-color:#031819;text-align:center;}#my-svg .edgeLabel p{background-color:#031819;}#my-svg .edgeLabel rect{opacity:0.5;background-color:#031819;fill:#031819;}#my-svg .labelBkg{background-color:rgba(3, 24, 25, 0.5);}#my-svg .cluster rect{fill:#154245;stroke:hsl(183.75, 13.3333333333%, 7.6470588235%);stroke-width:1px;}#my-svg .cluster text{fill:#eabdba;}#my-svg .cluster span{color:#eabdba;}#my-svg div.mermaidTooltip{position:absolute;text-align:center;max-width:200px;padding:2px;font-family:"trebuchet ms",verdana,arial,sans-serif;font-size:12px;background:#154245;border:1px solid hsl(183.75, 13.3333333333%, 7.6470588235%);border-radius:2px;pointer-events:none;z-index:100;}#my-svg .flowchartTitleText{text-anchor:middle;font-size:18px;fill:#F7F7F7;}#my-svg rect.text{fill:none;stroke-width:0;}#my-svg .icon-shape,#my-svg .image-shape{background-color:#031819;text-align:center;}#my-svg .icon-shape p,#my-svg .image-shape p{background-color:#031819;padding:2px;}#my-svg .icon-shape rect,#my-svg .image-shape rect{opacity:0.5;background-color:#031819;fill:#031819;}#my-svg .label-icon{display:inline-block;height:1em;overflow:visible;vertical-align:-0.125em;}#my-svg .node .label-icon path{fill:currentColor;stroke:revert;stroke-width:revert;}#my-svg :root{--mermaid-font-family:"trebuchet ms",verdana,arial,sans-serif;}</style><g><marker id="my-svg_flowchart-v2-pointEnd" class="marker flowchart-v2" viewBox="0 0 10 10" refX="5" refY="5" markerUnits="userSpaceOnUse" markerWidth="8" markerHeight="8" orient="auto"><path d="M 0 0 L 10 5 L 0 10 z" class="arrowMarkerPath" style="stroke-width: 1; stroke-dasharray: 1, 0;"/></marker><marker id="my-svg_flowchart-v2-pointStart" class="marker flowchart-v2" viewBox="0 0 10 10" refX="4.5" refY="5" markerUnits="userSpaceOnUse" markerWidth="8" markerHeight="8" orient="auto"><path d="M 0 5 L 10 10 L 10 0 z" class="arrowMarkerPath" style="stroke-width: 1; stroke-dasharray: 1, 0;"/></marker><marker id="my-svg_flowchart-v2-circleEnd" class="marker flowchart-v2" viewBox="0 0 10 10" refX="11" refY="5" markerUnits="userSpaceOnUse" markerWidth="11" markerHeight="11" orient="auto"><circle cx="5" cy="5" r="5" class="arrowMarkerPath" style="stroke-width: 1; stroke-dasharray: 1, 0;"/></marker><marker id="my-svg_flowchart-v2-circleStart" class="marker flowchart-v2" viewBox="0 0 10 10" refX="-1" refY="5" markerUnits="userSpaceOnUse" markerWidth="11" markerHeight="11" orient="auto"><circle cx="5" cy="5" r="5" class="arrowMarkerPath" style="stroke-width: 1; stroke-dasharray: 1, 0;"/></marker><marker id="my-svg_flowchart-v2-crossEnd" class="marker cross flowchart-v2" viewBox="0 0 11 11" refX="12" refY="5.2" markerUnits="userSpaceOnUse" markerWidth="11" markerHeight="11" orient="auto"><path d="M 1,1 l 9,9 M 10,1 l -9,9" class="arrowMarkerPath" style="stroke-width: 2; stroke-dasharray: 1, 0;"/></marker><marker id="my-svg_flowchart-v2-crossStart" class="marker cross flowchart-v2" viewBox="0 0 11 11" refX="-1" refY="5.2" markerUnits="userSpaceOnUse" markerWidth="11" markerHeight="11" orient="auto"><path d="M 1,1 l 9,9 M 10,1 l -9,9" class="arrowMarkerPath" style="stroke-width: 2; stroke-dasharray: 1, 0;"/></marker><g class="root"><g class="clusters"><g class="cluster" id="Features" data-look="classic"><rect style="" x="8" y="295.0643539428711" width="389.90625" height="154"/><g class="cluster-label" transform="translate(171.3828125, 295.0643539428711)"><foreignObject width="63.140625" height="24"><div xmlns="http://www.w3.org/1999/xhtml" style="display: table-cell; white-space: nowrap; line-height: 1.5; max-width: 200px; text-align: center;"><span class="nodeLabel"><p>Features</p></span></div></foreignObject></g></g><g class="cluster" id="Layers" data-look="classic"><rect style="" x="53.66796875" y="8" width="549.7265625" height="213.0643539428711"/><g class="cluster-label" transform="translate(304.515625, 8)"><foreignObject width="48.03125" height="24"><div xmlns="http://www.w3.org/1999/xhtml" style="display: table-cell; white-space: nowrap; line-height: 1.5; max-width: 200px; text-align: center;"><span class="nodeLabel"><p>Layers</p></span></div></foreignObject></g></g><g class="cluster" id="Abstraction" data-look="classic"><rect style="" x="28" y="320.0643539428711" width="349.90625" height="104"/><g class="cluster-label" transform="translate(162.9296875, 320.0643539428711)"><foreignObject width="80.046875" height="24"><div xmlns="http://www.w3.org/1999/xhtml" style="display: table-cell; white-space: nowrap; line-height: 1.5; max-width: 200px; text-align: center;"><span class="nodeLabel"><p>Abstraction</p></span></div></foreignObject></g></g><g class="cluster" id="DL" data-look="classic"><rect style="" x="73.66796875" y="33" width="265.0234375" height="163.0643539428711"/><g class="cluster-label" transform="translate(156.375, 33)"><foreignObject width="99.609375" height="24"><div xmlns="http://www.w3.org/1999/xhtml" style="display: table-cell; white-space: nowrap; line-height: 1.5; max-width: 200px; text-align: center;"><span class="nodeLabel"><p>Domain Layer</p></span></div></foreignObject></g></g></g><g class="edgePaths"><path d="M186.239,139.187L176.65,148.667C167.06,158.146,147.882,177.105,138.292,190.752C128.703,204.398,128.703,212.731,128.703,223.064C128.703,233.398,128.703,245.731,128.703,258.064C128.703,270.398,128.703,282.731,128.703,293.064C128.703,303.398,128.703,311.731,128.773,319.481C128.844,327.231,128.984,334.398,129.054,337.982L129.125,341.565" id="L_D_A_0" class="edge-thickness-normal edge-pattern-dotted edge-thickness-normal edge-pattern-solid flowchart-link" style=";" data-edge="true" data-et="edge" data-id="L_D_A_0" data-points="W3sieCI6MTg2LjIzODg1MjE2Mzc1MjA2LCJ5IjoxMzkuMTg3NDMxMDA3Mzk3NTh9LHsieCI6MTI4LjcwMzEyNSwieSI6MTk2LjA2NDM1Mzk0Mjg3MTF9LHsieCI6MTI4LjcwMzEyNSwieSI6MjIxLjA2NDM1Mzk0Mjg3MTF9LHsieCI6MTI4LjcwMzEyNSwieSI6MjU4LjA2NDM1Mzk0Mjg3MTF9LHsieCI6MTI4LjcwMzEyNSwieSI6Mjk1LjA2NDM1Mzk0Mjg3MTF9LHsieCI6MTI4LjcwMzEyNSwieSI6MzIwLjA2NDM1Mzk0Mjg3MTF9LHsieCI6MTI5LjIwMzEyNSwieSI6MzQ1LjU2NDM1Mzk0Mjg3MTF9XQ==" marker-end="url(#my-svg_flowchart-v2-pointEnd)"/><path d="M236.121,139.187L245.71,148.667C255.299,158.146,274.478,177.105,284.067,190.752C293.656,204.398,293.656,212.731,293.656,223.064C293.656,233.398,293.656,245.731,293.656,258.064C293.656,270.398,293.656,282.731,293.656,293.064C293.656,303.398,293.656,311.731,293.727,319.481C293.797,327.231,293.937,334.398,294.008,337.982L294.078,341.565" id="L_D_Db_0" class="edge-thickness-normal edge-pattern-dotted edge-thickness-normal edge-pattern-solid flowchart-link" style=";" data-edge="true" data-et="edge" data-id="L_D_Db_0" data-points="W3sieCI6MjM2LjEyMDUyMjgzNjI0Nzk0LCJ5IjoxMzkuMTg3NDMxMDA3Mzk3NTh9LHsieCI6MjkzLjY1NjI1LCJ5IjoxOTYuMDY0MzUzOTQyODcxMX0seyJ4IjoyOTMuNjU2MjUsInkiOjIyMS4wNjQzNTM5NDI4NzExfSx7IngiOjI5My42NTYyNSwieSI6MjU4LjA2NDM1Mzk0Mjg3MTF9LHsieCI6MjkzLjY1NjI1LCJ5IjoyOTUuMDY0MzUzOTQyODcxMX0seyJ4IjoyOTMuNjU2MjUsInkiOjMyMC4wNjQzNTM5NDI4NzExfSx7IngiOjI5NC4xNTYyNSwieSI6MzQ1LjU2NDM1Mzk0Mjg3MTF9XQ==" marker-end="url(#my-svg_flowchart-v2-pointEnd)"/></g><g class="edgeLabels"><g class="edgeLabel" transform="translate(128.703125, 258.0643539428711)"><g class="label" data-id="L_D_A_0" transform="translate(-16.8984375, -12)"><foreignObject width="33.796875" height="24"><div xmlns="http://www.w3.org/1999/xhtml" class="labelBkg" style="display: table-cell; white-space: nowrap; line-height: 1.5; max-width: 200px; text-align: center;"><span class="edgeLabel"><p>uses</p></span></div></foreignObject></g></g><g class="edgeLabel" transform="translate(293.65625, 258.0643539428711)"><g class="label" data-id="L_D_Db_0" transform="translate(-16.8984375, -12)"><foreignObject width="33.796875" height="24"><div xmlns="http://www.w3.org/1999/xhtml" class="labelBkg" style="display: table-cell; white-space: nowrap; line-height: 1.5; max-width: 200px; text-align: center;"><span class="edgeLabel"><p>uses</p></span></div></foreignObject></g></g></g><g class="nodes"><g class="node default" id="flowchart-HS-0" transform="translate(412.75390625, 114.53217697143555)"><polygon points="0,0 62.125,0 62.125,-87 0,-87 0,0 -8,0 70.125,0 70.125,-87 -8,-87 -8,0" class="label-container" transform="translate(-31.0625,43.5)"/><g class="label" style="" transform="translate(-23.5625, -36)"><rect/><foreignObject width="47.125" height="72"><div xmlns="http://www.w3.org/1999/xhtml" style="display: table-cell; white-space: nowrap; line-height: 1.5; max-width: 200px; text-align: center;"><span class="nodeLabel"><p>HTTP<br />Server<br />Layer</p></span></div></foreignObject></g></g><g class="node default" id="flowchart-D-1" transform="translate(211.1796875, 114.53217697143555)"><circle class="basic label-container" style="" r="35.0703125" cx="0" cy="0"/><g class="label" style="" transform="translate(-27.5703125, -24)"><rect/><foreignObject width="55.140625" height="48"><div xmlns="http://www.w3.org/1999/xhtml" style="display: table-cell; white-space: nowrap; line-height: 1.5; max-width: 200px; text-align: center;"><span class="nodeLabel"><p>Domain<br />Objects</p></span></div></foreignObject></g></g><g class="node default" id="flowchart-DA-2" transform="translate(535.10546875, 114.53217697143555)"><path d="M0,8.688116793083761 a33.2890625,8.688116793083761 0,0,0 66.578125,0 a33.2890625,8.688116793083761 0,0,0 -66.578125,0 l0,95.68811679308376 a33.2890625,8.688116793083761 0,0,0 66.578125,0 l0,-95.68811679308376" class="basic label-container" style="" transform="translate(-33.2890625, -56.53217518962565)"/><g class="label" style="" transform="translate(-25.7890625, -26)"><rect/><foreignObject width="51.578125" height="72"><div xmlns="http://www.w3.org/1999/xhtml" style="display: table-cell; white-space: nowrap; line-height: 1.5; max-width: 200px; text-align: center;"><span class="nodeLabel"><p>Data<br />Access<br />Layer</p></span></div></foreignObject></g></g><g class="node default" id="flowchart-A-3" transform="translate(128.703125, 372.0643539428711)"><g class="basic label-container outer-path"><path d="M-60.703125 -27 C-35.805107259851155 -27, -10.90708951970231 -27, 60.703125 -27 C60.703125 -27, 60.703125 -27, 60.703125 -27 C60.84749017631347 -26.99402901214012, 60.99185535262695 -26.988058024280242, 61.11602172736166 -26.982922465033347 C61.2141740118013 -26.97068779553707, 61.31232629624093 -26.958453126040794, 61.52609795140367 -26.931806517013612 C61.674828197023196 -26.900621063942715, 61.82355844264273 -26.869435610871818, 61.930552435703994 -26.847001329696653 C62.03729745844266 -26.81522195952718, 62.14404248118133 -26.78344258935771, 62.32662234602342 -26.729086208503173 C62.44708051187129 -26.682083286333963, 62.56753867771916 -26.635080364164757, 62.711602123264846 -26.578866633275286 C62.7912517983887 -26.539928279794125, 62.870901473512546 -26.500989926312965, 63.082861965185366 -26.397368756032446 C63.182672548335226 -26.33789455770598, 63.28248313148509 -26.278420359379517, 63.437865790612136 -26.185832391312644 C63.55485263563367 -26.102305389418426, 63.67183948065521 -26.018778387524208, 63.77418856344834 -25.94570254698197 C63.87123607252001 -25.863507499590543, 63.968283581591685 -25.781312452199117, 64.0895328581287 -25.678619553365657 C64.17855861231921 -25.58959379917516, 64.26758436650971 -25.500568044984657, 64.38174455336566 -25.386407858128706 C64.4374450301588 -25.320642429451038, 64.49314550695193 -25.25487700077337, 64.64882754698196 -25.07106356344834 C64.71408865687113 -24.97965969194095, 64.77934976676029 -24.888255820433557, 64.88895739131264 -24.734740790612136 C64.96314548876308 -24.610237098630286, 65.03733358621349 -24.48573340664844, 65.10049375603245 -24.37973696518537 C65.14916113221452 -24.280186256039258, 65.19782850839657 -24.180635546893143, 65.28199163327528 -24.008477123264846 C65.31950778183106 -23.912331474523334, 65.35702393038684 -23.81618582578182, 65.43221120850318 -23.623497346023417 C65.45687828430432 -23.540642098948098, 65.48154536010547 -23.457786851872783, 65.55012632969665 -23.227427435703994 C65.56795886405281 -23.142380179575298, 65.58579139840897 -23.0573329234466, 65.63493151701361 -22.82297295140367 C65.64686642448835 -22.72722549916738, 65.65880133196309 -22.631478046931083, 65.68604746503335 -22.412896727361662 C65.69273250479121 -22.251267367873027, 65.69941754454908 -22.089638008384394, 65.703125 -22 C65.703125 -22, 65.703125 -22, 65.703125 -22 C65.703125 -12.822979764749595, 65.703125 -3.6459595294991907, 65.703125 22 C65.703125 22, 65.703125 22, 65.703125 22 C65.69655659671692 22.15880934952705, 65.68998819343382 22.3176186990541, 65.68604746503335 22.412896727361662 C65.67209716948716 22.52481257248394, 65.65814687394095 22.636728417606218, 65.63493151701361 22.82297295140367 C65.61256758521868 22.929631432885902, 65.59020365342377 23.036289914368137, 65.55012632969665 23.227427435703994 C65.5227546298815 23.319367354701217, 65.49538293006636 23.41130727369844, 65.43221120850318 23.623497346023417 C65.37656464822201 23.766107257872726, 65.32091808794087 23.908717169722035, 65.28199163327528 24.008477123264846 C65.24364345535281 24.086919574987775, 65.20529527743035 24.1653620267107, 65.10049375603245 24.379736965185366 C65.02314301031114 24.509548265795786, 64.94579226458983 24.639359566406206, 64.88895739131264 24.734740790612133 C64.8050531103579 24.852256047835507, 64.72114882940315 24.96977130505888, 64.64882754698196 25.07106356344834 C64.58805575714604 25.142816680121147, 64.52728396731011 25.214569796793956, 64.38174455336566 25.386407858128706 C64.2770191958928 25.491133215601558, 64.17229383841995 25.595858573074413, 64.0895328581287 25.678619553365657 C63.96690356194924 25.782481269214585, 63.844274265769776 25.886342985063514, 63.77418856344834 25.94570254698197 C63.655666310129604 26.030325809329444, 63.537144056810874 26.11494907167692, 63.437865790612136 26.185832391312644 C63.3586945288877 26.23300822350356, 63.27952326716327 26.280184055694477, 63.082861965185366 26.397368756032446 C62.95702144841538 26.458888436013844, 62.83118093164539 26.52040811599524, 62.711602123264846 26.578866633275286 C62.624817683079655 26.61273002691748, 62.538033242894464 26.646593420559668, 62.32662234602342 26.729086208503173 C62.17592357341202 26.77395117696758, 62.02522480080062 26.818816145431988, 61.930552435703994 26.847001329696653 C61.82804361024382 26.868495170121815, 61.72553478478364 26.889989010546973, 61.52609795140367 26.931806517013612 C61.394647707891295 26.948191772779797, 61.26319746437892 26.964577028545985, 61.11602172736166 26.982922465033347 C60.99225590944123 26.988041457127856, 60.8684900915208 26.993160449222362, 60.703125 27 C60.703125 27, 60.703125 27, 60.703125 27 C12.48757699641638 27, -35.72797100716724 27, -60.703125 27 C-60.703125 27, -60.703125 27, -60.703125 27 C-60.831344788012906 26.994696790339805, -60.95956457602581 26.98939358067961, -61.11602172736166 26.982922465033347 C-61.21480539030361 26.970609094288832, -61.31358905324556 26.95829572354432, -61.52609795140367 26.931806517013612 C-61.630476919713885 26.909920548868612, -61.7348558880241 26.888034580723616, -61.930552435703994 26.847001329696653 C-62.03441898507221 26.81607891817889, -62.13828553444042 26.785156506661124, -62.32662234602342 26.729086208503173 C-62.41127672709303 26.69605396650704, -62.49593110816264 26.663021724510905, -62.711602123264846 26.578866633275286 C-62.794647009155184 26.538268462390437, -62.87769189504552 26.497670291505592, -63.082861965185366 26.397368756032446 C-63.20263519915925 26.325999399730126, -63.322408433133134 26.254630043427802, -63.437865790612136 26.185832391312644 C-63.514938768246516 26.130803342980975, -63.592011745880896 26.075774294649303, -63.77418856344834 25.94570254698197 C-63.87017400922438 25.864407021317092, -63.96615945500042 25.783111495652214, -64.0895328581287 25.67861955336566 C-64.19308136441784 25.57507104707653, -64.29662987070697 25.4715225407874, -64.38174455336566 25.386407858128706 C-64.4565405068764 25.298096442694032, -64.53133646038712 25.209785027259354, -64.64882754698196 25.07106356344834 C-64.74273783312967 24.93953402398991, -64.83664811927738 24.80800448453148, -64.88895739131264 24.734740790612133 C-64.95807299774192 24.61874983694522, -65.02718860417119 24.502758883278307, -65.10049375603245 24.37973696518537 C-65.15334211179328 24.271633925614964, -65.20619046755412 24.16353088604456, -65.28199163327528 24.00847712326485 C-65.33852529115616 23.86359377510864, -65.39505894903702 23.71871042695243, -65.43221120850318 23.623497346023417 C-65.47862218145089 23.46760563589172, -65.5250331543986 23.31171392576002, -65.55012632969665 23.227427435703994 C-65.5821428807565 23.074733502022934, -65.61415943181635 22.92203956834187, -65.63493151701361 22.82297295140367 C-65.65056520440655 22.69755214356748, -65.66619889179948 22.572131335731292, -65.68604746503335 22.412896727361662 C-65.68961404266975 22.326664830497066, -65.69318062030612 22.24043293363247, -65.703125 22 C-65.703125 22, -65.703125 22, -65.703125 22 C-65.703125 6.884256219785824, -65.703125 -8.231487560428352, -65.703125 -22 C-65.703125 -22, -65.703125 -22, -65.703125 -22 C-65.6969232095047 -22.14994546954778, -65.69072141900939 -22.29989093909556, -65.68604746503335 -22.41289672736166 C-65.66716954241393 -22.564344319071044, -65.6482916197945 -22.71579191078043, -65.63493151701361 -22.82297295140367 C-65.6018853287438 -22.980577450109628, -65.56883914047401 -23.138181948815582, -65.55012632969665 -23.227427435703994 C-65.52168390513395 -23.322963855730507, -65.49324148057124 -23.41850027575702, -65.43221120850318 -23.623497346023417 C-65.38077439013591 -23.75531861397065, -65.32933757176865 -23.88713988191789, -65.28199163327528 -24.008477123264846 C-65.225177519071 -24.124692251390655, -65.16836340486671 -24.240907379516468, -65.10049375603245 -24.379736965185366 C-65.0313744921571 -24.49573405683878, -64.96225522828173 -24.611731148492197, -64.88895739131264 -24.734740790612133 C-64.7948292420295 -24.8665754663772, -64.70070109274633 -24.998410142142266, -64.64882754698196 -25.07106356344834 C-64.5503823942116 -25.187297535685715, -64.45193724144123 -25.303531507923093, -64.38174455336566 -25.386407858128706 C-64.29451288444255 -25.473639527051816, -64.20728121551944 -25.560871195974926, -64.0895328581287 -25.678619553365657 C-64.01393792981784 -25.7426451916793, -63.93834300150697 -25.806670829992946, -63.77418856344834 -25.945702546981966 C-63.66648889805922 -26.022598630069837, -63.558789232670094 -26.099494713157707, -63.437865790612136 -26.185832391312644 C-63.319991995383646 -26.25606992779098, -63.20211820015515 -26.326307464269316, -63.082861965185366 -26.397368756032446 C-62.94963155639919 -26.46250113408281, -62.81640114761302 -26.52763351213318, -62.711602123264846 -26.578866633275286 C-62.58412168637166 -26.628609654109212, -62.45664124947847 -26.678352674943135, -62.32662234602342 -26.729086208503173 C-62.20461027942222 -26.765410774559566, -62.08259821282102 -26.80173534061596, -61.930552435703994 -26.847001329696653 C-61.78642405600934 -26.87722187295219, -61.64229567631469 -26.907442416207733, -61.52609795140367 -26.931806517013612 C-61.3994710681658 -26.947590541548585, -61.272844184927926 -26.96337456608356, -61.11602172736166 -26.982922465033347 C-60.95705170057394 -26.989497513977096, -60.79808167378623 -26.996072562920848, -60.703125 -27 C-60.703125 -27, -60.703125 -27, -60.703125 -27" stroke="none" stroke-width="0" fill="#FA465B" style=""/><path d="M-60.703125 -27 C-15.744428050849962 -27, 29.214268898300077 -27, 60.703125 -27 M-60.703125 -27 C-24.828362141753814 -27, 11.046400716492371 -27, 60.703125 -27 M60.703125 -27 C60.703125 -27, 60.703125 -27, 60.703125 -27 M60.703125 -27 C60.703125 -27, 60.703125 -27, 60.703125 -27 M60.703125 -27 C60.81830993722448 -26.99523591575634, 60.933494874448954 -26.99047183151268, 61.11602172736166 -26.982922465033347 M60.703125 -27 C60.85763349520366 -26.993609481367542, 61.012141990407315 -26.987218962735085, 61.11602172736166 -26.982922465033347 M61.11602172736166 -26.982922465033347 C61.21510293352638 -26.970572005564794, 61.3141841396911 -26.95822154609624, 61.52609795140367 -26.931806517013612 M61.11602172736166 -26.982922465033347 C61.19873387048279 -26.97261240714531, 61.281446013603926 -26.962302349257275, 61.52609795140367 -26.931806517013612 M61.52609795140367 -26.931806517013612 C61.63166113449994 -26.909672245139383, 61.737224317596215 -26.887537973265157, 61.930552435703994 -26.847001329696653 M61.52609795140367 -26.931806517013612 C61.61868496936241 -26.91239306085008, 61.71127198732115 -26.89297960468654, 61.930552435703994 -26.847001329696653 M61.930552435703994 -26.847001329696653 C62.068556790551895 -26.80591565314527, 62.2065611453998 -26.76482997659389, 62.32662234602342 -26.729086208503173 M61.930552435703994 -26.847001329696653 C62.07316496405159 -26.80454374045375, 62.2157774923992 -26.762086151210845, 62.32662234602342 -26.729086208503173 M62.32662234602342 -26.729086208503173 C62.41936210370704 -26.69289904276217, 62.512101861390654 -26.656711877021166, 62.711602123264846 -26.578866633275286 M62.32662234602342 -26.729086208503173 C62.458585916045806 -26.677593863693886, 62.59054948606819 -26.6261015188846, 62.711602123264846 -26.578866633275286 M62.711602123264846 -26.578866633275286 C62.79613978375208 -26.53753868935833, 62.880677444239325 -26.49621074544137, 63.082861965185366 -26.397368756032446 M62.711602123264846 -26.578866633275286 C62.81799306731519 -26.526855270012536, 62.92438401136553 -26.474843906749786, 63.082861965185366 -26.397368756032446 M63.082861965185366 -26.397368756032446 C63.16800240719801 -26.34663606442739, 63.253142849210654 -26.295903372822334, 63.437865790612136 -26.185832391312644 M63.082861965185366 -26.397368756032446 C63.22395191051402 -26.313297396808473, 63.36504185584267 -26.2292260375845, 63.437865790612136 -26.185832391312644 M63.437865790612136 -26.185832391312644 C63.51278732255467 -26.132339445679914, 63.5877088544972 -26.078846500047185, 63.77418856344834 -25.94570254698197 M63.437865790612136 -26.185832391312644 C63.559498084981236 -26.098988602335382, 63.681130379350336 -26.01214481335812, 63.77418856344834 -25.94570254698197 M63.77418856344834 -25.94570254698197 C63.894816298365505 -25.843536067047754, 64.01544403328266 -25.74136958711354, 64.0895328581287 -25.678619553365657 M63.77418856344834 -25.94570254698197 C63.85365569195905 -25.878397322391667, 63.933122820469755 -25.811092097801367, 64.0895328581287 -25.678619553365657 M64.0895328581287 -25.678619553365657 C64.15532515224265 -25.612827259251713, 64.2211174463566 -25.54703496513777, 64.38174455336566 -25.386407858128706 M64.0895328581287 -25.678619553365657 C64.18272456454582 -25.58542784694854, 64.27591627096294 -25.49223614053142, 64.38174455336566 -25.386407858128706 M64.38174455336566 -25.386407858128706 C64.46807604258342 -25.2844764614214, 64.55440753180117 -25.182545064714088, 64.64882754698196 -25.07106356344834 M64.38174455336566 -25.386407858128706 C64.47398416973682 -25.27750074887285, 64.56622378610798 -25.16859363961699, 64.64882754698196 -25.07106356344834 M64.64882754698196 -25.07106356344834 C64.6982680037925 -25.001817895250966, 64.74770846060304 -24.932572227053594, 64.88895739131264 -24.734740790612136 M64.64882754698196 -25.07106356344834 C64.71709780646437 -24.97544511570658, 64.78536806594677 -24.87982666796482, 64.88895739131264 -24.734740790612136 M64.88895739131264 -24.734740790612136 C64.94660398831476 -24.63799731822764, 65.00425058531688 -24.541253845843148, 65.10049375603245 -24.37973696518537 M64.88895739131264 -24.734740790612136 C64.94731671839543 -24.63680120281992, 65.00567604547822 -24.538861615027702, 65.10049375603245 -24.37973696518537 M65.10049375603245 -24.37973696518537 C65.14660779749566 -24.285409185687183, 65.19272183895889 -24.191081406188996, 65.28199163327528 -24.008477123264846 M65.10049375603245 -24.37973696518537 C65.16863976402723 -24.240342077818116, 65.23678577202203 -24.10094719045086, 65.28199163327528 -24.008477123264846 M65.28199163327528 -24.008477123264846 C65.33971300989494 -23.86054991285042, 65.39743438651459 -23.712622702435993, 65.43221120850318 -23.623497346023417 M65.28199163327528 -24.008477123264846 C65.33016336025415 -23.885023567404886, 65.378335087233 -23.761570011544926, 65.43221120850318 -23.623497346023417 M65.43221120850318 -23.623497346023417 C65.45850355603683 -23.535182907431164, 65.48479590357047 -23.446868468838915, 65.55012632969665 -23.227427435703994 M65.43221120850318 -23.623497346023417 C65.4777282266301 -23.470608377203572, 65.52324524475702 -23.317719408383727, 65.55012632969665 -23.227427435703994 M65.55012632969665 -23.227427435703994 C65.57567007355081 -23.105603735120425, 65.60121381740498 -22.983780034536856, 65.63493151701361 -22.82297295140367 M65.55012632969665 -23.227427435703994 C65.57435886087569 -23.111857195116247, 65.59859139205473 -22.9962869545285, 65.63493151701361 -22.82297295140367 M65.63493151701361 -22.82297295140367 C65.65049422484503 -22.698121575059965, 65.66605693267645 -22.573270198716255, 65.68604746503335 -22.412896727361662 M65.63493151701361 -22.82297295140367 C65.65047344000993 -22.69828832080221, 65.66601536300627 -22.57360369020075, 65.68604746503335 -22.412896727361662 M65.68604746503335 -22.412896727361662 C65.6903576021625 -22.308687219456413, 65.69466773929167 -22.204477711551164, 65.703125 -22 M65.68604746503335 -22.412896727361662 C65.69033276432825 -22.309287742921963, 65.69461806362314 -22.205678758482264, 65.703125 -22 M65.703125 -22 C65.703125 -22, 65.703125 -22, 65.703125 -22 M65.703125 -22 C65.703125 -22, 65.703125 -22, 65.703125 -22 M65.703125 -22 C65.703125 -5.643503275713776, 65.703125 10.712993448572448, 65.703125 22 M65.703125 -22 C65.703125 -4.937563102022974, 65.703125 12.124873795954052, 65.703125 22 M65.703125 22 C65.703125 22, 65.703125 22, 65.703125 22 M65.703125 22 C65.703125 22, 65.703125 22, 65.703125 22 M65.703125 22 C65.69855669651623 22.110451394871998, 65.69398839303247 22.220902789743995, 65.68604746503335 22.412896727361662 M65.703125 22 C65.6996780938782 22.08333850640564, 65.69623118775642 22.166677012811277, 65.68604746503335 22.412896727361662 M65.68604746503335 22.412896727361662 C65.6723616074125 22.522691126827212, 65.65867574979163 22.632485526292758, 65.63493151701361 22.82297295140367 M65.68604746503335 22.412896727361662 C65.66870680322488 22.552011688392284, 65.6513661414164 22.691126649422905, 65.63493151701361 22.82297295140367 M65.63493151701361 22.82297295140367 C65.61260290241614 22.92946299744777, 65.59027428781867 23.035953043491872, 65.55012632969665 23.227427435703994 M65.63493151701361 22.82297295140367 C65.61477285081129 22.91911403900681, 65.59461418460897 23.015255126609954, 65.55012632969665 23.227427435703994 M65.55012632969665 23.227427435703994 C65.50571881322227 23.376589654166683, 65.4613112967479 23.525751872629368, 65.43221120850318 23.623497346023417 M65.55012632969665 23.227427435703994 C65.50890433363031 23.365889679731172, 65.46768233756396 23.50435192375835, 65.43221120850318 23.623497346023417 M65.43221120850318 23.623497346023417 C65.39994060284405 23.70619982044627, 65.36766999718492 23.78890229486912, 65.28199163327528 24.008477123264846 M65.43221120850318 23.623497346023417 C65.38542278603481 23.743405796250528, 65.33863436356643 23.863314246477636, 65.28199163327528 24.008477123264846 M65.28199163327528 24.008477123264846 C65.24042846411531 24.093495944677297, 65.19886529495534 24.17851476608975, 65.10049375603245 24.379736965185366 M65.28199163327528 24.008477123264846 C65.23679412895144 24.100930096078507, 65.1915966246276 24.193383068892167, 65.10049375603245 24.379736965185366 M65.10049375603245 24.379736965185366 C65.03510750935045 24.489469245652373, 64.96972126266847 24.59920152611938, 64.88895739131264 24.734740790612133 M65.10049375603245 24.379736965185366 C65.02150333087471 24.512300002941217, 64.94251290571695 24.644863040697068, 64.88895739131264 24.734740790612133 M64.88895739131264 24.734740790612133 C64.83514256952084 24.810113138165, 64.78132774772902 24.88548548571787, 64.64882754698196 25.07106356344834 M64.88895739131264 24.734740790612133 C64.83519060822564 24.810045855772636, 64.78142382513865 24.88535092093314, 64.64882754698196 25.07106356344834 M64.64882754698196 25.07106356344834 C64.54577941810042 25.19273225931059, 64.44273128921888 25.314400955172836, 64.38174455336566 25.386407858128706 M64.64882754698196 25.07106356344834 C64.54287554590768 25.19616085472981, 64.43692354483338 25.32125814601128, 64.38174455336566 25.386407858128706 M64.38174455336566 25.386407858128706 C64.31693428227524 25.45121812921913, 64.25212401118482 25.51602840030955, 64.0895328581287 25.678619553365657 M64.38174455336566 25.386407858128706 C64.31683074188699 25.451321669607385, 64.2519169304083 25.516235481086067, 64.0895328581287 25.678619553365657 M64.0895328581287 25.678619553365657 C63.97223796090126 25.777963263766942, 63.854943063673815 25.87730697416823, 63.77418856344834 25.94570254698197 M64.0895328581287 25.678619553365657 C64.0029069152027 25.751987984479854, 63.91628097227671 25.825356415594054, 63.77418856344834 25.94570254698197 M63.77418856344834 25.94570254698197 C63.65754516818683 26.02898433046081, 63.54090177292532 26.11226611393965, 63.437865790612136 26.185832391312644 M63.77418856344834 25.94570254698197 C63.690467923776126 26.005477934780476, 63.60674728410392 26.06525332257898, 63.437865790612136 26.185832391312644 M63.437865790612136 26.185832391312644 C63.32682685723977 26.251997234127273, 63.21578792386741 26.3181620769419, 63.082861965185366 26.397368756032446 M63.437865790612136 26.185832391312644 C63.34826417323926 26.239223366436047, 63.25866255586638 26.292614341559446, 63.082861965185366 26.397368756032446 M63.082861965185366 26.397368756032446 C62.95564608058184 26.459560812376782, 62.828430195978314 26.521752868721116, 62.711602123264846 26.578866633275286 M63.082861965185366 26.397368756032446 C62.98093785929519 26.447196415181484, 62.87901375340502 26.497024074330522, 62.711602123264846 26.578866633275286 M62.711602123264846 26.578866633275286 C62.59887327751976 26.62285356538143, 62.486144431774676 26.666840497487573, 62.32662234602342 26.729086208503173 M62.711602123264846 26.578866633275286 C62.5854975618499 26.628072785831638, 62.45939300043495 26.677278938387992, 62.32662234602342 26.729086208503173 M62.32662234602342 26.729086208503173 C62.214995820440336 26.762318865035756, 62.10336929485726 26.79555152156834, 61.930552435703994 26.847001329696653 M62.32662234602342 26.729086208503173 C62.18976044591123 26.769831761543248, 62.052898545799046 26.810577314583327, 61.930552435703994 26.847001329696653 M61.930552435703994 26.847001329696653 C61.808571124220755 26.872578121081226, 61.686589812737516 26.8981549124658, 61.52609795140367 26.931806517013612 M61.930552435703994 26.847001329696653 C61.77170872259251 26.88030735390317, 61.61286500948103 26.913613378109687, 61.52609795140367 26.931806517013612 M61.52609795140367 26.931806517013612 C61.37136081229823 26.951094481288337, 61.216623673192785 26.97038244556306, 61.11602172736166 26.982922465033347 M61.52609795140367 26.931806517013612 C61.43738479064628 26.94286460096992, 61.34867162988889 26.953922684926223, 61.11602172736166 26.982922465033347 M61.11602172736166 26.982922465033347 C61.02159908679276 26.98682781433525, 60.927176446223854 26.99073316363715, 60.703125 27 M61.11602172736166 26.982922465033347 C61.00384062437628 26.987562309773875, 60.891659521390906 26.992202154514406, 60.703125 27 M60.703125 27 C60.703125 27, 60.703125 27, 60.703125 27 M60.703125 27 C60.703125 27, 60.703125 27, 60.703125 27 M60.703125 27 C12.859162975485127 27, -34.984799049029746 27, -60.703125 27 M60.703125 27 C35.88376363504145 27, 11.064402270082887 27, -60.703125 27 M-60.703125 27 C-60.703125 27, -60.703125 27, -60.703125 27 M-60.703125 27 C-60.703125 27, -60.703125 27, -60.703125 27 M-60.703125 27 C-60.86118403837336 26.993462629815777, -61.01924307674672 26.98692525963156, -61.11602172736166 26.982922465033347 M-60.703125 27 C-60.79217599298716 26.9963168236855, -60.881226985974315 26.992633647370997, -61.11602172736166 26.982922465033347 M-61.11602172736166 26.982922465033347 C-61.23538087663951 26.968044362591737, -61.35474002591736 26.953166260150123, -61.52609795140367 26.931806517013612 M-61.11602172736166 26.982922465033347 C-61.247071031102 26.966587186357625, -61.37812033484234 26.950251907681903, -61.52609795140367 26.931806517013612 M-61.52609795140367 26.931806517013612 C-61.65857396447914 26.904029218108633, -61.791049977554614 26.876251919203654, -61.930552435703994 26.847001329696653 M-61.52609795140367 26.931806517013612 C-61.62592217889008 26.910875577589362, -61.72574640637649 26.889944638165115, -61.930552435703994 26.847001329696653 M-61.930552435703994 26.847001329696653 C-62.04827347797549 26.811954256932978, -62.16599452024699 26.776907184169307, -62.32662234602342 26.729086208503173 M-61.930552435703994 26.847001329696653 C-62.052587102298396 26.81067003533077, -62.17462176889279 26.774338740964883, -62.32662234602342 26.729086208503173 M-62.32662234602342 26.729086208503173 C-62.429780116894435 26.68883392140192, -62.53293788776544 26.648581634300662, -62.711602123264846 26.578866633275286 M-62.32662234602342 26.729086208503173 C-62.47607720961333 26.670768739764707, -62.62553207320324 26.612451271026245, -62.711602123264846 26.578866633275286 M-62.711602123264846 26.578866633275286 C-62.82046971523624 26.525644510620882, -62.92933730720764 26.47242238796648, -63.082861965185366 26.397368756032446 M-62.711602123264846 26.578866633275286 C-62.816668527154995 26.527502798240086, -62.92173493104514 26.476138963204882, -63.082861965185366 26.397368756032446 M-63.082861965185366 26.397368756032446 C-63.20423597369931 26.3250455451441, -63.32560998221325 26.252722334255754, -63.437865790612136 26.185832391312644 M-63.082861965185366 26.397368756032446 C-63.193791182732475 26.331269289659318, -63.30472040027959 26.265169823286193, -63.437865790612136 26.185832391312644 M-63.437865790612136 26.185832391312644 C-63.5621340705436 26.097106544818402, -63.68640235047506 26.008380698324157, -63.77418856344834 25.94570254698197 M-63.437865790612136 26.185832391312644 C-63.5161388397 26.129946508432184, -63.59441188878787 26.074060625551724, -63.77418856344834 25.94570254698197 M-63.77418856344834 25.94570254698197 C-63.862900599023945 25.870567285520064, -63.951612634599556 25.795432024058158, -64.0895328581287 25.67861955336566 M-63.77418856344834 25.94570254698197 C-63.84915644871579 25.882207987035645, -63.92412433398324 25.81871342708932, -64.0895328581287 25.67861955336566 M-64.0895328581287 25.67861955336566 C-64.17838274069125 25.589769670803115, -64.2672326232538 25.50091978824057, -64.38174455336566 25.386407858128706 M-64.0895328581287 25.67861955336566 C-64.18127670333976 25.586875708154608, -64.27302054855082 25.495131862943555, -64.38174455336566 25.386407858128706 M-64.38174455336566 25.386407858128706 C-64.48822934631411 25.26068150067011, -64.59471413926258 25.134955143211513, -64.64882754698196 25.07106356344834 M-64.38174455336566 25.386407858128706 C-64.45603376284473 25.298694754241637, -64.53032297232377 25.210981650354572, -64.64882754698196 25.07106356344834 M-64.64882754698196 25.07106356344834 C-64.7343485244685 24.951283981846956, -64.81986950195504 24.831504400245567, -64.88895739131264 24.734740790612133 M-64.64882754698196 25.07106356344834 C-64.70192090797653 24.996701684612916, -64.75501426897111 24.922339805777487, -64.88895739131264 24.734740790612133 M-64.88895739131264 24.734740790612133 C-64.94269175228177 24.64456289743442, -64.9964261132509 24.5543850042567, -65.10049375603245 24.37973696518537 M-64.88895739131264 24.734740790612133 C-64.97219551783267 24.595049190186316, -65.05543364435272 24.4553575897605, -65.10049375603245 24.37973696518537 M-65.10049375603245 24.37973696518537 C-65.16877768919419 24.24005994737969, -65.23706162235594 24.100382929574014, -65.28199163327528 24.00847712326485 M-65.10049375603245 24.37973696518537 C-65.14963497633988 24.279216992388598, -65.19877619664733 24.178697019591826, -65.28199163327528 24.00847712326485 M-65.28199163327528 24.00847712326485 C-65.31629713018981 23.92055966949577, -65.35060262710432 23.83264221572669, -65.43221120850318 23.623497346023417 M-65.28199163327528 24.00847712326485 C-65.3297138613591 23.88617553434542, -65.37743608944292 23.763873945425992, -65.43221120850318 23.623497346023417 M-65.43221120850318 23.623497346023417 C-65.47562503737487 23.47767286538179, -65.51903886624656 23.33184838474017, -65.55012632969665 23.227427435703994 M-65.43221120850318 23.623497346023417 C-65.46420925723223 23.516017794951114, -65.49620730596128 23.40853824387881, -65.55012632969665 23.227427435703994 M-65.55012632969665 23.227427435703994 C-65.58403563368577 23.065706549378465, -65.61794493767489 22.903985663052936, -65.63493151701361 22.82297295140367 M-65.55012632969665 23.227427435703994 C-65.57395958329674 23.113761437208023, -65.59779283689682 23.00009543871205, -65.63493151701361 22.82297295140367 M-65.63493151701361 22.82297295140367 C-65.64629547992257 22.73180588553881, -65.65765944283153 22.64063881967395, -65.68604746503335 22.412896727361662 M-65.63493151701361 22.82297295140367 C-65.64724377477256 22.724198217356445, -65.65955603253151 22.625423483309216, -65.68604746503335 22.412896727361662 M-65.68604746503335 22.412896727361662 C-65.69075598779241 22.299055142980738, -65.69546451055147 22.185213558599813, -65.703125 22 M-65.68604746503335 22.412896727361662 C-65.69020399832146 22.312401017929222, -65.69436053160958 22.21190530849678, -65.703125 22 M-65.703125 22 C-65.703125 22, -65.703125 22, -65.703125 22 M-65.703125 22 C-65.703125 22, -65.703125 22, -65.703125 22 M-65.703125 22 C-65.703125 5.795404845253611, -65.703125 -10.409190309492779, -65.703125 -22 M-65.703125 22 C-65.703125 7.848418689895766, -65.703125 -6.303162620208468, -65.703125 -22 M-65.703125 -22 C-65.703125 -22, -65.703125 -22, -65.703125 -22 M-65.703125 -22 C-65.703125 -22, -65.703125 -22, -65.703125 -22 M-65.703125 -22 C-65.6992881204418 -22.09276719479422, -65.69545124088363 -22.185534389588437, -65.68604746503335 -22.41289672736166 M-65.703125 -22 C-65.69952100230105 -22.087136630562807, -65.69591700460212 -22.174273261125617, -65.68604746503335 -22.41289672736166 M-65.68604746503335 -22.41289672736166 C-65.6663120399504 -22.571223607942144, -65.64657661486746 -22.729550488522634, -65.63493151701361 -22.82297295140367 M-65.68604746503335 -22.41289672736166 C-65.66629054466743 -22.57139605323209, -65.64653362430151 -22.72989537910252, -65.63493151701361 -22.82297295140367 M-65.63493151701361 -22.82297295140367 C-65.60108875941201 -22.984376463454147, -65.56724600181042 -23.145779975504624, -65.55012632969665 -23.227427435703994 M-65.63493151701361 -22.82297295140367 C-65.6049557668757 -22.965933859186695, -65.5749800167378 -23.108894766969723, -65.55012632969665 -23.227427435703994 M-65.55012632969665 -23.227427435703994 C-65.51310236243243 -23.35178874955064, -65.47607839516822 -23.476150063397288, -65.43221120850318 -23.623497346023417 M-65.55012632969665 -23.227427435703994 C-65.50601291841927 -23.375601772223987, -65.46189950714188 -23.523776108743984, -65.43221120850318 -23.623497346023417 M-65.43221120850318 -23.623497346023417 C-65.37481557371821 -23.77058975166115, -65.31741993893323 -23.91768215729888, -65.28199163327528 -24.008477123264846 M-65.43221120850318 -23.623497346023417 C-65.37977452668356 -23.757881044390075, -65.32733784486396 -23.89226474275673, -65.28199163327528 -24.008477123264846 M-65.28199163327528 -24.008477123264846 C-65.21545935376322 -24.144571076260295, -65.14892707425116 -24.280665029255744, -65.10049375603245 -24.379736965185366 M-65.28199163327528 -24.008477123264846 C-65.24096015605488 -24.09240835143138, -65.19992867883448 -24.17633957959792, -65.10049375603245 -24.379736965185366 M-65.10049375603245 -24.379736965185366 C-65.02013288433876 -24.51459990898076, -64.93977201264508 -24.64946285277615, -64.88895739131264 -24.734740790612133 M-65.10049375603245 -24.379736965185366 C-65.04097079234137 -24.47962938717656, -64.98144782865027 -24.57952180916775, -64.88895739131264 -24.734740790612133 M-64.88895739131264 -24.734740790612133 C-64.79844425110399 -24.861512331142386, -64.70793111089532 -24.988283871672635, -64.64882754698196 -25.07106356344834 M-64.88895739131264 -24.734740790612133 C-64.79428311234436 -24.8673403685931, -64.69960883337606 -24.99993994657407, -64.64882754698196 -25.07106356344834 M-64.64882754698196 -25.07106356344834 C-64.56761447080271 -25.166951661300654, -64.48640139462346 -25.26283975915297, -64.38174455336566 -25.386407858128706 M-64.64882754698196 -25.07106356344834 C-64.55344683148583 -25.183679361433025, -64.4580661159897 -25.29629515941771, -64.38174455336566 -25.386407858128706 M-64.38174455336566 -25.386407858128706 C-64.31049909506729 -25.457653316427077, -64.23925363676892 -25.528898774725448, -64.0895328581287 -25.678619553365657 M-64.38174455336566 -25.386407858128706 C-64.31289561020368 -25.45525680129068, -64.24404666704172 -25.52410574445266, -64.0895328581287 -25.678619553365657 M-64.0895328581287 -25.678619553365657 C-64.01886810053371 -25.738469550083604, -63.94820334293871 -25.798319546801547, -63.77418856344834 -25.945702546981966 M-64.0895328581287 -25.678619553365657 C-64.02261356086215 -25.735297307002412, -63.9556942635956 -25.79197506063917, -63.77418856344834 -25.945702546981966 M-63.77418856344834 -25.945702546981966 C-63.67347382590542 -26.01761148744425, -63.57275908836249 -26.08952042790653, -63.437865790612136 -26.185832391312644 M-63.77418856344834 -25.945702546981966 C-63.67884390798494 -26.01377732253497, -63.583499252521534 -26.081852098087975, -63.437865790612136 -26.185832391312644 M-63.437865790612136 -26.185832391312644 C-63.332898289164255 -26.248379445962865, -63.227930787716375 -26.310926500613082, -63.082861965185366 -26.397368756032446 M-63.437865790612136 -26.185832391312644 C-63.3178431137247 -26.257350383329168, -63.19782043683726 -26.328868375345696, -63.082861965185366 -26.397368756032446 M-63.082861965185366 -26.397368756032446 C-62.950776132782934 -26.461941584784626, -62.8186903003805 -26.526514413536802, -62.711602123264846 -26.578866633275286 M-63.082861965185366 -26.397368756032446 C-62.960722208588095 -26.457079244607474, -62.83858245199082 -26.516789733182506, -62.711602123264846 -26.578866633275286 M-62.711602123264846 -26.578866633275286 C-62.59936158314513 -26.62266302793515, -62.48712104302542 -26.666459422595015, -62.32662234602342 -26.729086208503173 M-62.711602123264846 -26.578866633275286 C-62.6220338529685 -26.613816280797618, -62.532465582672145 -26.648765928319953, -62.32662234602342 -26.729086208503173 M-62.32662234602342 -26.729086208503173 C-62.23546855828932 -26.75622386690101, -62.14431477055522 -26.78336152529885, -61.930552435703994 -26.847001329696653 M-62.32662234602342 -26.729086208503173 C-62.24148286525782 -26.754433330138163, -62.15634338449222 -26.77978045177315, -61.930552435703994 -26.847001329696653 M-61.930552435703994 -26.847001329696653 C-61.76930549313054 -26.88081125813121, -61.60805855055708 -26.914621186565764, -61.52609795140367 -26.931806517013612 M-61.930552435703994 -26.847001329696653 C-61.80627219030209 -26.873060156833503, -61.681991944900176 -26.899118983970357, -61.52609795140367 -26.931806517013612 M-61.52609795140367 -26.931806517013612 C-61.42685732126603 -26.944176848659666, -61.327616691128384 -26.956547180305723, -61.11602172736166 -26.982922465033347 M-61.52609795140367 -26.931806517013612 C-61.39305165012786 -26.948390721172533, -61.26000534885205 -26.964974925331457, -61.11602172736166 -26.982922465033347 M-61.11602172736166 -26.982922465033347 C-60.98101764919691 -26.98850627500983, -60.846013571032145 -26.994090084986315, -60.703125 -27 M-61.11602172736166 -26.982922465033347 C-60.98554635354122 -26.988318966412624, -60.85507097972077 -26.993715467791898, -60.703125 -27 M-60.703125 -27 C-60.703125 -27, -60.703125 -27, -60.703125 -27 M-60.703125 -27 C-60.703125 -27, -60.703125 -27, -60.703125 -27" stroke="hsl(353, 54.7368421053%, 52.7450980392%)" stroke-width="1.3" fill="none" stroke-dasharray="0 0" style=""/></g><g class="label" style="" transform="translate(-50.703125, -12)"><rect/><foreignObject width="101.40625" height="24"><div xmlns="http://www.w3.org/1999/xhtml" style="display: table-cell; white-space: nowrap; line-height: 1.5; max-width: 200px; text-align: center;"><span class="nodeLabel"><p>Authentication</p></span></div></foreignObject></g></g><g class="node default" id="flowchart-Db-4" transform="translate(293.65625, 372.0643539428711)"><g class="basic label-container outer-path"><path d="M-44.25 -27 C-9.075891334520435 -27, 26.09821733095913 -27, 44.25 -27 C44.25 -27, 44.25 -27, 44.25 -27 C44.3447498307406 -26.996081118012494, 44.4394996614812 -26.992162236024992, 44.66289672736166 -26.982922465033347 C44.809373391043906 -26.96466416794632, 44.95585005472614 -26.94640587085929, 45.07297295140367 -26.931806517013612 C45.22657287324055 -26.899600000214125, 45.38017279507743 -26.867393483414634, 45.477427435703994 -26.847001329696653 C45.568289464517235 -26.819950531692943, 45.65915149333048 -26.792899733689232, 45.87349734602342 -26.729086208503173 C46.022747180936946 -26.670848742202487, 46.17199701585048 -26.612611275901802, 46.258477123264846 -26.578866633275286 C46.34189888172007 -26.53808422062014, 46.425320640175286 -26.49730180796499, 46.629736965185366 -26.397368756032446 C46.722373848516646 -26.34216915497092, 46.815010731847934 -26.2869695539094, 46.984740790612136 -26.185832391312644 C47.06865645561408 -26.12591775810511, 47.15257212061603 -26.066003124897573, 47.32106356344834 -25.94570254698197 C47.42085555235574 -25.861183043740823, 47.520647541263145 -25.776663540499673, 47.636407858128706 -25.678619553365657 C47.74279490857127 -25.572232502923093, 47.84918195901383 -25.465845452480526, 47.92861955336566 -25.386407858128706 C48.025433650363055 -25.272099669803467, 48.12224774736046 -25.15779148147823, 48.19570254698197 -25.07106356344834 C48.254618861147755 -24.988546131261778, 48.31353517531354 -24.906028699075215, 48.435832391312644 -24.734740790612136 C48.48755139491507 -24.64794510349497, 48.5392703985175 -24.561149416377802, 48.64736875603245 -24.37973696518537 C48.70888734558358 -24.253898678926156, 48.7704059351347 -24.128060392666946, 48.82886663327529 -24.008477123264846 C48.866778781082374 -23.911316615419082, 48.904690928889465 -23.814156107573318, 48.979086208503176 -23.623497346023417 C49.01783652532217 -23.493337326239665, 49.05658684214116 -23.363177306455913, 49.09700132969665 -23.227427435703994 C49.118132285898234 -23.12664928446497, 49.13926324209981 -23.025871133225948, 49.18180651701361 -22.82297295140367 C49.1980819314824 -22.6924039065431, 49.214357345951186 -22.561834861682527, 49.23292246503335 -22.412896727361662 C49.23919299952359 -22.26128918125596, 49.24546353401383 -22.109681635150256, 49.25 -22 C49.25 -22, 49.25 -22, 49.25 -22 C49.25 -4.772520807126476, 49.25 12.454958385747048, 49.25 22 C49.25 22, 49.25 22, 49.25 22 C49.24337037162784 22.160289635701684, 49.23674074325569 22.32057927140337, 49.23292246503335 22.412896727361662 C49.21894436153047 22.52503566101728, 49.20496625802759 22.6371745946729, 49.18180651701361 22.82297295140367 C49.15826992877225 22.935224087926386, 49.13473334053088 23.0474752244491, 49.09700132969665 23.227427435703994 C49.073253691517436 23.30719434624728, 49.04950605333822 23.386961256790567, 48.979086208503176 23.623497346023417 C48.93145942375581 23.74555433463459, 48.883832639008446 23.867611323245765, 48.82886663327529 24.008477123264846 C48.79031183321891 24.08734222731815, 48.75175703316252 24.166207331371453, 48.64736875603245 24.379736965185366 C48.56557656550128 24.51700197192339, 48.48378437497011 24.654266978661408, 48.435832391312644 24.734740790612133 C48.34656095883289 24.859773211260798, 48.25728952635314 24.98480563190946, 48.19570254698197 25.07106356344834 C48.130072003981425 25.14855339914237, 48.06444146098087 25.226043234836396, 47.92861955336566 25.386407858128706 C47.867375028927185 25.44765238256718, 47.806130504488706 25.508896907005656, 47.636407858128706 25.678619553365657 C47.569473810919 25.735309799567013, 47.5025397637093 25.792000045768372, 47.32106356344834 25.94570254698197 C47.21793054749877 26.019338105039722, 47.11479753154919 26.092973663097474, 46.984740790612136 26.185832391312644 C46.869107730053784 26.254734739738137, 46.75347466949543 26.32363708816363, 46.629736965185366 26.397368756032446 C46.48393526926703 26.468646861875225, 46.338133573348685 26.539924967718008, 46.258477123264846 26.578866633275286 C46.107204990650416 26.637893202587538, 45.95593285803599 26.696919771899786, 45.87349734602342 26.729086208503173 C45.72077652462602 26.774553166973508, 45.568055703228616 26.82002012544384, 45.477427435703994 26.847001329696653 C45.32600903968683 26.878750428633417, 45.17459064366967 26.91049952757018, 45.07297295140367 26.931806517013612 C44.9550691798018 26.946503206817102, 44.83716540819992 26.96119989662059, 44.66289672736166 26.982922465033347 C44.52927864121188 26.988448949956055, 44.39566055506211 26.993975434878767, 44.25 27 C44.25 27, 44.25 27, 44.25 27 C25.53377478809238 27, 6.81754957618476 27, -44.25 27 C-44.25 27, -44.25 27, -44.25 27 C-44.36485611841234 26.99524951580301, -44.479712236824675 26.990499031606017, -44.66289672736166 26.982922465033347 C-44.807572501013574 26.964888648654497, -44.952248274665486 26.946854832275644, -45.07297295140367 26.931806517013612 C-45.1985663461029 26.90547235142347, -45.32415974080212 26.879138185833327, -45.477427435703994 26.847001329696653 C-45.58564775637863 26.814782744301827, -45.69386807705327 26.782564158907004, -45.87349734602342 26.729086208503173 C-45.98810991762522 26.68436424428685, -46.10272248922702 26.63964228007053, -46.258477123264846 26.578866633275286 C-46.38817876129037 26.51545936613113, -46.51788039931589 26.45205209898697, -46.629736965185366 26.397368756032446 C-46.75020524998415 26.325585239334483, -46.870673534782924 26.253801722636517, -46.984740790612136 26.185832391312644 C-47.10791178504332 26.09788999160717, -47.231082779474505 26.009947591901696, -47.32106356344834 25.94570254698197 C-47.39223359007132 25.885424609226714, -47.4634036166943 25.825146671471458, -47.636407858128706 25.67861955336566 C-47.73168591186443 25.583341499629935, -47.82696396560016 25.48806344589421, -47.92861955336566 25.386407858128706 C-48.026156729398366 25.271245931999726, -48.12369390543107 25.15608400587075, -48.19570254698197 25.07106356344834 C-48.25117059316757 24.993375731063544, -48.306638639353174 24.91568789867875, -48.435832391312644 24.734740790612133 C-48.51478511390564 24.602241025923927, -48.59373783649864 24.469741261235722, -48.64736875603244 24.37973696518537 C-48.71873004849308 24.233765108320448, -48.79009134095371 24.087793251455526, -48.82886663327528 24.00847712326485 C-48.863730277632406 23.919129260191283, -48.89859392198954 23.829781397117713, -48.979086208503176 23.623497346023417 C-49.01412135400502 23.50581636671818, -49.04915649950687 23.38813538741294, -49.09700132969665 23.227427435703994 C-49.122690859655584 23.104908449304933, -49.14838038961451 22.98238946290587, -49.18180651701361 22.82297295140367 C-49.199867881267316 22.678076175717422, -49.21792924552101 22.533179400031173, -49.23292246503335 22.412896727361662 C-49.23950558126899 22.253731651438937, -49.24608869750464 22.09456657551621, -49.25 22 C-49.25 22, -49.25 22, -49.25 22 C-49.25 7.351165277199911, -49.25 -7.297669445600178, -49.25 -22 C-49.25 -22, -49.25 -22, -49.25 -22 C-49.24364495329425 -22.15365086308764, -49.237289906588494 -22.307301726175282, -49.23292246503335 -22.41289672736166 C-49.22040934536978 -22.513282870266387, -49.20789622570622 -22.613669013171116, -49.18180651701361 -22.82297295140367 C-49.16092495137904 -22.92256170448961, -49.14004338574446 -23.02215045757555, -49.09700132969665 -23.227427435703994 C-49.05078996391154 -23.382648677195277, -49.004578598126436 -23.53786991868656, -48.979086208503176 -23.623497346023417 C-48.923789248479046 -23.765211309199803, -48.868492288454924 -23.906925272376185, -48.82886663327529 -24.008477123264846 C-48.78101574789877 -24.10635767377329, -48.73316486252225 -24.20423822428173, -48.64736875603245 -24.379736965185366 C-48.58906270719868 -24.477587140539026, -48.53075665836491 -24.57543731589269, -48.435832391312644 -24.734740790612133 C-48.371692043051944 -24.824574937791322, -48.30755169479125 -24.91440908497051, -48.19570254698197 -25.07106356344834 C-48.10905742801651 -25.173365262099022, -48.02241230905106 -25.2756669607497, -47.92861955336566 -25.386407858128706 C-47.854348391552605 -25.460679019941757, -47.780077229739554 -25.53495018175481, -47.636407858128706 -25.678619553365657 C-47.518392799772904 -25.778573209129178, -47.400377741417095 -25.8785268648927, -47.32106356344834 -25.945702546981966 C-47.21799471175898 -26.01929229263847, -47.114925860069626 -26.09288203829498, -46.984740790612136 -26.185832391312644 C-46.873051096352064 -26.252385003448694, -46.761361402091985 -26.318937615584748, -46.629736965185366 -26.397368756032446 C-46.544577113271686 -26.43900087080331, -46.45941726135801 -26.480632985574168, -46.258477123264846 -26.578866633275286 C-46.153062498943314 -26.61999954732562, -46.04764787462178 -26.66113246137595, -45.87349734602342 -26.729086208503173 C-45.78333918032401 -26.755927457378792, -45.6931810146246 -26.782768706254412, -45.477427435703994 -26.847001329696653 C-45.35210813656505 -26.87327802349149, -45.2267888374261 -26.89955471728633, -45.07297295140367 -26.931806517013612 C-44.95655013811519 -26.946318605555852, -44.8401273248267 -26.960830694098092, -44.66289672736166 -26.982922465033347 C-44.544498005318346 -26.98781947240035, -44.42609928327503 -26.992716479767353, -44.25 -27 C-44.25 -27, -44.25 -27, -44.25 -27" stroke="none" stroke-width="0" fill="#FA465B" style=""/><path d="M-44.25 -27 C-14.896208724231457 -27, 14.457582551537087 -27, 44.25 -27 M-44.25 -27 C-20.913455744116014 -27, 2.423088511767972 -27, 44.25 -27 M44.25 -27 C44.25 -27, 44.25 -27, 44.25 -27 M44.25 -27 C44.25 -27, 44.25 -27, 44.25 -27 M44.25 -27 C44.34411186400977 -26.996107504511667, 44.43822372801953 -26.99221500902333, 44.66289672736166 -26.982922465033347 M44.25 -27 C44.34778445212689 -26.995955605143536, 44.445568904253776 -26.991911210287075, 44.66289672736166 -26.982922465033347 M44.66289672736166 -26.982922465033347 C44.75165070385175 -26.971859293401266, 44.84040468034184 -26.960796121769185, 45.07297295140367 -26.931806517013612 M44.66289672736166 -26.982922465033347 C44.79843339075418 -26.966027837560308, 44.93397005414669 -26.94913321008727, 45.07297295140367 -26.931806517013612 M45.07297295140367 -26.931806517013612 C45.20473460101597 -26.904179004375465, 45.33649625062828 -26.876551491737317, 45.477427435703994 -26.847001329696653 M45.07297295140367 -26.931806517013612 C45.201625909038285 -26.904830828537914, 45.33027886667289 -26.87785514006222, 45.477427435703994 -26.847001329696653 M45.477427435703994 -26.847001329696653 C45.55957779993248 -26.82254410661127, 45.64172816416095 -26.798086883525887, 45.87349734602342 -26.729086208503173 M45.477427435703994 -26.847001329696653 C45.60754180870431 -26.808264602513887, 45.73765618170463 -26.76952787533112, 45.87349734602342 -26.729086208503173 M45.87349734602342 -26.729086208503173 C45.99467489976976 -26.681802580304918, 46.115852453516105 -26.634518952106667, 46.258477123264846 -26.578866633275286 M45.87349734602342 -26.729086208503173 C45.96674241449503 -26.692701869880842, 46.05998748296664 -26.656317531258516, 46.258477123264846 -26.578866633275286 M46.258477123264846 -26.578866633275286 C46.38778514792723 -26.515651791979003, 46.51709317258962 -26.452436950682724, 46.629736965185366 -26.397368756032446 M46.258477123264846 -26.578866633275286 C46.37353708691652 -26.52261724457117, 46.48859705056819 -26.46636785586705, 46.629736965185366 -26.397368756032446 M46.629736965185366 -26.397368756032446 C46.745201386098266 -26.328566895024245, 46.860665807011166 -26.259765034016045, 46.984740790612136 -26.185832391312644 M46.629736965185366 -26.397368756032446 C46.710975269830456 -26.34896123360656, 46.79221357447555 -26.30055371118067, 46.984740790612136 -26.185832391312644 M46.984740790612136 -26.185832391312644 C47.0637244128771 -26.129439168935175, 47.14270803514207 -26.073045946557706, 47.32106356344834 -25.94570254698197 M46.984740790612136 -26.185832391312644 C47.081707360653205 -26.116599591009283, 47.17867393069428 -26.047366790705922, 47.32106356344834 -25.94570254698197 M47.32106356344834 -25.94570254698197 C47.40193536305711 -25.87720762665832, 47.482807162665885 -25.808712706334667, 47.636407858128706 -25.678619553365657 M47.32106356344834 -25.94570254698197 C47.39535763268757 -25.882778680100333, 47.4696517019268 -25.819854813218694, 47.636407858128706 -25.678619553365657 M47.636407858128706 -25.678619553365657 C47.71340731457837 -25.601620096915994, 47.79040677102803 -25.524620640466328, 47.92861955336566 -25.386407858128706 M47.636407858128706 -25.678619553365657 C47.74198685166438 -25.573040559829984, 47.84756584520005 -25.46746156629431, 47.92861955336566 -25.386407858128706 M47.92861955336566 -25.386407858128706 C47.99860171480858 -25.303780076248557, 48.0685838762515 -25.22115229436841, 48.19570254698197 -25.07106356344834 M47.92861955336566 -25.386407858128706 C48.013541302534286 -25.286140938352165, 48.09846305170292 -25.185874018575625, 48.19570254698197 -25.07106356344834 M48.19570254698197 -25.07106356344834 C48.26570992881677 -24.97301212447244, 48.33571731065157 -24.874960685496536, 48.435832391312644 -24.734740790612136 M48.19570254698197 -25.07106356344834 C48.24626132774929 -25.000251585094382, 48.29682010851661 -24.929439606740424, 48.435832391312644 -24.734740790612136 M48.435832391312644 -24.734740790612136 C48.49212382636745 -24.640271573417788, 48.54841526142225 -24.54580235622344, 48.64736875603245 -24.37973696518537 M48.435832391312644 -24.734740790612136 C48.49743592711186 -24.631356718102886, 48.55903946291107 -24.527972645593636, 48.64736875603245 -24.37973696518537 M48.64736875603245 -24.37973696518537 C48.70760693138268 -24.256517808036858, 48.767845106732906 -24.13329865088835, 48.82886663327529 -24.008477123264846 M48.64736875603245 -24.37973696518537 C48.688968439247574 -24.294643453079296, 48.73056812246269 -24.209549940973226, 48.82886663327529 -24.008477123264846 M48.82886663327529 -24.008477123264846 C48.88201315187124 -23.872274269148203, 48.93515967046719 -23.736071415031564, 48.979086208503176 -23.623497346023417 M48.82886663327529 -24.008477123264846 C48.880945121777266 -23.875011395698067, 48.93302361027925 -23.74154566813129, 48.979086208503176 -23.623497346023417 M48.979086208503176 -23.623497346023417 C49.01836394261509 -23.491565762781175, 49.057641676727 -23.359634179538936, 49.09700132969665 -23.227427435703994 M48.979086208503176 -23.623497346023417 C49.01552828503767 -23.501090568684095, 49.05197036157215 -23.378683791344777, 49.09700132969665 -23.227427435703994 M49.09700132969665 -23.227427435703994 C49.13069645659869 -23.06672800674496, 49.16439158350074 -22.906028577785925, 49.18180651701361 -22.82297295140367 M49.09700132969665 -23.227427435703994 C49.120657769030466 -23.114604703111254, 49.14431420836428 -23.00178197051852, 49.18180651701361 -22.82297295140367 M49.18180651701361 -22.82297295140367 C49.20106790361003 -22.66844903095866, 49.22032929020645 -22.513925110513643, 49.23292246503335 -22.412896727361662 M49.18180651701361 -22.82297295140367 C49.19238580617908 -22.73810090809637, 49.20296509534455 -22.65322886478907, 49.23292246503335 -22.412896727361662 M49.23292246503335 -22.412896727361662 C49.23723583337094 -22.308609096039273, 49.24154920170853 -22.204321464716887, 49.25 -22 M49.23292246503335 -22.412896727361662 C49.237717000874596 -22.2969755383883, 49.24251153671584 -22.181054349414932, 49.25 -22 M49.25 -22 C49.25 -22, 49.25 -22, 49.25 -22 M49.25 -22 C49.25 -22, 49.25 -22, 49.25 -22 M49.25 -22 C49.25 -5.726725556435468, 49.25 10.546548887129063, 49.25 22 M49.25 -22 C49.25 -12.160804273571394, 49.25 -2.3216085471427874, 49.25 22 M49.25 22 C49.25 22, 49.25 22, 49.25 22 M49.25 22 C49.25 22, 49.25 22, 49.25 22 M49.25 22 C49.24416593350596 22.141054722903746, 49.238331867011915 22.28210944580749, 49.23292246503335 22.412896727361662 M49.25 22 C49.246156748298496 22.09292125901517, 49.242313496597 22.185842518030345, 49.23292246503335 22.412896727361662 M49.23292246503335 22.412896727361662 C49.21911166339123 22.52369348664716, 49.20530086174911 22.634490245932664, 49.18180651701361 22.82297295140367 M49.23292246503335 22.412896727361662 C49.22176426450018 22.502413070479808, 49.21060606396702 22.59192941359795, 49.18180651701361 22.82297295140367 M49.18180651701361 22.82297295140367 C49.159610203722075 22.928832023586885, 49.13741389043054 23.0346910957701, 49.09700132969665 23.227427435703994 M49.18180651701361 22.82297295140367 C49.16016641866233 22.926179312898558, 49.13852632031105 23.029385674393446, 49.09700132969665 23.227427435703994 M49.09700132969665 23.227427435703994 C49.07103285368367 23.31465400903481, 49.045064377670684 23.401880582365628, 48.979086208503176 23.623497346023417 M49.09700132969665 23.227427435703994 C49.07047939950321 23.316513028856875, 49.04395746930977 23.40559862200975, 48.979086208503176 23.623497346023417 M48.979086208503176 23.623497346023417 C48.92448690866789 23.763423359369142, 48.869887608832606 23.903349372714867, 48.82886663327529 24.008477123264846 M48.979086208503176 23.623497346023417 C48.933572496689386 23.740138992818935, 48.8880587848756 23.85678063961445, 48.82886663327529 24.008477123264846 M48.82886663327529 24.008477123264846 C48.77005853705646 24.12877100679407, 48.71125044083762 24.249064890323297, 48.64736875603245 24.379736965185366 M48.82886663327529 24.008477123264846 C48.77700379287761 24.11456425893879, 48.72514095247992 24.220651394612727, 48.64736875603245 24.379736965185366 M48.64736875603245 24.379736965185366 C48.58671973064823 24.48151916253154, 48.526070705264004 24.58330135987772, 48.435832391312644 24.734740790612133 M48.64736875603245 24.379736965185366 C48.5692244628556 24.510880010258475, 48.49108016967876 24.642023055331585, 48.435832391312644 24.734740790612133 M48.435832391312644 24.734740790612133 C48.376320470661476 24.818092421584943, 48.31680855001031 24.901444052557757, 48.19570254698197 25.07106356344834 M48.435832391312644 24.734740790612133 C48.3462155656937 24.860256964451146, 48.25659874007474 24.98577313829016, 48.19570254698197 25.07106356344834 M48.19570254698197 25.07106356344834 C48.129479860314035 25.149252541849336, 48.0632571736461 25.22744152025033, 47.92861955336566 25.386407858128706 M48.19570254698197 25.07106356344834 C48.093761418143735 25.191425226829256, 47.991820289305494 25.311786890210172, 47.92861955336566 25.386407858128706 M47.92861955336566 25.386407858128706 C47.86607697195587 25.448950439538493, 47.80353439054608 25.511493020948276, 47.636407858128706 25.678619553365657 M47.92861955336566 25.386407858128706 C47.859640082653506 25.45538732884086, 47.79066061194135 25.52436679955301, 47.636407858128706 25.678619553365657 M47.636407858128706 25.678619553365657 C47.55174031251147 25.750329306568954, 47.46707276689423 25.822039059772255, 47.32106356344834 25.94570254698197 M47.636407858128706 25.678619553365657 C47.51209337221481 25.78390855211355, 47.387778886300914 25.889197550861443, 47.32106356344834 25.94570254698197 M47.32106356344834 25.94570254698197 C47.2338043903676 26.008004399073638, 47.146545217286864 26.070306251165306, 46.984740790612136 26.185832391312644 M47.32106356344834 25.94570254698197 C47.21161116479604 26.02385005756638, 47.10215876614373 26.101997568150797, 46.984740790612136 26.185832391312644 M46.984740790612136 26.185832391312644 C46.91322043977769 26.228449270161246, 46.84170008894325 26.271066149009847, 46.629736965185366 26.397368756032446 M46.984740790612136 26.185832391312644 C46.90757711924592 26.23181195930637, 46.8304134478797 26.277791527300096, 46.629736965185366 26.397368756032446 M46.629736965185366 26.397368756032446 C46.54609904821479 26.438256842146597, 46.46246113124421 26.479144928260748, 46.258477123264846 26.578866633275286 M46.629736965185366 26.397368756032446 C46.53481703272442 26.443772283439493, 46.43989710026348 26.49017581084654, 46.258477123264846 26.578866633275286 M46.258477123264846 26.578866633275286 C46.174530010337534 26.611622898385907, 46.09058289741023 26.644379163496527, 45.87349734602342 26.729086208503173 M46.258477123264846 26.578866633275286 C46.1468586027695 26.622420315124558, 46.03524008227416 26.665973996973825, 45.87349734602342 26.729086208503173 M45.87349734602342 26.729086208503173 C45.7882127889183 26.754476521235773, 45.702928231813175 26.77986683396837, 45.477427435703994 26.847001329696653 M45.87349734602342 26.729086208503173 C45.74006409570255 26.768811008274344, 45.60663084538168 26.808535808045516, 45.477427435703994 26.847001329696653 M45.477427435703994 26.847001329696653 C45.325241283663324 26.87891141014287, 45.17305513162266 26.910821490589086, 45.07297295140367 26.931806517013612 M45.477427435703994 26.847001329696653 C45.39103324447711 26.865116286643584, 45.30463905325023 26.88323124359051, 45.07297295140367 26.931806517013612 M45.07297295140367 26.931806517013612 C44.96870192560013 26.944803886825504, 44.86443089979658 26.957801256637396, 44.66289672736166 26.982922465033347 M45.07297295140367 26.931806517013612 C44.92131522057901 26.95071063344644, 44.76965748975435 26.969614749879266, 44.66289672736166 26.982922465033347 M44.66289672736166 26.982922465033347 C44.52677183370281 26.98855263228157, 44.390646940043965 26.994182799529796, 44.25 27 M44.66289672736166 26.982922465033347 C44.50837256063676 26.989313631844716, 44.35384839391185 26.99570479865609, 44.25 27 M44.25 27 C44.25 27, 44.25 27, 44.25 27 M44.25 27 C44.25 27, 44.25 27, 44.25 27 M44.25 27 C13.207345969517235 27, -17.83530806096553 27, -44.25 27 M44.25 27 C12.337674497425606 27, -19.574651005148787 27, -44.25 27 M-44.25 27 C-44.25 27, -44.25 27, -44.25 27 M-44.25 27 C-44.25 27, -44.25 27, -44.25 27 M-44.25 27 C-44.38698806344731 26.994334131785244, -44.52397612689463 26.988668263570485, -44.66289672736166 26.982922465033347 M-44.25 27 C-44.33539042660012 26.996468225831194, -44.42078085320024 26.992936451662384, -44.66289672736166 26.982922465033347 M-44.66289672736166 26.982922465033347 C-44.817744978242466 26.963620650690267, -44.97259322912327 26.944318836347186, -45.07297295140367 26.931806517013612 M-44.66289672736166 26.982922465033347 C-44.8172149448499 26.96368671928375, -44.97153316233814 26.944450973534153, -45.07297295140367 26.931806517013612 M-45.07297295140367 26.931806517013612 C-45.16517751099313 26.912473253937076, -45.2573820705826 26.893139990860544, -45.477427435703994 26.847001329696653 M-45.07297295140367 26.931806517013612 C-45.154696228272634 26.91467094781596, -45.236419505141605 26.89753537861831, -45.477427435703994 26.847001329696653 M-45.477427435703994 26.847001329696653 C-45.62871808437485 26.801960152094757, -45.780008733045705 26.756918974492862, -45.87349734602342 26.729086208503173 M-45.477427435703994 26.847001329696653 C-45.58753259862011 26.81422160245403, -45.697637761536214 26.781441875211407, -45.87349734602342 26.729086208503173 M-45.87349734602342 26.729086208503173 C-45.98998593850908 26.68363221866641, -46.10647453099474 26.638178228829652, -46.258477123264846 26.578866633275286 M-45.87349734602342 26.729086208503173 C-45.98845806898233 26.684228395205754, -46.103418791941245 26.63937058190833, -46.258477123264846 26.578866633275286 M-46.258477123264846 26.578866633275286 C-46.3979118104016 26.510701168358782, -46.53734649753835 26.442535703442278, -46.629736965185366 26.397368756032446 M-46.258477123264846 26.578866633275286 C-46.3849587448388 26.517033536253123, -46.51144036641275 26.45520043923096, -46.629736965185366 26.397368756032446 M-46.629736965185366 26.397368756032446 C-46.7259296699593 26.34005034529143, -46.82212237473323 26.282731934550416, -46.984740790612136 26.185832391312644 M-46.629736965185366 26.397368756032446 C-46.72348400098251 26.34150764768539, -46.817231036779646 26.285646539338334, -46.984740790612136 26.185832391312644 M-46.984740790612136 26.185832391312644 C-47.07728238358655 26.11975896390938, -47.169823976560956 26.053685536506112, -47.32106356344834 25.94570254698197 M-46.984740790612136 26.185832391312644 C-47.11764596227592 26.090939922648595, -47.25055113393971 25.99604745398454, -47.32106356344834 25.94570254698197 M-47.32106356344834 25.94570254698197 C-47.38418442615702 25.892241903310058, -47.44730528886569 25.838781259638147, -47.636407858128706 25.67861955336566 M-47.32106356344834 25.94570254698197 C-47.400678621098464 25.878272032801643, -47.48029367874858 25.810841518621316, -47.636407858128706 25.67861955336566 M-47.636407858128706 25.67861955336566 C-47.744639722190136 25.57038768930423, -47.85287158625157 25.462155825242796, -47.92861955336566 25.386407858128706 M-47.636407858128706 25.67861955336566 C-47.72013686864466 25.594890542849708, -47.80386587916061 25.511161532333755, -47.92861955336566 25.386407858128706 M-47.92861955336566 25.386407858128706 C-48.01571142644066 25.283578677897626, -48.10280329951566 25.18074949766655, -48.19570254698197 25.07106356344834 M-47.92861955336566 25.386407858128706 C-47.9953884046023 25.307574024439973, -48.06215725583895 25.22874019075124, -48.19570254698197 25.07106356344834 M-48.19570254698197 25.07106356344834 C-48.28162560994894 24.950720826092308, -48.36754867291591 24.83037808873627, -48.435832391312644 24.734740790612133 M-48.19570254698197 25.07106356344834 C-48.26703448364685 24.971156970006025, -48.33836642031174 24.87125037656371, -48.435832391312644 24.734740790612133 M-48.435832391312644 24.734740790612133 C-48.48303032051053 24.655532445325182, -48.53022824970842 24.57632410003823, -48.64736875603244 24.37973696518537 M-48.435832391312644 24.734740790612133 C-48.48712746378575 24.6486565517267, -48.53842253625886 24.562572312841265, -48.64736875603244 24.37973696518537 M-48.64736875603244 24.37973696518537 C-48.68966686225582 24.29321480598117, -48.731964968479204 24.206692646776972, -48.82886663327528 24.00847712326485 M-48.64736875603244 24.37973696518537 C-48.69278501614309 24.28683652025763, -48.73820127625374 24.19393607532989, -48.82886663327528 24.00847712326485 M-48.82886663327528 24.00847712326485 C-48.87183281344545 23.898364240534807, -48.91479899361562 23.78825135780476, -48.979086208503176 23.623497346023417 M-48.82886663327528 24.00847712326485 C-48.8782924056297 23.88180972454453, -48.92771817798411 23.75514232582421, -48.979086208503176 23.623497346023417 M-48.979086208503176 23.623497346023417 C-49.016886603842195 23.496528056245907, -49.05468699918122 23.369558766468394, -49.09700132969665 23.227427435703994 M-48.979086208503176 23.623497346023417 C-49.00698242992496 23.52979559000649, -49.03487865134675 23.436093833989563, -49.09700132969665 23.227427435703994 M-49.09700132969665 23.227427435703994 C-49.114126644290316 23.145753065284005, -49.131251958883986 23.06407869486402, -49.18180651701361 22.82297295140367 M-49.09700132969665 23.227427435703994 C-49.11503332938538 23.14142888578334, -49.13306532907411 23.055430335862688, -49.18180651701361 22.82297295140367 M-49.18180651701361 22.82297295140367 C-49.19787901312296 22.694031813250355, -49.2139515092323 22.565090675097043, -49.23292246503335 22.412896727361662 M-49.18180651701361 22.82297295140367 C-49.19687315133507 22.70210131053771, -49.211939785656526 22.58122966967175, -49.23292246503335 22.412896727361662 M-49.23292246503335 22.412896727361662 C-49.239636916233 22.250556264772626, -49.24635136743266 22.088215802183587, -49.25 22 M-49.23292246503335 22.412896727361662 C-49.23690218393735 22.31667599559369, -49.240881902841366 22.22045526382572, -49.25 22 M-49.25 22 C-49.25 22, -49.25 22, -49.25 22 M-49.25 22 C-49.25 22, -49.25 22, -49.25 22 M-49.25 22 C-49.25 6.446095779460398, -49.25 -9.107808441079204, -49.25 -22 M-49.25 22 C-49.25 5.142825359120188, -49.25 -11.714349281759624, -49.25 -22 M-49.25 -22 C-49.25 -22, -49.25 -22, -49.25 -22 M-49.25 -22 C-49.25 -22, -49.25 -22, -49.25 -22 M-49.25 -22 C-49.246181528572535 -22.092322127227572, -49.24236305714507 -22.18464425445514, -49.23292246503335 -22.41289672736166 M-49.25 -22 C-49.24348447371096 -22.15753090168093, -49.236968947421914 -22.31506180336186, -49.23292246503335 -22.41289672736166 M-49.23292246503335 -22.41289672736166 C-49.222102479013564 -22.49969975426562, -49.21128249299379 -22.58650278116958, -49.18180651701361 -22.82297295140367 M-49.23292246503335 -22.41289672736166 C-49.21915474617086 -22.523347856285678, -49.20538702730837 -22.6337989852097, -49.18180651701361 -22.82297295140367 M-49.18180651701361 -22.82297295140367 C-49.15470491537556 -22.952226416445395, -49.12760331373752 -23.08147988148712, -49.09700132969665 -23.227427435703994 M-49.18180651701361 -22.82297295140367 C-49.16028728552701 -22.92560287238861, -49.13876805404041 -23.028232793373547, -49.09700132969665 -23.227427435703994 M-49.09700132969665 -23.227427435703994 C-49.066020700526366 -23.331489534719953, -49.03504007135608 -23.43555163373591, -48.979086208503176 -23.623497346023417 M-49.09700132969665 -23.227427435703994 C-49.06871447333911 -23.322441311340604, -49.04042761698155 -23.41745518697721, -48.979086208503176 -23.623497346023417 M-48.979086208503176 -23.623497346023417 C-48.92954784785071 -23.750453283822857, -48.88000948719826 -23.877409221622298, -48.82886663327529 -24.008477123264846 M-48.979086208503176 -23.623497346023417 C-48.94857305987469 -23.701695844082725, -48.91805991124621 -23.779894342142036, -48.82886663327529 -24.008477123264846 M-48.82886663327529 -24.008477123264846 C-48.774249003984075 -24.120199269687525, -48.71963137469286 -24.2319214161102, -48.64736875603245 -24.379736965185366 M-48.82886663327529 -24.008477123264846 C-48.77473176744008 -24.119211761254455, -48.72059690160487 -24.22994639924406, -48.64736875603245 -24.379736965185366 M-48.64736875603245 -24.379736965185366 C-48.595157209950656 -24.46735924523652, -48.54294566386887 -24.554981525287673, -48.435832391312644 -24.734740790612133 M-48.64736875603245 -24.379736965185366 C-48.59790220322864 -24.462752552123746, -48.54843565042484 -24.545768139062126, -48.435832391312644 -24.734740790612133 M-48.435832391312644 -24.734740790612133 C-48.35309031447175 -24.850628279695062, -48.27034823763085 -24.966515768777995, -48.19570254698197 -25.07106356344834 M-48.435832391312644 -24.734740790612133 C-48.35552954822232 -24.847211920263046, -48.275226705132 -24.959683049913956, -48.19570254698197 -25.07106356344834 M-48.19570254698197 -25.07106356344834 C-48.09879391266466 -25.18548337177628, -48.001885278347345 -25.299903180104213, -47.92861955336566 -25.386407858128706 M-48.19570254698197 -25.07106356344834 C-48.10004292014242 -25.184008671433915, -48.004383293302865 -25.296953779419493, -47.92861955336566 -25.386407858128706 M-47.92861955336566 -25.386407858128706 C-47.8360829503815 -25.478944461112857, -47.743546347397356 -25.57148106409701, -47.636407858128706 -25.678619553365657 M-47.92861955336566 -25.386407858128706 C-47.86917774530587 -25.445849666188494, -47.80973593724608 -25.505291474248285, -47.636407858128706 -25.678619553365657 M-47.636407858128706 -25.678619553365657 C-47.567407605509224 -25.737059786281783, -47.49840735288975 -25.79550001919791, -47.32106356344834 -25.945702546981966 M-47.636407858128706 -25.678619553365657 C-47.52944917257621 -25.76920893903881, -47.4224904870237 -25.85979832471196, -47.32106356344834 -25.945702546981966 M-47.32106356344834 -25.945702546981966 C-47.193974633413205 -26.03644229894147, -47.06688570337806 -26.127182050900977, -46.984740790612136 -26.185832391312644 M-47.32106356344834 -25.945702546981966 C-47.20414776585763 -26.02917882198559, -47.08723196826691 -26.112655096989208, -46.984740790612136 -26.185832391312644 M-46.984740790612136 -26.185832391312644 C-46.90832596368821 -26.231365744872278, -46.83191113676428 -26.276899098431915, -46.629736965185366 -26.397368756032446 M-46.984740790612136 -26.185832391312644 C-46.84499983965493 -26.269099924366518, -46.70525888869772 -26.352367457420396, -46.629736965185366 -26.397368756032446 M-46.629736965185366 -26.397368756032446 C-46.50855477239426 -26.45661112018754, -46.38737257960315 -26.515853484342635, -46.258477123264846 -26.578866633275286 M-46.629736965185366 -26.397368756032446 C-46.509325263896855 -26.456234449844118, -46.388913562608344 -26.515100143655793, -46.258477123264846 -26.578866633275286 M-46.258477123264846 -26.578866633275286 C-46.121399880233454 -26.632354339484518, -45.98432263720206 -26.685842045693754, -45.87349734602342 -26.729086208503173 M-46.258477123264846 -26.578866633275286 C-46.1714493787675 -26.612824964554683, -46.08442163427015 -26.64678329583408, -45.87349734602342 -26.729086208503173 M-45.87349734602342 -26.729086208503173 C-45.77981156959817 -26.756977672594395, -45.68612579317292 -26.78486913668562, -45.477427435703994 -26.847001329696653 M-45.87349734602342 -26.729086208503173 C-45.755860795464265 -26.764108126994227, -45.63822424490511 -26.79913004548528, -45.477427435703994 -26.847001329696653 M-45.477427435703994 -26.847001329696653 C-45.364181562902516 -26.870746492202183, -45.250935690101045 -26.894491654707714, -45.07297295140367 -26.931806517013612 M-45.477427435703994 -26.847001329696653 C-45.37746446322763 -26.867961360886028, -45.27750149075128 -26.888921392075403, -45.07297295140367 -26.931806517013612 M-45.07297295140367 -26.931806517013612 C-44.976578032629426 -26.943822131108142, -44.88018311385518 -26.955837745202672, -44.66289672736166 -26.982922465033347 M-45.07297295140367 -26.931806517013612 C-44.97024830185811 -26.944611131225965, -44.867523652312556 -26.95741574543832, -44.66289672736166 -26.982922465033347 M-44.66289672736166 -26.982922465033347 C-44.50549918864219 -26.989432475389503, -44.34810164992271 -26.99594248574566, -44.25 -27 M-44.66289672736166 -26.982922465033347 C-44.56490338265477 -26.986975499750827, -44.46691003794788 -26.99102853446831, -44.25 -27 M-44.25 -27 C-44.25 -27, -44.25 -27, -44.25 -27 M-44.25 -27 C-44.25 -27, -44.25 -27, -44.25 -27" stroke="hsl(353, 54.7368421053%, 52.7450980392%)" stroke-width="1.3" fill="none" stroke-dasharray="0 0" style=""/></g><g class="label" style="" transform="translate(-34.25, -12)"><rect/><foreignObject width="68.5" height="24"><div xmlns="http://www.w3.org/1999/xhtml" style="display: table-cell; white-space: nowrap; line-height: 1.5; max-width: 200px; text-align: center;"><span class="nodeLabel"><p>Database</p></span></div></foreignObject></g></g></g></g></g></svg>